<svg width="397" height="251" viewBox="0 0 397 251" fill="none" xmlns="http://www.w3.org/2000/svg">
<path d="M382.05 186.186C382.05 186.186 417.11 124.331 377.76 65.3392C338.41 6.34707 252.55 -8.98185 205.33 6.3312C158.11 21.6443 124.48 69.8752 78.6901 85.8068C32.9001 101.738 -25.7599 151.016 13.5901 208.882C52.9401 266.748 99.4401 262.22 171.7 247.462C243.96 232.704 356.29 236.685 382.05 186.186Z" fill="#FFC973"/>
<path opacity="0.7" d="M382.05 186.186C382.05 186.186 417.11 124.331 377.76 65.3392C338.41 6.34707 252.55 -8.98185 205.33 6.3312C158.11 21.6443 124.48 69.8752 78.6901 85.8068C32.9001 101.738 -25.7599 151.016 13.5901 208.882C52.9401 266.748 99.4401 262.22 171.7 247.462C243.96 232.704 356.29 236.685 382.05 186.186Z" fill="white"/>
</svg>
