<svg width="50" height="50" viewBox="0 0 50 50" fill="none" xmlns="http://www.w3.org/2000/svg">
<g clip-path="url(#clip0)">
<path d="M50 36.9186V13.0814C50 5.85674 44.1433 0 36.9186 0L13.0814 0C5.85674 0 0 5.85674 0 13.0814V36.9186C0 44.1433 5.85674 50 13.0814 50H36.9186C44.1433 50 50 44.1433 50 36.9186Z" fill="white"/>
<path d="M38.3891 21.3747C38.3801 19.7872 37.7443 18.2676 36.6201 17.1466C35.496 16.0257 33.9745 15.3942 32.387 15.3897H17.0997C16.3079 15.383 15.5224 15.5326 14.7885 15.8299C14.0545 16.1272 13.3864 16.5664 12.8225 17.1224C12.2585 17.6784 11.8099 18.3402 11.5022 19.0699C11.1945 19.7996 11.0338 20.5828 11.0293 21.3747V28.5053C11.0292 29.2993 11.1867 30.0854 11.4926 30.8181C11.7985 31.5508 12.2468 32.2156 12.8114 32.7738C13.376 33.332 14.0457 33.7727 14.7819 34.0703C15.518 34.3679 16.3058 34.5164 17.0997 34.5074H32.4896C34.0815 34.5074 35.6081 33.875 36.7337 32.7494C37.8593 31.6238 38.4917 30.0972 38.4917 28.5053L38.3891 21.3747ZM29.3603 25.4787L22.5204 28.8986C22.2639 29.0354 21.3405 28.8986 21.3405 28.5395V21.5286C21.3405 21.2208 22.2639 21.0327 22.5375 21.1866L29.0697 24.7605C29.3433 24.9315 29.6339 25.3248 29.3603 25.4787Z" fill="#5D147C"/>
</g>
<defs>
<clipPath id="clip0">
<rect width="50" height="50" fill="white"/>
</clipPath>
</defs>
</svg>
