<svg width="50" height="50" viewBox="0 0 50 50" fill="none" xmlns="http://www.w3.org/2000/svg">
<g clip-path="url(#clip0)">
<path d="M50 36.9186V13.0814C50 5.85674 44.1433 0 36.9186 0L13.0814 0C5.85674 0 0 5.85674 0 13.0814V36.9186C0 44.1433 5.85674 50 13.0814 50H36.9186C44.1433 50 50 44.1433 50 36.9186Z" fill="white"/>
<path d="M32.7632 15.578C32.425 15.578 32.0944 15.6783 31.8132 15.8662C31.532 16.0541 31.3128 16.3211 31.1834 16.6336C31.054 16.9461 31.0201 17.2899 31.0861 17.6216C31.1521 17.9533 31.3149 18.258 31.5541 18.4971C31.7932 18.7363 32.0979 18.8991 32.4296 18.9651C32.7613 19.0311 33.1051 18.9972 33.4176 18.8678C33.7301 18.7384 33.9971 18.5192 34.185 18.238C34.3729 17.9568 34.4732 17.6262 34.4732 17.288C34.4732 16.8345 34.293 16.3995 33.9724 16.0788C33.6517 15.7582 33.2167 15.578 32.7632 15.578Z" fill="#5D147C"/>
<path d="M25.1195 17.7838C23.6922 17.7838 22.2971 18.207 21.1104 19C19.9237 19.7929 18.9988 20.9199 18.4526 22.2385C17.9064 23.557 17.7635 25.008 18.042 26.4078C18.3204 27.8076 19.0077 29.0933 20.0169 30.1025C21.0261 31.1117 22.3119 31.799 23.7117 32.0774C25.1115 32.3559 26.5624 32.213 27.881 31.6668C29.1995 31.1206 30.3266 30.1957 31.1195 29.009C31.9124 27.8223 32.3356 26.4272 32.3356 25C32.3356 24.0523 32.149 23.114 31.7863 22.2385C31.4237 21.363 30.8921 20.5675 30.2221 19.8974C29.552 19.2273 28.7565 18.6958 27.881 18.3331C27.0055 17.9705 26.0671 17.7838 25.1195 17.7838ZM25.1195 29.634C24.2029 29.634 23.307 29.3622 22.5449 28.853C21.7829 28.3438 21.1889 27.6201 20.8382 26.7733C20.4874 25.9266 20.3956 24.9948 20.5744 24.0959C20.7533 23.197 21.1946 22.3713 21.8427 21.7232C22.4908 21.0751 23.3165 20.6337 24.2154 20.4549C25.1143 20.2761 26.0461 20.3679 26.8928 20.7186C27.7396 21.0694 28.4634 21.6633 28.9726 22.4254C29.4818 23.1875 29.7535 24.0834 29.7535 25C29.7535 26.229 29.2653 27.4077 28.3962 28.2767C27.5272 29.1458 26.3485 29.634 25.1195 29.634Z" fill="#5D147C"/>
<path d="M30.7797 39.6546H19.1518C17.9902 39.6524 16.8404 39.4208 15.7685 38.9732C14.6966 38.5256 13.7237 37.8707 12.9055 37.0461C12.0873 36.2216 11.4399 35.2436 11.0006 34.1682C10.5613 33.0929 10.3386 31.9414 10.3454 30.7798V19.1519C10.3499 16.8177 11.2792 14.5803 12.9297 12.9298C14.5802 11.2792 16.8176 10.35 19.1518 10.3455H30.7797C33.1139 10.35 35.3512 11.2792 37.0018 12.9298C38.6523 14.5803 39.5816 16.8177 39.5861 19.1519V30.7798C39.5929 31.9414 39.3702 33.0929 38.9309 34.1682C38.4916 35.2436 37.8442 36.2216 37.026 37.0461C36.2078 37.8707 35.2348 38.5256 34.163 38.9732C33.0911 39.4208 31.9413 39.6524 30.7797 39.6546ZM19.1518 13.0985C17.5477 13.103 16.0107 13.7423 14.8764 14.8765C13.7422 16.0108 13.103 17.5478 13.0984 19.1519V30.7798C13.103 32.3839 13.7422 33.9209 14.8764 35.0552C16.0107 36.1894 17.5477 36.8286 19.1518 36.8332H30.7797C31.5798 36.8399 32.3732 36.6885 33.1146 36.3875C33.8559 36.0865 34.5304 35.642 35.0993 35.0794C35.6682 34.5169 36.1203 33.8474 36.4296 33.1095C36.7389 32.3716 36.8992 31.5799 36.9015 30.7798V19.1519C36.8992 18.3518 36.7389 17.5601 36.4296 16.8222C36.1203 16.0843 35.6682 15.4148 35.0993 14.8523C34.5304 14.2897 33.8559 13.8452 33.1146 13.5442C32.3732 13.2432 31.5798 13.0918 30.7797 13.0985H19.1518Z" fill="#5D147C"/>
</g>
<defs>
<clipPath id="clip0">
<rect width="50" height="50" fill="white"/>
</clipPath>
</defs>
</svg>
