<svg width="50" height="50" viewBox="0 0 50 50" fill="none" xmlns="http://www.w3.org/2000/svg">
<g clip-path="url(#clip0)">
<path d="M42.6746 7.3193C32.91 -2.44232 17.0808 -2.43998 7.31918 7.32467C-2.44244 17.0893 -2.4401 32.9184 7.32455 42.68C17.0892 52.4417 32.9183 52.4393 42.6799 42.6747C47.368 37.9851 50.001 31.6253 49.9995 24.9943C49.9982 18.3644 47.3633 12.0066 42.6746 7.3193ZM37.8612 34.8244C37.8601 34.8255 37.859 34.8266 37.8579 34.8277V34.8194L36.5912 36.0777C34.953 37.7366 32.5671 38.4191 30.2995 37.8777C28.0148 37.2662 25.8429 36.2927 23.8662 34.9944C22.0296 33.8207 20.3277 32.4486 18.7912 30.9027C17.3774 29.4993 16.1073 27.9583 14.9995 26.3027C13.7877 24.5212 12.8287 22.5806 12.1495 20.536C11.3708 18.134 12.0161 15.4984 13.8162 13.7277L15.2995 12.2444C15.7119 11.8301 16.382 11.8287 16.7961 12.2411C16.7972 12.2422 16.7984 12.2432 16.7995 12.2444L21.4828 16.9277C21.897 17.3401 21.8985 18.0102 21.4861 18.4244C21.485 18.4255 21.4839 18.4265 21.4828 18.4277L18.7328 21.1777C17.9437 21.9582 17.8445 23.1984 18.4995 24.0944C19.4941 25.4594 20.5948 26.7439 21.7912 27.9361C23.125 29.2757 24.5751 30.4944 26.1245 31.5778C27.0197 32.2022 28.2333 32.0969 29.0078 31.3278L31.6661 28.6278C32.0785 28.2135 32.7486 28.2121 33.1627 28.6245C33.1638 28.6255 33.1649 28.6266 33.1661 28.6278L37.8578 33.3278C38.2721 33.7401 38.2736 34.4101 37.8612 34.8244Z" fill="white"/>
</g>
<defs>
<clipPath id="clip0">
<rect width="50" height="50" fill="white"/>
</clipPath>
</defs>
</svg>
