<svg width="50" height="96" viewBox="0 0 50 96" fill="none" xmlns="http://www.w3.org/2000/svg">
<path d="M48.6424 43.9083L10.7685 1.52166C9.89247 0.54052 8.72312 0 7.47626 0C6.22941 0 5.06006 0.54052 4.18408 1.52166L1.39492 4.64243C-0.419999 6.67596 -0.419999 9.98103 1.39492 12.0115L33.1986 47.6053L1.35964 83.2385C0.483657 84.2197 0 85.5276 0 86.9223C0 88.3185 0.483657 89.6264 1.35964 90.6083L4.14879 93.7283C5.02546 94.7095 6.19413 95.25 7.44098 95.25C8.68783 95.25 9.85718 94.7095 10.7332 93.7283L48.6424 51.3029C49.5205 50.3187 50.0028 49.0046 50 47.6076C50.0028 46.2052 49.5205 44.8918 48.6424 43.9083Z" fill="#FFC973"/>
</svg>
