<svg width="50" height="50" viewBox="0 0 50 50" fill="none" xmlns="http://www.w3.org/2000/svg">
<path d="M0 36.9186V13.0814C0.00902772 9.61477 1.39014 6.29271 3.84142 3.84142C6.29271 1.39014 9.61477 0.00902772 13.0814 0L36.9186 0C40.3852 0.00902772 43.7073 1.39014 46.1586 3.84142C48.6099 6.29271 49.991 9.61477 50 13.0814V36.9186C49.991 40.3852 48.6099 43.7073 46.1586 46.1586C43.7073 48.6099 40.3852 49.991 36.9186 50H28.9159L24.7093 48.974L21.1012 50H13.0814C9.61477 49.991 6.29271 48.6099 3.84142 46.1586C1.39014 43.7073 0.00902772 40.3852 0 36.9186H0Z" fill="white"/>
<path d="M34.73 33.0539L35.9099 25.8207H28.916V21.1353C28.8677 20.5962 28.9412 20.0532 29.1313 19.5464C29.3213 19.0396 29.6229 18.5821 30.0137 18.2076C30.4045 17.8332 30.8746 17.5515 31.3891 17.3834C31.9036 17.2153 32.4493 17.1651 32.9858 17.2366H36.1322V11.0806C34.2832 10.7768 32.4141 10.611 30.5405 10.5847C24.8292 10.5847 21.1014 14.0047 21.1014 20.3145V25.8207H14.7402V33.0539H21.1014V49.9999H28.916V33.0539H34.73Z" fill="#5D147C"/>
</svg>
