<svg width="396" height="356" viewBox="0 0 396 356" fill="none" xmlns="http://www.w3.org/2000/svg">
<path d="M381.407 201.826C381.407 201.826 416.467 139.971 377.117 80.9791C337.767 21.987 251.907 6.65804 204.687 21.9711C157.467 37.2842 123.837 85.5151 78.0466 101.447C32.2566 117.378 -26.4034 166.656 12.9466 224.522C52.2966 282.388 98.7966 277.86 171.057 263.102C243.317 248.344 355.647 252.325 381.407 201.826Z" fill="#FFC973"/>
<path opacity="0.7" d="M381.407 201.826C381.407 201.826 416.467 139.971 377.117 80.9791C337.767 21.987 251.907 6.65804 204.687 21.9711C157.467 37.2842 123.837 85.5151 78.0466 101.447C32.2566 117.378 -26.4034 166.656 12.9466 224.522C52.2966 282.388 98.7966 277.86 171.057 263.102C243.317 248.344 355.647 252.325 381.407 201.826Z" fill="white"/>
<path d="M365.747 292.43V287.08L357.687 280.64L273.227 220.74C271.997 219.34 268.837 218.74 266.177 219.38L55.1767 262.48H49.8567L49.7567 266.88C49.7567 266.88 49.6767 269.2 50.4667 270.1L123.017 353.1C124.267 354.53 127.497 355.1 130.227 354.44L362.797 295.44C365.027 294.95 366.177 293.64 365.747 292.43Z" fill="white" stroke="#263238" stroke-linecap="round" stroke-linejoin="round"/>
<path d="M362.797 289.39L130.227 348.39C127.497 349.07 124.227 348.47 123.017 347.04L50.4669 264.04C49.2169 262.62 50.4669 260.93 53.1769 260.26L266.177 213.33C268.837 212.68 271.997 213.28 273.227 214.68L365.357 285.64C366.597 287.05 365.447 288.73 362.797 289.39Z" fill="white" stroke="#263238" stroke-linecap="round" stroke-linejoin="round"/>
<path d="M282.797 222.02L274.687 216.31C272.687 213.99 267.427 212.99 263.027 214.07L161.187 236.43L55.3566 259.75C49.3566 260.99 49.1966 263.17 51.9466 265.7L79.5966 297.33L110.357 332.52L348.357 272.52L282.797 222.02Z" fill="#263238" stroke="#263238" stroke-linecap="round" stroke-linejoin="round"/>
<path d="M182.037 250.22C161.607 255.22 152.617 267.99 162.037 278.7C171.457 289.41 195.627 293.97 216.037 288.9C236.447 283.83 245.257 271.09 235.887 260.44C226.517 249.79 202.407 245.21 182.037 250.22ZM194.507 287.4L170.357 259.9L227.787 262.42L194.507 287.4Z" fill="#FFC973"/>
<path d="M350.637 284.64L132.777 339.8C131.087 340.22 129.087 339.8 128.317 338.96L126.487 336.87C125.717 335.99 126.487 334.93 128.147 334.51L346.047 279.4C347.687 278.99 349.647 279.4 350.417 280.23L352.227 282.29C352.997 283.16 352.287 284.2 350.637 284.64Z" fill="#FFC973" stroke="#263238" stroke-linecap="round" stroke-linejoin="round"/>
<path d="M144.606 333.44C143.036 331.66 139.016 330.9 135.606 331.75C132.196 332.6 130.726 334.75 132.296 336.52C133.866 338.29 137.886 339.06 141.296 338.21C144.706 337.36 146.166 335.22 144.606 333.44Z" fill="#263238" stroke="#263238" stroke-linecap="round" stroke-linejoin="round"/>
<path d="M95.3566 157.25C95.5697 157.236 95.7835 157.236 95.9966 157.25C96.6517 157.25 97.28 156.99 97.7432 156.527C98.2064 156.063 98.4666 155.435 98.4666 154.78C98.4666 154.125 98.2064 153.497 97.7432 153.034C97.28 152.57 96.6517 152.31 95.9966 152.31H86.6366C86.6366 152.31 87.2166 148.93 87.2166 147.77C87.2166 146.61 87.7966 144.88 86.2166 142.66C84.6366 140.44 81.0966 141.31 81.0966 141.31L81.6466 145.89C81.7252 146.614 81.586 147.345 81.2466 147.99L77.0466 155.88L75.1166 157.52L74.5366 167.27C75.7866 170.27 79.7466 171.22 79.7466 171.22H92.3566C93.0313 171.239 93.686 170.989 94.1771 170.527C94.6682 170.064 94.9557 169.425 94.9766 168.75C94.9713 168.332 94.8592 167.923 94.6509 167.56C94.4426 167.198 94.1451 166.895 93.7866 166.68C94.1525 166.744 94.5277 166.73 94.8879 166.64C95.2481 166.549 95.5853 166.384 95.8776 166.155C96.1699 165.926 96.4108 165.638 96.5846 165.31C96.7584 164.982 96.8613 164.621 96.8866 164.25C96.8746 163.847 96.7623 163.452 96.5597 163.103C96.3572 162.754 96.0709 162.461 95.7266 162.25C96.3209 162.169 96.8669 161.879 97.2665 161.432C97.6661 160.985 97.8931 160.41 97.9066 159.81C97.9066 159.133 97.6383 158.483 97.1604 158.003C96.6824 157.524 96.0338 157.253 95.3566 157.25Z" fill="white"/>
<path d="M92.3567 171.57H79.6367C79.4667 171.57 75.4767 170.57 74.1567 167.38C74.1463 167.324 74.1463 167.266 74.1567 167.21L74.7367 157.47C74.7455 157.362 74.7957 157.262 74.8767 157.19L76.7467 155.6L80.9167 147.77C81.225 147.202 81.3474 146.551 81.2667 145.91L80.7267 141.32C80.7165 141.227 80.7402 141.133 80.7934 141.056C80.8467 140.979 80.9259 140.923 81.0167 140.9C81.1767 140.9 84.8667 140 86.5367 142.41C87.0126 143.071 87.3532 143.819 87.5385 144.612C87.7239 145.405 87.7504 146.227 87.6167 147.03C87.6167 147.29 87.6167 147.53 87.6167 147.74C87.5232 149.132 87.3529 150.517 87.1067 151.89H96.0067H96.1367C96.8958 151.9 97.6216 152.203 98.1622 152.736C98.7027 153.269 99.0161 153.991 99.0367 154.75C99.0269 155.334 98.8399 155.901 98.5006 156.376C98.1613 156.851 97.6856 157.211 97.1367 157.41C97.518 157.663 97.8314 158.006 98.0493 158.409C98.2673 158.812 98.3831 159.262 98.3867 159.72C98.3821 160.28 98.2127 160.826 97.8997 161.29C97.5867 161.754 97.144 162.116 96.6267 162.33C97.1075 162.838 97.3758 163.51 97.3767 164.21C97.3626 164.899 97.1046 165.56 96.6486 166.076C96.1927 166.593 95.5683 166.931 94.8867 167.03C95.257 167.512 95.4575 168.102 95.4567 168.71C95.4466 169.103 95.3577 169.49 95.1953 169.848C95.0329 170.207 94.8003 170.528 94.5112 170.795C94.2222 171.062 93.8825 171.268 93.5124 171.401C93.1424 171.534 92.7494 171.591 92.3567 171.57ZM79.7467 170.79H92.3567C92.9289 170.806 93.4844 170.596 93.902 170.204C94.3197 169.813 94.5658 169.272 94.5867 168.7C94.5822 168.349 94.4879 168.004 94.3129 167.7C94.1379 167.395 93.8879 167.141 93.5867 166.96C93.5136 166.911 93.4594 166.838 93.4328 166.754C93.4061 166.67 93.4087 166.58 93.44 166.498C93.4712 166.415 93.5295 166.346 93.6051 166.301C93.6808 166.256 93.7694 166.238 93.8567 166.25C93.9963 166.264 94.137 166.264 94.2767 166.25C94.8506 166.269 95.4086 166.059 95.8285 165.668C96.2484 165.276 96.4958 164.734 96.5167 164.16C96.5095 163.811 96.4141 163.469 96.2392 163.166C96.0644 162.864 95.8158 162.61 95.5167 162.43C95.449 162.39 95.3954 162.33 95.3631 162.258C95.3309 162.187 95.3216 162.107 95.3367 162.03C95.3525 161.953 95.3917 161.883 95.449 161.829C95.5063 161.775 95.5789 161.741 95.6567 161.73C96.1591 161.661 96.6209 161.417 96.9597 161.039C97.2985 160.662 97.4924 160.177 97.5067 159.67C97.4736 159.122 97.2329 158.606 96.8335 158.229C96.4341 157.852 95.906 157.641 95.3567 157.64C95.2567 157.635 95.1626 157.591 95.0937 157.519C95.0249 157.446 94.9865 157.35 94.9867 157.25C94.9867 156.84 95.3367 156.84 95.9867 156.84C96.2783 156.868 96.5727 156.836 96.8509 156.744C97.1291 156.652 97.385 156.502 97.6021 156.305C97.8191 156.109 97.9926 155.869 98.1113 155.601C98.23 155.333 98.2914 155.043 98.2914 154.75C98.2914 154.457 98.23 154.167 98.1113 153.899C97.9926 153.631 97.8191 153.391 97.6021 153.194C97.385 152.997 97.1291 152.848 96.8509 152.756C96.5727 152.664 96.2783 152.631 95.9867 152.66C95.9439 152.669 95.8995 152.669 95.8567 152.66H86.6267C86.5719 152.66 86.5178 152.648 86.4678 152.626C86.4179 152.603 86.3732 152.571 86.3367 152.53C86.2984 152.487 86.2704 152.436 86.2548 152.38C86.2392 152.325 86.2364 152.267 86.2467 152.21C86.5161 150.731 86.7097 149.239 86.8267 147.74C86.8267 147.5 86.8267 147.24 86.8267 146.96C86.9491 146.247 86.9291 145.516 86.7677 144.811C86.6064 144.105 86.307 143.439 85.8867 142.85C84.7767 141.25 82.3967 141.45 81.5167 141.59L82.0167 145.81C82.1089 146.613 81.9555 147.426 81.5767 148.14L77.3767 156.03C77.3556 156.073 77.3248 156.111 77.2867 156.14L75.4667 157.64L74.9067 167.13C76.0367 169.71 79.3567 170.64 79.7767 170.79H79.7467Z" fill="#263238"/>
<path d="M74.1166 153.9H68.1966C67.0148 153.9 66.0566 154.858 66.0566 156.04V170.58C66.0566 171.762 67.0148 172.72 68.1966 172.72H74.1166C75.2985 172.72 76.2566 171.762 76.2566 170.58V156.04C76.2566 154.858 75.2985 153.9 74.1166 153.9Z" fill="#263238"/>
<path d="M297.987 31.7001C297.917 31.7001 298.197 31.7801 298.417 31.8901C298.627 32.009 298.859 32.0838 299.099 32.1102C299.339 32.1365 299.582 32.1137 299.812 32.0433C300.043 31.9728 300.258 31.8561 300.442 31.7003C300.626 31.5445 300.777 31.3527 300.885 31.1368C300.993 30.9209 301.056 30.6853 301.07 30.4443C301.084 30.2033 301.049 29.9619 300.967 29.7349C300.884 29.5079 300.757 29.3 300.592 29.1238C300.427 28.9476 300.228 28.8069 300.007 28.7101L294.007 25.7101C294.665 24.8316 295.279 23.9204 295.847 22.9801C296.635 21.9518 296.994 20.6576 296.847 19.3701C296.567 17.4501 293.987 16.8501 293.987 16.8501L292.857 19.9401C292.682 20.4342 292.357 20.8609 291.927 21.1601L286.677 24.8801L284.907 25.3201L281.357 31.4001C281.197 33.7301 283.437 35.6301 283.437 35.6301L291.437 39.6301L291.587 39.7101C291.798 39.8244 292.03 39.8958 292.269 39.9205C292.508 39.9451 292.75 39.9225 292.98 39.8537C293.21 39.785 293.425 39.6716 293.611 39.52C293.798 39.3684 293.952 39.1815 294.067 38.9701C294.199 38.6989 294.259 38.3982 294.241 38.097C294.224 37.7958 294.129 37.5042 293.967 37.2501L294.267 37.4401C294.697 37.6678 295.199 37.7168 295.666 37.5764C296.132 37.436 296.524 37.1176 296.757 36.6901C296.888 36.4243 296.948 36.1293 296.932 35.8333C296.917 35.5374 296.825 35.2505 296.667 35.0001C297.075 35.1404 297.521 35.1299 297.923 34.9703C298.324 34.8107 298.656 34.5127 298.857 34.1301C299.059 33.6919 299.082 33.1916 298.919 32.737C298.756 32.2824 298.421 31.91 297.987 31.7001Z" fill="white"/>
<path d="M291.477 39.9701L291.317 39.8801L283.317 35.8801C283.3 35.8843 283.283 35.8843 283.267 35.8801C283.167 35.8001 280.917 33.8801 281.087 31.4201C281.078 31.3805 281.078 31.3396 281.087 31.3001L284.607 25.2201C284.623 25.1867 284.647 25.1576 284.676 25.1351C284.706 25.1125 284.74 25.0971 284.777 25.0901L286.497 24.6601L291.707 20.9701C292.09 20.7023 292.381 20.3212 292.537 19.8801L293.667 16.7601C293.689 16.6945 293.736 16.6397 293.797 16.6065C293.858 16.5732 293.929 16.5638 293.997 16.5801C294.107 16.5801 296.757 17.2401 297.057 19.3301C297.258 20.4824 297.008 21.6681 296.357 22.6401C296.257 22.8001 296.167 22.9501 296.097 23.0801C295.585 23.9461 295.028 24.784 294.427 25.5901L300.157 28.4601L300.237 28.5201C300.723 28.7689 301.093 29.1974 301.268 29.7145C301.444 30.2316 301.411 30.7968 301.177 31.2901C300.984 31.6638 300.681 31.9696 300.309 32.1663C299.937 32.3629 299.514 32.441 299.097 32.3901C299.263 32.6769 299.356 33.0008 299.367 33.3325C299.377 33.6642 299.305 33.9932 299.157 34.2901C298.97 34.651 298.68 34.9483 298.324 35.1442C297.968 35.34 297.561 35.4256 297.157 35.3901C297.295 35.8761 297.248 36.396 297.027 36.8501C296.789 37.2848 296.408 37.6229 295.947 37.8055C295.487 37.9882 294.977 38.004 294.507 37.8501C294.596 38.2771 294.536 38.722 294.337 39.1101C294.205 39.3545 294.027 39.5707 293.813 39.7462C293.598 39.9217 293.351 40.0532 293.085 40.1331C292.819 40.213 292.54 40.2397 292.264 40.2117C291.989 40.1837 291.721 40.1016 291.477 39.9701ZM283.617 35.4001L291.617 39.4001L291.747 39.4801C292.111 39.6728 292.536 39.7149 292.931 39.597C293.325 39.4791 293.658 39.2109 293.857 38.8501C293.969 38.6236 294.021 38.3719 294.007 38.1195C293.993 37.8671 293.913 37.6226 293.777 37.4101C293.746 37.3552 293.734 37.2914 293.744 37.2292C293.754 37.1669 293.784 37.1097 293.83 37.0669C293.877 37.0242 293.936 36.9982 293.999 36.9933C294.062 36.9885 294.124 37.0049 294.177 37.0401C294.259 37.1005 294.346 37.1541 294.437 37.2001C294.799 37.3963 295.224 37.4413 295.619 37.3251C296.015 37.209 296.348 36.9411 296.547 36.5801C296.656 36.355 296.707 36.106 296.695 35.8561C296.682 35.6062 296.607 35.3634 296.477 35.1501C296.442 35.1037 296.424 35.0476 296.424 34.9901C296.424 34.9325 296.442 34.8764 296.477 34.8301C296.512 34.7869 296.559 34.7552 296.613 34.7392C296.666 34.7232 296.723 34.7235 296.777 34.7401C297.12 34.8575 297.495 34.8497 297.833 34.7179C298.172 34.5862 298.453 34.339 298.627 34.0201C298.797 33.6444 298.813 33.2166 298.671 32.8292C298.529 32.4418 298.24 32.126 297.867 31.9501C297.804 31.9143 297.758 31.8559 297.738 31.787C297.717 31.7182 297.724 31.6441 297.757 31.5801C297.887 31.3101 298.117 31.4301 298.567 31.6501C298.743 31.7387 298.934 31.7918 299.131 31.8064C299.327 31.8209 299.525 31.7966 299.712 31.7349C299.899 31.6731 300.072 31.5751 300.221 31.4465C300.37 31.3178 300.493 31.161 300.582 30.9851C300.67 30.8091 300.723 30.6174 300.738 30.4209C300.752 30.2244 300.728 30.0269 300.666 29.8398C300.605 29.6527 300.507 29.4796 300.378 29.3304C300.249 29.1811 300.093 29.0587 299.917 28.9701H299.847L293.907 25.9701C293.869 25.9511 293.837 25.9243 293.811 25.8915C293.785 25.8587 293.766 25.8207 293.757 25.7801C293.74 25.7439 293.732 25.7047 293.732 25.6651C293.732 25.6254 293.74 25.5862 293.757 25.5501C293.757 25.5501 295.207 23.5501 295.567 22.8601C295.647 22.7001 295.747 22.5401 295.847 22.3701C296.164 21.945 296.391 21.4598 296.515 20.9441C296.639 20.4283 296.656 19.8928 296.567 19.3701C296.367 17.9801 294.777 17.3701 294.167 17.1501L293.117 20.0301C292.932 20.5761 292.583 21.0513 292.117 21.3901L286.867 25.1101H286.777L285.117 25.5201L281.687 31.4401C281.567 33.5001 283.357 35.1901 283.617 35.4001Z" fill="#263238"/>
<path d="M284.876 22.4417L282.141 21.0696C281.084 20.5397 279.798 20.9665 279.268 22.0229L275.112 30.3088C274.582 31.3653 275.009 32.6513 276.065 33.1812L278.8 34.5532C279.857 35.0832 281.143 34.6564 281.673 33.6L285.829 25.3141C286.359 24.2576 285.932 22.9716 284.876 22.4417Z" fill="#263238"/>
<path d="M305.577 147.49C305.467 147.49 305.887 147.41 306.217 147.35C306.543 147.303 306.856 147.192 307.138 147.022C307.421 146.852 307.666 146.628 307.86 146.362C308.055 146.096 308.194 145.793 308.269 145.473C308.345 145.152 308.356 144.82 308.301 144.495C308.247 144.17 308.127 143.859 307.951 143.581C307.774 143.303 307.544 143.063 307.273 142.875C307.003 142.688 306.697 142.556 306.375 142.488C306.053 142.42 305.72 142.417 305.397 142.48L296.157 144.03C296.176 142.505 296.12 140.979 295.987 139.46C295.787 138.32 296.077 136.46 294.187 134.58C292.297 132.7 288.917 134.09 288.917 134.09L290.217 138.52C290.431 139.214 290.431 139.956 290.217 140.65L287.357 149.11L285.727 151.05L286.727 160.76C288.457 163.5 292.517 163.76 292.517 163.76L304.767 161.7H305.007C305.676 161.606 306.281 161.249 306.688 160.709C307.095 160.169 307.271 159.49 307.177 158.82C307.102 158.409 306.923 158.024 306.657 157.701C306.391 157.379 306.046 157.131 305.657 156.98C305.82 156.995 305.984 156.995 306.147 156.98C306.479 156.936 306.799 156.826 307.088 156.658C307.378 156.489 307.631 156.265 307.834 155.999C308.036 155.732 308.184 155.428 308.269 155.103C308.353 154.779 308.373 154.442 308.327 154.11C308.254 153.703 308.079 153.322 307.819 153.002C307.558 152.682 307.22 152.433 306.837 152.28C307.409 152.103 307.899 151.728 308.22 151.222C308.54 150.716 308.67 150.113 308.587 149.52C308.523 149.189 308.395 148.873 308.209 148.591C308.023 148.31 307.783 148.068 307.504 147.879C307.224 147.69 306.91 147.559 306.579 147.492C306.248 147.425 305.908 147.425 305.577 147.49Z" fill="white"/>
<path d="M305.056 162.1H304.806L292.576 164.1H292.486C292.306 164.1 288.206 163.76 286.386 160.88C286.372 160.828 286.372 160.772 286.386 160.72L285.386 151.01C285.379 150.959 285.382 150.906 285.396 150.856C285.409 150.807 285.434 150.76 285.466 150.72L287.056 148.84L289.876 140.43C290.071 139.812 290.071 139.148 289.876 138.53L288.586 134.1C288.561 134.008 288.57 133.911 288.61 133.824C288.65 133.738 288.72 133.669 288.806 133.63C288.956 133.57 292.446 132.11 294.496 134.21C295.661 135.371 296.318 136.946 296.326 138.59C296.34 138.828 296.367 139.065 296.406 139.3C296.543 140.686 296.603 142.078 296.586 143.47L305.366 142H305.496C306.247 141.883 307.013 142.061 307.634 142.497C308.255 142.934 308.683 143.594 308.826 144.34C308.916 144.916 308.828 145.506 308.572 146.03C308.316 146.554 307.906 146.986 307.396 147.27C307.863 147.477 308.264 147.808 308.556 148.227C308.847 148.646 309.018 149.136 309.05 149.646C309.082 150.155 308.974 150.664 308.737 151.116C308.5 151.568 308.144 151.946 307.706 152.21C308.246 152.644 308.603 153.265 308.706 153.95C308.803 154.632 308.655 155.327 308.289 155.91C307.923 156.494 307.363 156.93 306.706 157.14C307.152 157.552 307.448 158.101 307.546 158.7C307.612 159.087 307.599 159.484 307.508 159.866C307.418 160.248 307.251 160.609 307.019 160.926C306.787 161.243 306.494 161.51 306.157 161.712C305.82 161.913 305.445 162.045 305.056 162.1ZM292.496 163.41L304.696 161.36H304.896C305.465 161.283 305.979 160.984 306.328 160.529C306.676 160.073 306.83 159.499 306.756 158.93C306.699 158.582 306.55 158.255 306.325 157.982C306.101 157.71 305.808 157.502 305.476 157.38C305.393 157.345 305.324 157.282 305.282 157.201C305.24 157.121 305.228 157.029 305.246 156.94C305.263 156.852 305.31 156.772 305.38 156.715C305.449 156.659 305.537 156.628 305.626 156.63C305.766 156.64 305.907 156.64 306.046 156.63C306.328 156.593 306.6 156.501 306.846 156.359C307.093 156.216 307.308 156.027 307.481 155.801C307.654 155.575 307.78 155.318 307.853 155.043C307.926 154.768 307.944 154.482 307.906 154.2C307.845 153.858 307.699 153.538 307.48 153.269C307.261 152.999 306.978 152.79 306.656 152.66C306.581 152.635 306.516 152.586 306.469 152.522C306.423 152.457 306.398 152.379 306.398 152.3C306.398 152.22 306.423 152.143 306.469 152.078C306.516 152.014 306.581 151.965 306.656 151.94C307.14 151.791 307.556 151.475 307.828 151.048C308.101 150.621 308.214 150.112 308.146 149.61C308.028 149.05 307.695 148.559 307.218 148.243C306.741 147.926 306.158 147.811 305.596 147.92C305.498 147.929 305.399 147.902 305.32 147.843C305.24 147.784 305.186 147.697 305.166 147.6C305.096 147.19 305.446 147.13 306.166 147.01C306.453 146.984 306.732 146.9 306.985 146.761C307.237 146.623 307.459 146.434 307.635 146.206C307.811 145.978 307.938 145.716 308.008 145.437C308.078 145.157 308.089 144.866 308.042 144.582C307.994 144.298 307.888 144.027 307.731 143.786C307.573 143.545 307.368 143.338 307.127 143.181C306.886 143.023 306.615 142.916 306.331 142.868C306.047 142.82 305.756 142.83 305.476 142.9H305.356L296.256 144.43C296.2 144.44 296.142 144.437 296.086 144.422C296.031 144.406 295.979 144.378 295.936 144.34C295.896 144.303 295.863 144.259 295.841 144.209C295.818 144.159 295.807 144.105 295.806 144.05C295.806 144.05 295.806 140.64 295.636 139.54C295.59 139.285 295.56 139.028 295.546 138.77C295.549 138.046 295.408 137.328 295.132 136.659C294.855 135.989 294.449 135.381 293.936 134.87C292.576 133.47 290.266 134.06 289.416 134.35L290.616 138.43C290.854 139.199 290.854 140.021 290.616 140.79L287.776 149.27C287.759 149.316 287.736 149.36 287.706 149.4L286.176 151.21L287.176 160.66C288.636 162.96 292.066 163.37 292.496 163.41Z" fill="#263238"/>
<path d="M284.107 147.713L278.269 148.691C277.103 148.886 276.316 149.989 276.512 151.155L278.914 165.495C279.109 166.661 280.212 167.447 281.378 167.252L287.217 166.274C288.382 166.079 289.169 164.976 288.974 163.81L286.571 149.47C286.376 148.304 285.273 147.517 284.107 147.713Z" fill="#263238"/>
<path d="M173.937 10.05C172.652 10.8084 171.613 11.9211 170.944 13.2548C170.276 14.5886 170.006 16.0868 170.167 17.57C168.709 16.5534 166.947 16.0659 165.174 16.1883C163.401 16.3108 161.723 17.0358 160.419 18.2431C159.115 19.4505 158.263 21.0675 158.004 22.8259C157.745 24.5842 158.096 26.3782 158.997 27.91C161.577 32.28 166.797 33.65 171.447 34.3C173.517 34.59 175.587 34.8 177.667 34.97L180.537 35.24C180.537 35.24 181.667 32.79 181.777 32.55C182.627 30.64 183.447 28.72 184.187 26.78C185.867 22.39 187.187 17.16 184.607 12.78C183.553 11.0035 181.838 9.71795 179.837 9.20602C177.836 8.69409 175.714 8.99766 173.937 10.05Z" fill="#263238"/>
<path d="M326.477 110.51C325.068 110.015 323.547 109.936 322.095 110.281C320.643 110.627 319.321 111.383 318.287 112.46C318.136 110.684 317.381 109.014 316.146 107.728C314.912 106.443 313.274 105.62 311.506 105.398C309.738 105.175 307.947 105.567 306.432 106.506C304.918 107.446 303.772 108.877 303.187 110.56C301.507 115.34 303.807 120.22 306.297 124.2C307.407 125.97 308.577 127.69 309.777 129.4C309.937 129.62 311.417 131.77 311.417 131.77C311.417 131.77 314.017 131.06 314.277 130.98C316.277 130.41 318.277 129.8 320.277 129.12C324.717 127.58 329.577 125.23 331.277 120.45C331.616 119.482 331.761 118.457 331.704 117.433C331.646 116.409 331.387 115.407 330.941 114.483C330.495 113.56 329.871 112.733 329.105 112.051C328.339 111.37 327.446 110.846 326.477 110.51Z" fill="#263238"/>
<path d="M55.8365 185.2C54.3939 185.581 53.0915 186.37 52.0844 187.471C51.0773 188.572 50.4081 189.939 50.1565 191.41C49.0326 190.029 47.4692 189.076 45.7271 188.709C43.9851 188.342 42.1698 188.583 40.5843 189.393C38.9987 190.203 37.7389 191.532 37.015 193.158C36.2911 194.785 36.1469 196.61 36.6065 198.33C37.9065 203.23 42.6065 205.97 46.8565 207.86C48.7665 208.7 50.7065 209.47 52.6565 210.2L55.3465 211.2C55.3465 211.2 57.0965 209.15 57.2665 208.94C58.6065 207.34 59.9165 205.71 61.1565 204.04C63.9565 200.27 66.6565 195.6 65.3565 190.7C64.8198 188.711 63.5166 187.015 61.7324 185.984C59.9481 184.953 57.8281 184.671 55.8365 185.2Z" fill="#263238"/>
<path d="M83.1067 91.1999C82.2181 90.8847 81.2572 90.8331 80.34 91.0513C79.4227 91.2695 78.5881 91.7483 77.9367 92.4299C77.842 91.309 77.3653 90.2547 76.5864 89.4431C75.8075 88.6316 74.7735 88.1121 73.6575 87.9716C72.5414 87.8311 71.411 88.078 70.4552 88.6711C69.4994 89.2642 68.7762 90.1675 68.4067 91.2299C67.3367 94.2299 68.7967 97.3199 70.4067 99.8399C71.1067 100.95 71.8467 102.04 72.6067 103.12L73.6067 104.61L75.4167 104.12C76.6767 103.76 77.9367 103.37 79.1867 102.94C81.9867 101.94 85.0467 100.49 86.1167 97.4699C86.5484 96.2393 86.4739 94.8876 85.9095 93.7119C85.3451 92.5362 84.3369 91.6327 83.1067 91.1999Z" fill="#263238"/>
<path d="M125.777 215.2C124.886 214.885 123.924 214.834 123.005 215.052C122.087 215.27 121.25 215.749 120.597 216.43C120.502 215.309 120.025 214.255 119.246 213.443C118.467 212.632 117.433 212.112 116.317 211.972C115.201 211.831 114.071 212.078 113.115 212.671C112.159 213.264 111.436 214.168 111.067 215.23C110.007 218.23 111.457 221.32 113.067 223.84C113.757 224.95 114.507 226.04 115.267 227.12L116.267 228.61L118.067 228.12C119.337 227.76 120.597 227.38 121.837 226.94C124.637 225.94 127.707 224.49 128.777 221.47C129.209 220.241 129.136 218.89 128.573 217.715C128.011 216.539 127.005 215.635 125.777 215.2Z" fill="#263238"/>
<path d="M134.567 274.47C134.567 274.47 123.247 286.25 122.097 292.03C120.947 297.81 123.706 302.89 128.336 301.5C132.966 300.11 137.117 285.79 138.267 283.25C139.417 280.71 140.806 277.93 140.806 277.93C140.806 277.93 137.357 273.31 134.567 274.47Z" fill="#FFC973" stroke="#263238" stroke-linecap="round" stroke-linejoin="round"/>
<path d="M121.996 292.64C121.146 298.15 123.876 302.83 128.336 301.49C129.936 301.01 131.486 298.97 132.866 296.41C129.866 291.51 125.006 291.83 121.996 292.64Z" fill="white" stroke="#263238" stroke-linecap="round" stroke-linejoin="round"/>
<path d="M134.467 293.12C131.947 296.58 128.697 300.3 126.257 299.65C123.817 299 122.527 294.42 122.087 292.06C120.947 297.82 123.717 302.88 128.337 301.5C130.587 300.83 132.727 297.08 134.467 293.12Z" fill="white" stroke="#263238" stroke-linecap="round" stroke-linejoin="round"/>
<path d="M136.877 280.94C136.877 280.94 131.797 278.16 131.567 279.09C131.337 280.02 136.417 282.55 137.117 282.55C137.817 282.55 138.267 282.32 136.877 280.94Z" fill="white" stroke="#263238" stroke-linecap="round" stroke-linejoin="round"/>
<path d="M135.727 282.55C135.727 282.55 130.647 279.78 130.417 280.71C130.187 281.64 135.267 284.17 135.957 284.17C136.647 284.17 137.117 283.94 135.727 282.55Z" fill="white" stroke="#263238" stroke-linecap="round" stroke-linejoin="round"/>
<path d="M134.567 284.17C134.567 284.17 129.487 281.4 129.257 282.32C129.027 283.24 134.107 285.79 134.807 285.79C135.507 285.79 135.957 285.56 134.567 284.17Z" fill="white" stroke="#263238" stroke-linecap="round" stroke-linejoin="round"/>
<path d="M133.417 285.79C133.417 285.79 128.337 283.02 128.097 283.94C127.857 284.86 132.957 287.41 133.647 287.41C134.337 287.41 134.807 287.18 133.417 285.79Z" fill="white" stroke="#263238" stroke-linecap="round" stroke-linejoin="round"/>
<path d="M220.757 266.84C220.757 266.84 214.757 271.46 213.367 274.7C211.977 277.94 214.747 278.86 218.447 279.55C222.147 280.24 225.607 284.17 230.687 285.55C235.767 286.93 242.247 286.47 240.167 283.24C238.087 280.01 231.387 275.84 230.227 273.99C229.526 272.884 228.901 271.731 228.357 270.54L220.757 266.84Z" fill="#FFC973" stroke="#263238" stroke-linecap="round" stroke-linejoin="round"/>
<path d="M240.167 283.25C239.412 282.188 238.529 281.224 237.537 280.38C236.044 280.68 234.629 281.283 233.378 282.152C232.128 283.02 231.069 284.136 230.267 285.43L230.687 285.56C235.777 286.94 242.247 286.48 240.167 283.25Z" fill="white" stroke="#263238" stroke-linecap="round" stroke-linejoin="round"/>
<path d="M229.996 273.08C229.996 273.08 223.996 274.24 225.146 275.16C226.296 276.08 231.156 274.24 229.996 273.08Z" fill="white" stroke="#263238" stroke-linecap="round" stroke-linejoin="round"/>
<path d="M231.847 274.24C231.847 274.24 225.847 275.39 226.997 276.32C228.147 277.25 233.007 275.39 231.847 274.24Z" fill="white" stroke="#263238" stroke-linecap="round" stroke-linejoin="round"/>
<path d="M232.766 275.39C232.766 275.39 226.766 276.55 227.916 277.47C229.066 278.39 233.926 276.55 232.766 275.39Z" fill="white" stroke="#263238" stroke-linecap="round" stroke-linejoin="round"/>
<path d="M234.617 277.01C234.617 277.01 228.617 278.16 229.767 279.09C230.917 280.02 235.777 278.16 234.617 277.01Z" fill="white" stroke="#263238" stroke-linecap="round" stroke-linejoin="round"/>
<path d="M240.527 284.17C236.027 285.36 231.877 284.41 227.917 282.32C224.356 280.344 220.648 278.645 216.827 277.24C215.515 276.795 214.268 276.179 213.117 275.41C212.427 278.07 215.037 278.91 218.447 279.55C222.147 280.24 225.607 284.17 230.687 285.55C235.247 286.8 240.887 286.55 240.527 284.17Z" fill="white" stroke="#263238" stroke-linecap="round" stroke-linejoin="round"/>
<path d="M178.007 170.19C178.007 170.19 169.697 207.69 168.077 216.7C166.457 225.71 165.767 231.26 165.767 231.26C165.767 231.26 159.767 235.65 153.767 245.35C147.767 255.05 134.587 274.47 134.587 274.47C134.587 274.47 134.127 277.93 138.287 279.09C138.287 279.09 140.367 280.01 141.527 279.09C142.687 278.17 182.187 241.66 186.807 234.03C191.427 226.4 200.907 199.83 200.907 199.83L206.907 198.68L245.257 234.26L219.377 267.26C219.377 267.26 218.457 269.11 220.997 270.73C223.537 272.35 227.467 271.65 229.547 270.73C231.627 269.81 268.137 233.99 268.367 231.45C268.597 228.91 266.747 225.9 266.287 224.98C265.827 224.06 229.087 174.98 229.087 174.98L227.007 169.67C227.007 169.67 202.747 172.44 191.887 170.36C181.027 168.28 178.937 166.73 178.007 170.19Z" fill="white" stroke="#263238" stroke-linecap="round" stroke-linejoin="round"/>
<path d="M206.896 198.68L220.066 194.75" stroke="#263238" stroke-linecap="round" stroke-linejoin="round"/>
<path d="M208.277 199.37L226.297 197.29" stroke="#263238" stroke-linecap="round" stroke-linejoin="round"/>
<path d="M245.247 234.26L253.107 240.73" stroke="#263238" stroke-linecap="round" stroke-linejoin="round"/>
<path d="M210.457 182.33L202.537 184.97C202.537 184.97 214.987 184.59 215.367 186.1C215.747 187.61 207.817 193.65 207.817 193.65" stroke="#263238" stroke-linecap="round" stroke-linejoin="round"/>
<path d="M182.157 177.42C182.157 177.42 186.357 184.64 176.497 188.74" stroke="#263238" stroke-linecap="round" stroke-linejoin="round"/>
<path d="M231.987 94.0001C231.987 94.0001 198.577 93.2501 196.987 93.7101C195.397 94.1701 176.887 117.28 174.807 119.36C172.727 121.44 167.177 125.36 166.717 128.36C166.257 131.36 170.417 141.3 175.037 141.3C179.657 141.3 187.977 132.06 187.977 132.06C187.977 132.06 176.887 170.41 177.347 172.06C177.807 173.71 185.667 177.37 203.227 179.45C220.787 181.53 228.227 174.14 228.647 171.83C229.067 169.52 228.177 165.59 228.177 165.59L234.177 154.96C234.177 154.96 244.807 162.89 249.657 159.42C254.507 155.95 254.507 145.32 256.817 142.09C259.127 138.86 264.677 121.53 262.817 119.22C260.957 116.91 231.987 94.0001 231.987 94.0001Z" fill="#FFC973" stroke="#263238" stroke-linecap="round" stroke-linejoin="round"/>
<path d="M250.097 118.96C250.097 118.96 243.627 114.27 242.707 116.35C241.787 118.43 235.777 129.99 231.357 134.84C226.937 139.69 224.657 144.31 227.427 148.01C229.415 150.545 231.661 152.867 234.127 154.94" stroke="#263238" stroke-linecap="round" stroke-linejoin="round"/>
<path d="M187.947 132.07L196.267 104.34" stroke="#263238" stroke-linecap="round" stroke-linejoin="round"/>
<path d="M225.357 95.3301C225.357 95.3301 213.107 93.9401 207.797 88.6301C202.487 83.3201 199.707 78.0001 190.467 76.6301C184.951 75.7962 179.342 75.7962 173.827 76.6301L176.137 88.6301C176.137 88.6301 187.237 84.4701 192.777 87.7001C198.317 90.9301 201.097 99.0201 208.717 101.1C216.337 103.18 226.047 102.72 226.047 102.72L225.357 95.3301Z" fill="#263238" stroke="#263238" stroke-linecap="round" stroke-linejoin="round"/>
<path d="M235.547 97.41C237.719 99.2825 239.253 101.785 239.937 104.57C240.857 108.96 236.697 114.27 233.467 117.28C230.237 120.29 226.997 121.67 218.677 122.82C210.357 123.97 202.967 115.43 197.417 114.51C191.867 113.59 180.547 119.82 180.547 119.82L182.867 109.88C187.882 106.937 193.724 105.721 199.497 106.42C209.207 107.57 215.677 114.51 219.367 115.42C223.057 116.33 229.767 114.26 231.157 108.95C232.547 103.64 230.687 98.7799 233.007 97.1699C235.327 95.5599 235.547 97.41 235.547 97.41Z" fill="#263238" stroke="#263238" stroke-linecap="round" stroke-linejoin="round"/>
<path d="M234.357 54.4301C234.357 54.4301 227.657 56.2801 224.887 60.4301C222.117 64.5801 214.027 88.8501 214.257 90.9301C214.487 93.0101 224.887 90.9301 224.887 90.9301C224.887 90.9301 217.727 105.93 217.727 108.49C217.727 111.05 220.957 112.42 225.117 111.49C229.277 110.56 243.447 86.1701 243.447 86.1701C243.447 86.1701 247.647 91.0501 250.297 89.3801C253.297 87.4601 252.377 83.6001 250.067 83.6001C247.757 83.6001 256.537 74.1301 253.537 67.8901C250.537 61.6501 237.157 52.3501 234.357 54.4301Z" fill="white" stroke="#263238" stroke-linecap="round" stroke-linejoin="round"/>
<path d="M231.847 47.04C231.847 47.04 218.907 47.04 218.217 53.28C217.527 59.52 224.217 62.28 231.617 61.13C239.017 59.98 245.707 60.44 246.617 61.59C247.527 62.74 237.617 65.06 239.917 66.68C241.263 67.636 242.887 68.1211 244.537 68.06C244.537 68.06 241.297 68.99 241.537 71.3C241.777 73.61 243.787 83.82 245.397 83.82C247.007 83.82 250.087 83.61 250.087 83.61C253.008 82.1346 255.664 80.1848 257.947 77.84C261.417 74.14 262.337 66.28 257.947 61.66C253.557 57.04 250.087 52.58 246.627 48.89C243.167 45.2 239.927 41.26 232.997 40.34C226.067 39.42 222.357 42.18 231.847 47.04Z" fill="#263238" stroke="#263238" stroke-linecap="round" stroke-linejoin="round"/>
<path d="M258.827 70.8899C259.063 72.2434 259.11 73.6234 258.967 74.9899" stroke="white" stroke-linecap="round" stroke-linejoin="round"/>
<path d="M235.077 54.3301C235.077 54.3301 220.897 55.7101 226.257 58.4201C231.617 61.1301 239.817 56.0601 250.147 60.1401C251.886 60.7724 253.475 61.7607 254.811 63.0418C256.147 64.3228 257.202 65.8685 257.907 67.5801" stroke="white" stroke-linecap="round" stroke-linejoin="round"/>
<path d="M243.687 65.0901C243.687 65.0901 253.377 69.8301 254.687 76.7101" stroke="white" stroke-linecap="round" stroke-linejoin="round"/>
<path d="M224.917 90.94C224.917 90.94 236.007 90.24 239.007 87.7" stroke="#263238" stroke-linecap="round" stroke-linejoin="round"/>
<path d="M214.287 65.98C214.287 65.98 231.157 65.75 240.627 67.83C240.627 67.83 238.967 73.3 236.197 75.15C233.427 77 228.617 75.69 227.457 74.76C226.297 73.83 225.377 68.29 225.377 68.29H223.527L222.607 71.07C222.607 71.07 221.907 74.76 219.367 74.76C216.827 74.76 214.287 74.3 214.287 65.98Z" fill="#FFC973" stroke="#263238" stroke-linecap="round" stroke-linejoin="round"/>
<path d="M223.087 69.64C220.29 68.7871 217.305 68.7662 214.497 69.58C215.157 74.44 217.257 74.77 219.367 74.77C221.907 74.77 222.607 71.08 222.607 71.08L223.087 69.64Z" fill="#263238" stroke="#263238" stroke-linecap="round" stroke-linejoin="round"/>
<path d="M238.946 71.78C234.776 67.93 230.586 71.69 225.856 70.65C226.236 72.28 226.806 74.25 227.456 74.76C228.616 75.69 233.456 77 236.196 75.15C237.355 74.2484 238.296 73.0963 238.946 71.78Z" fill="#263238" stroke="#263238" stroke-linecap="round" stroke-linejoin="round"/>
<path d="M240.627 67.8301L251.117 84.0101L250.097 83.6101L239.657 70.6201L240.627 67.8301Z" fill="#FFC973" stroke="#263238" stroke-linecap="round" stroke-linejoin="round"/>
<path d="M221.447 81.6999C221.447 81.6999 229.537 84.0099 231.847 79.1499" stroke="#263238" stroke-linecap="round" stroke-linejoin="round"/>
<path d="M230.457 78.23L233.927 79.62" stroke="#263238" stroke-linecap="round" stroke-linejoin="round"/>
<path d="M223.987 71.0701C223.987 71.0701 216.827 71.9901 216.827 73.1501C216.827 74.3101 221.447 77.5401 221.447 77.5401" fill="white"/>
<path d="M223.987 71.0701C223.987 71.0701 216.827 71.9901 216.827 73.1501C216.827 74.3101 221.447 77.5401 221.447 77.5401" stroke="#263238" stroke-linecap="round" stroke-linejoin="round"/>
<path d="M223.066 94.8701C222.582 94.8418 222.097 94.9317 221.655 95.1321C221.212 95.3324 220.825 95.6371 220.526 96.0201C219.136 97.4101 215.956 102.88 215.136 105.02C213.656 108.95 218.856 116.02 224.216 113.55C226.876 112.35 227.536 113.4 230.546 109.7C233.556 106 234.156 103.15 234.156 102C234.156 100.85 236.236 100.84 231.846 102.92C227.456 105 218.676 101.57 223.066 94.8701Z" fill="#263238" stroke="#263238" stroke-linecap="round" stroke-linejoin="round"/>
<path d="M77.3565 17.58C75.9727 18.1638 74.7872 19.1351 73.9427 20.377C73.0982 21.6189 72.6307 23.0785 72.5965 24.58C71.2908 23.3717 69.6104 22.6473 67.8355 22.5277C66.0605 22.408 64.2981 22.9003 62.8421 23.9225C61.3861 24.9446 60.3243 26.4349 59.8338 28.1449C59.3433 29.8549 59.4536 31.6814 60.1465 33.32C62.1465 37.99 67.1465 40.06 71.6165 41.32C73.6165 41.88 75.6165 42.32 77.6865 42.83C77.9465 42.83 80.4965 43.48 80.4965 43.48C80.4965 43.48 81.9365 41.21 82.0865 40.98C83.1865 39.21 84.2565 37.41 85.2565 35.58C87.5065 31.46 89.5165 26.45 87.5565 21.78C87.1625 20.8345 86.5862 19.9758 85.8603 19.253C85.1345 18.5302 84.2735 17.9575 83.3263 17.5675C82.3792 17.1775 81.3645 16.9779 80.3402 16.98C79.3159 16.9821 78.302 17.186 77.3565 17.58Z" fill="#263238"/>
<path d="M121.887 36.64C120.485 36.124 118.965 36.0222 117.508 36.3467C116.05 36.6712 114.717 37.4083 113.667 38.47C113.533 36.6984 112.797 35.0258 111.581 33.7304C110.365 32.4351 108.743 31.5948 106.983 31.3495C105.223 31.1041 103.433 31.4684 101.909 32.3817C100.385 33.2951 99.2197 34.7025 98.6066 36.37C96.8566 41.12 99.0866 46.03 101.527 50.05C102.607 51.83 103.757 53.57 104.937 55.29L106.547 57.69C106.547 57.69 109.157 57.01 109.417 56.94C111.417 56.39 113.417 55.81 115.417 55.16C119.877 53.68 124.767 51.39 126.517 46.64C126.871 45.6795 127.032 44.6585 126.991 43.6356C126.95 42.6127 126.707 41.6079 126.277 40.6789C125.847 39.7499 125.238 38.915 124.484 38.2219C123.731 37.5288 122.848 36.9912 121.887 36.64Z" fill="#263238"/>
<path d="M117.357 32.64C117.569 32.6207 117.784 32.6207 117.997 32.64C118.652 32.64 119.28 32.3798 119.743 31.9166C120.206 31.4533 120.467 30.8251 120.467 30.17C120.467 29.5149 120.206 28.8867 119.743 28.4235C119.28 27.9602 118.652 27.7 117.997 27.7H108.637C108.637 27.7 109.217 24.32 109.217 23.16C109.217 22 109.797 20.27 108.217 18.05C106.637 15.83 103.077 16.64 103.077 16.64L103.627 21.22C103.707 21.9443 103.568 22.676 103.227 23.32L99.0266 31.21L97.0966 32.85L96.5166 42.6C97.7666 45.6 101.727 46.6 101.727 46.6H114.357C115.032 46.6162 115.687 46.3645 116.178 45.8999C116.668 45.4353 116.956 44.7955 116.977 44.12C116.97 43.7023 116.858 43.2931 116.65 42.931C116.441 42.5688 116.144 42.2656 115.787 42.05C115.946 42.0653 116.107 42.0653 116.267 42.05C116.941 42.0689 117.596 41.8195 118.087 41.3565C118.578 40.8935 118.866 40.2546 118.887 39.58C118.883 39.1667 118.774 38.761 118.572 38.4008C118.369 38.0407 118.078 37.7376 117.727 37.52C118.32 37.4415 118.866 37.1534 119.266 36.7078C119.665 36.2622 119.893 35.6885 119.907 35.09C119.881 34.4312 119.601 33.808 119.125 33.3512C118.65 32.8944 118.016 32.6395 117.357 32.64Z" fill="white"/>
<path d="M114.357 46.8999H101.637C101.467 46.8999 97.4765 45.8999 96.1565 42.7199C96.1477 42.6636 96.1477 42.6063 96.1565 42.5499L96.7365 32.7999C96.7458 32.695 96.7961 32.598 96.8765 32.5299L98.7465 30.9299L102.917 23.1099C103.225 22.5382 103.347 21.8845 103.267 21.2399L102.697 16.6399C102.686 16.5468 102.71 16.453 102.763 16.3759C102.817 16.2988 102.896 16.2434 102.987 16.2199C103.147 16.2199 106.837 15.3199 108.507 17.7299C108.982 18.3906 109.323 19.139 109.508 19.932C109.694 20.7249 109.72 21.5467 109.587 22.3499C109.587 22.6099 109.587 22.8499 109.587 23.0599C109.494 24.4517 109.324 25.8372 109.077 27.2099H117.977C118.019 27.1997 118.064 27.1997 118.107 27.2099C118.865 27.2174 119.591 27.5186 120.131 28.05C120.672 28.5815 120.986 29.302 121.007 30.0599C120.998 30.644 120.812 31.2116 120.472 31.6869C120.133 32.1622 119.656 32.5226 119.107 32.7199C119.489 32.9744 119.804 33.3191 120.022 33.7237C120.24 34.1283 120.355 34.5803 120.357 35.0399C120.351 35.5984 120.182 36.1428 119.868 36.6053C119.555 37.0677 119.113 37.4276 118.597 37.6399C119.079 38.151 119.347 38.8273 119.347 39.5299C119.332 40.2175 119.074 40.8776 118.618 41.3923C118.162 41.907 117.537 42.2429 116.857 42.3399C117.227 42.8216 117.427 43.4123 117.427 44.0199C117.419 44.4121 117.333 44.7988 117.173 45.1573C117.014 45.5157 116.785 45.8386 116.499 46.107C116.212 46.3754 115.876 46.5838 115.508 46.72C115.14 46.8562 114.748 46.9174 114.357 46.8999ZM101.747 46.1199H114.357C114.929 46.1362 115.484 45.9256 115.902 45.5341C116.32 45.1427 116.566 44.602 116.587 44.0299C116.582 43.6787 116.488 43.3345 116.313 43.0299C116.138 42.7254 115.888 42.4707 115.587 42.2899C115.512 42.2428 115.455 42.1716 115.426 42.088C115.397 42.0044 115.397 41.9134 115.427 41.8299C115.458 41.7447 115.518 41.6731 115.596 41.6275C115.675 41.5819 115.767 41.565 115.857 41.5799C115.996 41.5938 116.137 41.5938 116.277 41.5799C116.56 41.5906 116.843 41.5453 117.109 41.4465C117.376 41.3478 117.62 41.1975 117.828 41.0043C118.036 40.8111 118.204 40.5788 118.322 40.3207C118.44 40.0626 118.506 39.7837 118.517 39.4999C118.51 39.1504 118.415 38.8082 118.24 38.5056C118.065 38.2029 117.816 37.9498 117.517 37.7699C117.449 37.7273 117.396 37.6656 117.364 37.5925C117.332 37.5194 117.322 37.4384 117.337 37.3599C117.356 37.2848 117.396 37.2167 117.453 37.1635C117.51 37.1104 117.58 37.0745 117.657 37.0599C118.15 36.9952 118.605 36.7597 118.943 36.3944C119.281 36.0291 119.48 35.5569 119.507 35.0599C119.486 34.4879 119.24 33.9472 118.822 33.5558C118.404 33.1643 117.849 32.9537 117.277 32.9699C117.177 32.9648 117.082 32.9215 117.014 32.8489C116.945 32.7763 116.906 32.68 116.907 32.5799C116.907 32.1699 117.257 32.1699 117.907 32.1699C118.192 32.1898 118.479 32.1505 118.75 32.0547C119.02 31.9589 119.267 31.8086 119.477 31.613C119.686 31.4175 119.854 31.1809 119.968 30.918C120.082 30.6551 120.141 30.3716 120.141 30.0849C120.141 29.7983 120.082 29.5147 119.968 29.2519C119.854 28.989 119.686 28.7524 119.477 28.5569C119.267 28.3613 119.02 28.211 118.75 28.1151C118.479 28.0193 118.192 27.9801 117.907 27.9999H117.777H108.547C108.491 28 108.436 27.9874 108.385 27.9631C108.335 27.9389 108.291 27.9036 108.257 27.8599C108.218 27.8188 108.19 27.7694 108.175 27.7156C108.159 27.6618 108.156 27.6051 108.167 27.5499C108.436 26.0674 108.629 24.5722 108.747 23.0699C108.747 22.8299 108.747 22.5699 108.747 22.2899C108.868 21.5767 108.848 20.8465 108.687 20.1411C108.525 19.4358 108.226 18.7693 107.807 18.1799C106.697 16.5799 104.317 16.7799 103.437 16.9199L103.937 21.1499C104.027 21.9499 103.873 22.7585 103.497 23.4699L99.3565 31.3399C99.3358 31.3861 99.3051 31.4271 99.2665 31.4599L97.4565 32.9899L96.8965 42.4799C98.0365 45.0399 101.357 46.0099 101.777 46.1199H101.747Z" fill="#263238"/>
<path d="M96.1166 29.23H90.1966C89.0148 29.23 88.0566 30.1881 88.0566 31.37V45.91C88.0566 47.0919 89.0148 48.05 90.1966 48.05H96.1166C97.2985 48.05 98.2566 47.0919 98.2566 45.91V31.37C98.2566 30.1881 97.2985 29.23 96.1166 29.23Z" fill="#263238"/>
<path d="M156.797 57.74L156.277 52.74C156.281 52.7203 156.281 52.6997 156.277 52.68L155.497 45.14H155.577C155.603 45.1484 155.631 45.1484 155.657 45.14C155.789 45.1055 155.903 45.0198 155.972 44.9016C156.042 44.7835 156.061 44.6426 156.027 44.51C155.992 44.3774 155.906 44.2639 155.788 44.1945C155.67 44.1251 155.529 44.1055 155.397 44.14L151.357 5.13998C151.346 5.05365 151.313 4.97153 151.261 4.90143C151.21 4.83134 151.141 4.7756 151.062 4.73952C150.983 4.70343 150.896 4.68821 150.809 4.6953C150.722 4.70238 150.639 4.73153 150.567 4.77998C147.99 6.53992 145.319 8.15896 142.567 9.62998L142.127 9.86999L141.647 10.13C137.904 12.1413 133.972 13.776 129.907 15.01L129.297 15.18C126.609 15.9666 123.816 16.3343 121.017 16.27C120.137 16.27 119.217 16.16 118.297 16.08L117.537 16.01C115.107 15.79 112.537 15.46 109.927 15.13L108.827 14.99L107.877 14.88C105.197 14.53 102.427 14.2 99.5666 13.97H99.0666H98.5666C95.0272 13.6878 91.4736 13.6277 87.9266 13.79H87.2566H86.9266C83.0436 14.0304 79.1908 14.6262 75.4166 15.57L75.0766 15.66H74.9366L74.5666 15.76H74.4466L73.6666 15.97C70.2769 16.9511 66.9887 18.2536 63.8466 19.86L63.5866 19.99L63.4066 20.08L63.2366 20.17L62.9266 20.33C59.6048 22.078 56.4072 24.0527 53.3566 26.24L52.9566 26.53L52.5266 26.84C49.7321 28.8659 47.0607 31.0564 44.5266 33.4L44.1966 33.71L44.0766 33.83L43.7866 34.1C41.5566 36.0811 39.5815 38.3317 37.9066 40.8C37.7333 41.077 37.5987 41.3765 37.5066 41.69C37.5022 41.7566 37.5022 41.8234 37.5066 41.89C37.4971 41.9764 37.4971 42.0636 37.5066 42.15C37.5479 42.362 37.6566 42.5549 37.8166 42.7C38.2519 43.0282 38.7815 43.2071 39.3266 43.21C39.5466 43.21 39.8066 43.21 40.0766 43.21H40.1466C40.7266 43.21 41.4166 43.21 42.2266 43.15H42.6866L45.0666 42.97L46.9866 42.81C50.3119 42.525 53.6498 42.4148 56.9866 42.48L58.0366 42.57L62.3566 42.95C63.6186 43.174 64.8672 43.4677 66.0966 43.83L66.8166 44.04C70.4824 45.2311 74.0638 46.6677 77.5366 48.34L78.2866 48.69C80.2066 49.59 82.1866 50.5367 84.2266 51.53C86.2666 52.5233 88.29 53.49 90.2966 54.43L90.5066 54.53L90.7466 54.64C93.8266 56.09 96.9766 57.5 100.257 58.8L100.437 58.87L100.767 59.01L100.967 59.09L101.227 59.19C102.167 59.56 103.117 59.93 104.077 60.27C106.924 61.2774 109.837 62.086 112.797 62.69H112.967L113.317 62.77L113.657 62.83H113.797C117.21 63.4833 120.66 63.9341 124.127 64.18H124.257H124.637H124.867H125.127C127.017 64.29 128.897 64.36 130.747 64.36C131.897 64.36 133.027 64.36 134.137 64.28H134.447H134.637C139.174 64.1163 143.679 63.4454 148.067 62.28L148.417 62.18H148.547L148.777 62.11L149.037 62.03C152.387 61.03 155.037 59.62 156.667 57.9C156.721 57.8565 156.765 57.8019 156.797 57.74ZM113.727 61.97L113.137 56.33C116.472 57.0454 119.844 57.5796 123.237 57.93L123.987 63.36C120.541 63.1064 117.115 62.6422 113.727 61.97ZM90.7266 53.65L90.4366 49.43C93.8866 50.72 97.0266 51.83 100.027 52.8L100.207 57.8C96.9566 56.5 93.8066 55.09 90.7366 53.64L90.7266 53.65ZM59.8866 41.74C59.1666 41.68 58.4566 41.66 57.7466 41.63L57.1566 39.52C59.89 39.189 62.645 39.072 65.3966 39.17L65.7866 42.17H65.3466H65.2666C64.3566 42.17 63.4666 42.09 62.5766 42.09C61.6566 41.92 60.7666 41.81 59.8866 41.74ZM41.6666 42.34C42.8966 41.52 44.2066 40.72 45.5666 39.95L46.0266 41.44L45.8066 41.52H45.7366L44.1566 42.14C43.2766 42.24 42.4266 42.3 41.6666 42.34ZM63.8166 26.91C60.3966 28.1 57.3866 29.29 54.6366 30.51L53.7266 27.27C56.715 25.1095 59.8491 23.1581 63.1066 21.43L63.8166 26.91ZM64.9166 27.57C67.3166 26.75 69.9166 25.88 72.7866 25.01C73.6366 24.74 74.4666 24.5 75.2766 24.28L75.7866 29.75C72.2874 29.9957 68.8112 30.5004 65.3866 31.26L64.9166 27.58V27.57ZM108.587 22.05L105.237 21.64C103.407 21.38 101.657 21.13 99.8566 20.93L99.6366 15.03C102.497 15.26 105.267 15.59 107.947 15.94L108.587 22.05ZM151.407 15.39L153.177 32.48C153.111 32.4668 153.043 32.4668 152.977 32.48C150.571 33.2059 148.086 33.639 145.577 33.77L143.827 19.44C146.482 18.3454 149.021 16.9886 151.407 15.39ZM147.227 55.75C143.013 56.7812 138.695 57.3248 134.357 57.37L133.357 47.14H133.657C138.177 47.14 142.367 46.96 146.137 46.58L147.257 55.74L147.227 55.75ZM89.9466 42.3L91.6266 42.6C94.2666 43.07 96.9666 43.6 99.7066 44.01L99.9966 51.73C96.9966 50.73 93.8366 49.64 90.3666 48.32L89.9466 42.3ZM64.4066 31.49C61.4345 32.1909 58.5089 33.076 55.6466 34.14L54.9066 31.49C57.6066 30.27 60.5866 29.1 63.9066 27.91L64.4066 31.49ZM64.5366 32.49L65.2666 38.15C62.4644 38.0612 59.6594 38.1882 56.8766 38.53L55.8766 35.11C58.7018 34.0449 61.5949 33.1696 64.5366 32.49ZM65.5366 32.26C68.951 31.4979 72.4172 30.9899 75.9066 30.74L76.6866 39.14C73.2458 38.6314 69.7813 38.2977 66.3066 38.14L65.5366 32.26ZM121.537 45.7C119.887 45.58 118.067 45.43 115.857 45.22C114.537 45.09 113.237 44.95 111.927 44.79L110.637 32.31C113.787 32.72 116.717 33.15 119.557 33.55H119.867L121.537 45.7ZM99.8966 21.89C101.617 22.08 103.317 22.33 105.097 22.58L108.697 23.08L109.527 31.15C106.237 30.75 103.177 30.43 100.197 30.15L99.8966 21.89ZM99.6766 42.99C97.01 42.5433 94.3866 42.0867 91.8066 41.62L89.8766 41.28L89.1366 30.56C92.4166 30.64 95.7366 30.82 99.2366 31.11L99.6766 42.99ZM76.7966 29.64L76.2566 23.96C79.9477 22.9212 83.7166 22.1821 87.5266 21.75L88.0566 29.49C84.9866 29.43 81.8566 29.49 78.7466 29.55C78.0966 29.64 77.4366 29.64 76.7966 29.64ZM76.8866 30.64C77.5166 30.64 78.1466 30.57 78.7866 30.55C81.9066 30.45 85.0366 30.43 88.1266 30.49L88.8566 41.06C85.3666 40.44 81.4266 39.76 77.6866 39.24L76.8866 30.64ZM100.237 31.15C103.237 31.4 106.317 31.72 109.637 32.15L110.927 44.64C107.797 44.26 104.507 43.77 100.677 43.14L100.237 31.15ZM115.777 46.15C118.087 46.37 119.977 46.53 121.697 46.64L123.097 56.83C119.715 56.4824 116.356 55.9415 113.037 55.21L112.037 45.75C113.287 45.97 114.527 46.1 115.777 46.22V46.15ZM120.927 33.68C124.607 34.2 127.927 34.68 131.047 34.91L132.207 46.06C129.117 46.06 125.887 45.91 122.577 45.69L120.927 33.68ZM145.987 45.51C142.137 45.89 137.857 46.08 133.217 46.07L132.067 34.99C133.487 35.1 134.837 35.15 136.067 35.15C139.187 35.15 142.067 35.04 144.677 34.83L145.987 45.51ZM145.697 34.74C148.268 34.5985 150.813 34.1486 153.277 33.4L154.407 44.25H154.357C151.93 44.7701 149.476 45.154 147.007 45.4L145.697 34.74ZM144.577 33.83C142.017 34.04 139.157 34.15 136.087 34.15C134.807 34.15 133.417 34.09 131.957 33.98L130.817 23.07C134.928 22.4216 138.954 21.3113 142.817 19.76L144.577 33.83ZM130.937 33.9C127.847 33.63 124.497 33.18 120.787 32.65L119.567 23.84H121.037C123.978 23.8442 126.916 23.6336 129.827 23.21L130.937 33.9ZM119.747 32.49C116.837 32.08 113.827 31.64 110.577 31.21L109.737 23.14C112.067 23.42 115.077 23.72 118.577 23.82L119.747 32.49ZM99.1966 30.03C95.6866 29.74 92.3666 29.56 89.0666 29.48L88.5166 21.62C91.9714 21.3097 95.4485 21.3432 98.8966 21.72L99.1966 30.03ZM87.4566 20.79C83.6399 21.2211 79.8642 21.9602 76.1666 23L75.5666 16.56C79.3259 15.6076 83.1659 15.0084 87.0366 14.77L87.4566 20.79ZM53.7166 30.93C50.7923 32.2682 47.9683 33.8155 45.2666 35.56L45.0066 34.71L44.9366 34.49C47.4637 32.1655 50.1142 29.979 52.8766 27.94L53.7166 30.93ZM45.5766 36.54C48.267 34.7997 51.0773 33.2525 53.9866 31.91L54.7166 34.5C51.7831 35.647 48.9271 36.9831 46.1666 38.5L45.5766 36.58V36.54ZM46.9766 41.08L46.4666 39.44C49.218 37.9254 52.0638 36.5893 54.9866 35.44L55.8866 38.63C53.2592 39.0199 50.6811 39.6904 48.1966 40.63L46.9766 41.08ZM66.8066 42.26L66.4166 39.19C69.4166 39.31 72.8666 39.63 76.7666 40.19L77.1066 43.87C73.7211 43.0626 70.277 42.5242 66.8066 42.26ZM77.8066 40.26C81.5566 40.79 85.4966 41.46 88.9566 42.07L89.3566 47.88L86.2066 46.65C83.5981 45.6193 80.9259 44.7575 78.2066 44.07L77.8066 40.26ZM101.027 52.01L100.737 44.13C104.577 44.76 107.887 45.25 111.047 45.64L112.047 55.01C108.477 54.27 104.867 53.29 101.007 52.06L101.027 52.01ZM122.737 46.73C126.027 46.94 129.257 47.06 132.337 47.08L133.357 57.38C130.265 57.4235 127.174 57.2967 124.097 57L122.737 46.73ZM135.057 63.48L134.517 58.32C138.842 58.273 143.149 57.7431 147.357 56.74L147.947 61.61C143.733 62.7345 139.405 63.3785 135.047 63.53L135.057 63.48ZM147.137 46.48C149.619 46.2277 152.086 45.8405 154.527 45.32L155.257 52.44L155.037 52.58C152.925 53.8834 150.629 54.861 148.227 55.48L147.137 46.48ZM151.307 14.27L151.177 14.32L151.077 14.41C148.772 15.9939 146.308 17.3344 143.727 18.41L142.787 10.72C146.397 8.71999 149.217 6.92999 150.467 6.07999L151.307 14.27ZM141.837 11.27L142.767 18.86C138.905 20.4218 134.88 21.5422 130.767 22.2L130.127 16.09C134.192 14.8819 138.125 13.2671 141.867 11.27H141.837ZM129.117 16.35L129.737 22.35C126.862 22.7653 123.961 22.9725 121.057 22.97H119.447L118.657 17.17C119.457 17.23 120.257 17.3 121.037 17.33C123.759 17.3824 126.475 17.0354 129.097 16.3L129.117 16.35ZM117.617 17.07L118.427 22.93C114.937 22.83 111.937 22.52 109.627 22.23L108.997 16.06L109.857 16.17C112.527 16.47 115.107 16.79 117.597 17.02L117.617 17.07ZM98.6166 14.95L98.8266 20.82C95.3706 20.4594 91.8878 20.4327 88.4266 20.74L88.0066 14.74C91.553 14.5648 95.1071 14.6182 98.6466 14.9L98.6166 14.95ZM73.9466 17.01L74.5466 16.85L75.1566 23.31C74.2766 23.55 73.3866 23.81 72.4566 24.1C69.7066 24.96 67.1166 25.8 64.7566 26.62L64.0266 20.98C67.2033 19.3167 70.5361 17.9702 73.9766 16.96L73.9466 17.01ZM44.1066 35.21L44.3966 36.13C43.0866 36.99 41.8266 37.9 40.6266 38.78C41.5366 37.75 42.7066 36.54 44.1066 35.21ZM38.4466 41.96C38.4659 41.8168 38.5099 41.6781 38.5766 41.55L39.5766 40.78C41.1766 39.58 42.8766 38.32 44.6666 37.13L45.2266 38.97C43.5166 39.97 41.8866 40.97 40.3866 41.97C40.1866 42.11 39.9866 42.24 39.8066 42.38C39.3339 42.4125 38.8618 42.3084 38.4466 42.08C38.4361 42.0617 38.4306 42.041 38.4306 42.02C38.4306 41.9989 38.4361 41.9782 38.4466 41.96ZM55.0266 41.57C52.3666 41.57 49.8866 41.71 47.6966 41.88L48.5266 41.57C50.9931 40.6539 53.5512 40.0068 56.1566 39.64L56.7066 41.64L55.0266 41.57ZM67.4166 43.32H67.4766C70.7559 43.5943 74.009 44.1225 77.2066 44.9L77.4366 47.31C74.1845 45.7692 70.8377 44.4365 67.4166 43.32ZM78.4866 47.8L78.2466 45.18C80.8215 45.8393 83.353 46.6575 85.8266 47.63L89.3366 49H89.4066L89.6966 53.13C87.9966 52.33 86.3266 51.52 84.6966 50.72C82.5466 49.72 80.4866 48.73 78.4866 47.8ZM101.237 58.22L101.047 53.13C104.927 54.34 108.547 55.33 112.107 56.13L112.697 61.78C109.888 61.1915 107.122 60.4165 104.417 59.46C103.357 59.05 102.287 58.64 101.237 58.22ZM125.017 63.43L124.267 58.02C126.987 58.27 129.657 58.39 132.367 58.39H133.487L134.037 63.58C131.029 63.689 128.019 63.6389 125.017 63.43ZM148.917 61.31L148.337 56.48C150.794 55.8357 153.15 54.853 155.337 53.56L155.757 57.62C153.792 59.3616 151.451 60.6246 148.917 61.31Z" fill="#FFC973"/>
<path d="M149.957 2L161.417 104.13" stroke="#263238" stroke-width="3" stroke-linecap="round" stroke-linejoin="round"/>
<path d="M163.227 87.4699C163.227 87.4699 169.227 85.8499 169.927 87.6999C170.627 89.5499 170.157 94.6299 169.927 95.3299C169.697 96.0299 166.927 96.9499 166.927 95.5599C166.927 94.1699 165.357 90.9399 165.357 90.9399L163.227 87.4699Z" stroke="#263238" stroke-linecap="round" stroke-linejoin="round"/>
<path d="M176.627 143.39C177.602 141.947 178.216 140.291 178.416 138.561C178.616 136.83 178.397 135.078 177.777 133.45C175.697 127.68 166.917 117.74 163.687 111.96C160.457 106.18 162.527 106.65 162.527 106.65C162.527 106.65 165.527 105.26 165.767 103.65C166.007 102.04 166.917 91.86 166.917 90.24C166.917 88.62 159.067 85.39 155.827 84.93C152.587 84.47 153.747 87.47 154.677 94.4C155.607 101.33 156.987 120.74 158.137 127.45C159.287 134.16 160.917 141.31 166.917 144.77C172.917 148.23 176.627 143.39 176.627 143.39Z" fill="white" stroke="#263238" stroke-linecap="round" stroke-linejoin="round"/>
<path d="M154.447 90.7101C154.447 90.7101 156.057 89.3201 157.217 89.3201C158.377 89.3201 166.217 92.3201 166.217 92.3201" stroke="#263238" stroke-linecap="round" stroke-linejoin="round"/>
<path d="M156.057 96.7099C157.148 96.101 158.315 95.6371 159.527 95.3299C160.917 95.0999 165.767 96.0199 165.767 96.0199" stroke="#263238" stroke-linecap="round" stroke-linejoin="round"/>
<path d="M158.836 99.72C159.163 99.3849 159.561 99.1274 160.001 98.9665C160.44 98.8055 160.91 98.7452 161.376 98.79C162.803 98.8791 164.207 99.1929 165.536 99.72" stroke="#263238" stroke-linecap="round" stroke-linejoin="round"/>
<path d="M163.226 103.18L158.836 105.03" stroke="#263238" stroke-linecap="round" stroke-linejoin="round"/>
<path d="M161.626 104.71L170.526 185.23" stroke="#263238" stroke-width="3" stroke-linecap="round" stroke-linejoin="round"/>
<path d="M178.237 148.7C178.237 148.7 175.237 144.77 172.237 141.31C169.237 137.85 165.067 141.54 165.067 141.54C165.067 141.54 160.447 142.23 160.447 143.85C160.447 145.47 162.067 148.24 162.067 148.24C162.067 148.24 161.377 152.63 163.227 154.24C165.077 155.85 166.227 156.32 167.377 156.32C168.527 156.32 222.147 157.24 226.537 157.01C230.927 156.78 241.537 158.63 245.247 153.54C248.957 148.45 246.637 140.84 238.777 140.14C230.917 139.44 199.037 148.93 178.237 148.7Z" fill="white" stroke="#263238" stroke-linecap="round" stroke-linejoin="round"/>
</svg>
