<svg width="500" height="500" viewBox="0 0 500 500" fill="none" xmlns="http://www.w3.org/2000/svg">
<g clip-path="url(#clip0)">
<path d="M461.05 483.58C461.05 483.58 496.11 405.58 456.76 331.19C417.41 256.8 331.55 237.47 284.33 256.78C237.11 276.09 203.48 336.91 157.69 357C111.9 377.09 53.2401 439.23 92.5901 512.2C131.94 585.17 178.44 579.46 250.7 560.85C322.96 542.24 435.29 547.26 461.05 483.58Z" fill="#FFC973"/>
<path opacity="0.7" d="M461.05 483.58C461.05 483.58 496.11 405.58 456.76 331.19C417.41 256.8 331.55 237.47 284.33 256.78C237.11 276.09 203.48 336.91 157.69 357C111.9 377.09 53.2401 439.23 92.5901 512.2C131.94 585.17 178.44 579.46 250.7 560.85C322.96 542.24 435.29 547.26 461.05 483.58Z" fill="white"/>
<path d="M445.39 525.79V520.44L437.33 514L352.87 454.1C351.64 452.7 348.48 452.1 345.82 452.74L134.82 495.84H129.5L129.4 500.24C129.4 500.24 129.32 502.56 130.11 503.46L202.66 586.46C203.91 587.89 207.14 588.46 209.87 587.8L442.44 528.8C444.67 528.31 445.82 527 445.39 525.79Z" fill="white" stroke="#263238" stroke-linecap="round" stroke-linejoin="round"/>
<path d="M442.44 522.75L209.87 581.75C207.14 582.43 203.87 581.83 202.66 580.4L130.11 497.4C128.86 495.98 130.11 494.29 132.82 493.62L345.82 446.69C348.48 446.04 351.64 446.64 352.87 448.04L445 519C446.24 520.41 445.09 522.09 442.44 522.75Z" fill="white" stroke="#263238" stroke-linecap="round" stroke-linejoin="round"/>
<path d="M362.44 455.38L354.33 449.67C352.33 447.35 347.07 446.35 342.67 447.43L240.83 469.79L135 493.11C129 494.35 128.84 496.53 131.59 499.06L159.24 530.69L190 565.88L428 505.88L362.44 455.38Z" fill="#263238" stroke="#263238" stroke-linecap="round" stroke-linejoin="round"/>
<path d="M261.68 483.58C241.25 488.58 232.26 501.35 241.68 512.06C251.1 522.77 275.27 527.33 295.68 522.26C316.09 517.19 324.9 504.45 315.53 493.8C306.16 483.15 282.05 478.57 261.68 483.58ZM274.15 520.76L250 493.26L307.43 495.78L274.15 520.76Z" fill="#FFC973"/>
<path d="M175 390.61C175.213 390.596 175.427 390.596 175.64 390.61C176.295 390.61 176.924 390.35 177.387 389.887C177.85 389.424 178.11 388.795 178.11 388.14C178.11 387.485 177.85 386.857 177.387 386.394C176.924 385.93 176.295 385.67 175.64 385.67H166.28C166.28 385.67 166.86 382.29 166.86 381.13C166.86 379.97 167.44 378.24 165.86 376.02C164.28 373.8 160.74 374.67 160.74 374.67L161.29 379.25C161.369 379.974 161.23 380.706 160.89 381.35L156.69 389.24L154.76 390.88L154.18 400.63C155.43 403.63 159.39 404.58 159.39 404.58H172C172.675 404.599 173.33 404.35 173.821 403.887C174.312 403.424 174.599 402.785 174.62 402.11C174.615 401.692 174.503 401.283 174.294 400.92C174.086 400.558 173.789 400.255 173.43 400.04C173.796 400.104 174.171 400.09 174.531 400C174.892 399.91 175.229 399.744 175.521 399.515C175.813 399.286 176.054 398.998 176.228 398.67C176.402 398.342 176.505 397.981 176.53 397.61C176.518 397.207 176.406 396.813 176.203 396.463C176.001 396.114 175.714 395.821 175.37 395.61C175.964 395.529 176.51 395.239 176.91 394.792C177.31 394.345 177.537 393.77 177.55 393.17C177.55 392.493 177.282 391.843 176.804 391.363C176.326 390.884 175.677 390.613 175 390.61Z" fill="white"/>
<path d="M172 404.93H159.28C159.11 404.93 155.12 403.93 153.8 400.74C153.79 400.684 153.79 400.626 153.8 400.57L154.38 390.83C154.389 390.722 154.439 390.622 154.52 390.55L156.39 388.96L160.56 381.13C160.869 380.562 160.991 379.912 160.91 379.27L160.37 374.68C160.36 374.587 160.384 374.493 160.437 374.416C160.49 374.339 160.569 374.284 160.66 374.26C160.82 374.26 164.51 373.36 166.18 375.77C166.656 376.431 166.997 377.179 167.182 377.972C167.367 378.765 167.394 379.587 167.26 380.39C167.26 380.65 167.26 380.89 167.26 381.1C167.167 382.492 166.997 383.877 166.75 385.25H175.65H175.78C176.539 385.26 177.265 385.564 177.806 386.097C178.346 386.63 178.66 387.351 178.68 388.11C178.67 388.694 178.483 389.261 178.144 389.736C177.805 390.211 177.329 390.572 176.78 390.77C177.162 391.024 177.475 391.367 177.693 391.77C177.911 392.172 178.027 392.622 178.03 393.08C178.026 393.64 177.856 394.186 177.543 394.65C177.23 395.114 176.788 395.476 176.27 395.69C176.751 396.198 177.019 396.871 177.02 397.57C177.006 398.259 176.748 398.92 176.292 399.437C175.836 399.953 175.212 400.291 174.53 400.39C174.901 400.872 175.101 401.463 175.1 402.07C175.09 402.463 175.001 402.85 174.839 403.209C174.676 403.567 174.444 403.889 174.155 404.156C173.866 404.422 173.526 404.628 173.156 404.761C172.786 404.894 172.393 404.952 172 404.93ZM159.39 404.15H172C172.572 404.166 173.128 403.956 173.546 403.564C173.963 403.173 174.209 402.632 174.23 402.06C174.226 401.709 174.131 401.365 173.956 401.06C173.781 400.756 173.531 400.501 173.23 400.32C173.157 400.271 173.103 400.199 173.076 400.115C173.05 400.031 173.052 399.94 173.084 399.858C173.115 399.776 173.173 399.707 173.249 399.662C173.324 399.617 173.413 399.598 173.5 399.61C173.64 399.624 173.781 399.624 173.92 399.61C174.494 399.629 175.052 399.42 175.472 399.028C175.892 398.636 176.139 398.094 176.16 397.52C176.153 397.171 176.058 396.829 175.883 396.527C175.708 396.224 175.459 395.971 175.16 395.79C175.093 395.75 175.039 395.69 175.007 395.619C174.974 395.547 174.965 395.467 174.98 395.39C174.996 395.313 175.035 395.243 175.093 395.189C175.15 395.136 175.222 395.101 175.3 395.09C175.803 395.022 176.264 394.777 176.603 394.4C176.942 394.022 177.136 393.537 177.15 393.03C177.117 392.482 176.876 391.967 176.477 391.59C176.078 391.213 175.55 391.002 175 391C174.9 390.995 174.806 390.952 174.737 390.879C174.668 390.807 174.63 390.71 174.63 390.61C174.63 390.2 174.98 390.2 175.63 390.2C175.922 390.229 176.216 390.196 176.494 390.104C176.773 390.012 177.029 389.863 177.246 389.666C177.463 389.469 177.636 389.229 177.755 388.961C177.874 388.693 177.935 388.403 177.935 388.11C177.935 387.817 177.874 387.527 177.755 387.259C177.636 386.992 177.463 386.751 177.246 386.555C177.029 386.358 176.773 386.209 176.494 386.116C176.216 386.024 175.922 385.992 175.63 386.02C175.587 386.03 175.543 386.03 175.5 386.02H166.27C166.215 386.02 166.161 386.009 166.111 385.986C166.061 385.964 166.017 385.931 165.98 385.89C165.942 385.847 165.914 385.796 165.898 385.741C165.883 385.685 165.88 385.627 165.89 385.57C166.16 384.091 166.353 382.599 166.47 381.1C166.47 380.86 166.47 380.6 166.47 380.32C166.593 379.607 166.573 378.877 166.411 378.171C166.25 377.466 165.951 376.799 165.53 376.21C164.42 374.61 162.04 374.81 161.16 374.95L161.66 379.17C161.752 379.974 161.599 380.786 161.22 381.5L157.02 389.39C156.999 389.433 156.968 389.471 156.93 389.5L155.11 391L154.55 400.49C155.68 403.07 159 404 159.42 404.15H159.39Z" fill="#263238"/>
<path d="M153.76 387.26H147.84C146.658 387.26 145.7 388.218 145.7 389.4V403.94C145.7 405.122 146.658 406.08 147.84 406.08H153.76C154.942 406.08 155.9 405.122 155.9 403.94V389.4C155.9 388.218 154.942 387.26 153.76 387.26Z" fill="#263238"/>
<path d="M377.63 265.06C377.56 265.06 377.84 265.14 378.06 265.25C378.27 265.369 378.502 265.444 378.742 265.47C378.982 265.497 379.225 265.474 379.456 265.403C379.687 265.333 379.901 265.216 380.085 265.06C380.27 264.905 380.421 264.713 380.529 264.497C380.637 264.281 380.699 264.045 380.713 263.804C380.728 263.563 380.692 263.322 380.61 263.095C380.528 262.868 380.401 262.66 380.236 262.484C380.07 262.308 379.871 262.167 379.65 262.07L373.65 259.07C374.309 258.192 374.923 257.281 375.49 256.34C376.279 255.312 376.637 254.018 376.49 252.73C376.21 250.81 373.63 250.21 373.63 250.21L372.5 253.3C372.326 253.794 372 254.221 371.57 254.52L366.32 258.24L364.55 258.68L361 264.76C360.84 267.09 363.08 268.99 363.08 268.99L371.08 272.99L371.23 273.07C371.442 273.184 371.673 273.256 371.912 273.281C372.152 273.305 372.393 273.283 372.623 273.214C372.854 273.145 373.068 273.032 373.255 272.88C373.441 272.728 373.596 272.542 373.71 272.33C373.842 272.059 373.902 271.758 373.885 271.457C373.867 271.156 373.773 270.864 373.61 270.61L373.91 270.8C374.34 271.028 374.843 271.077 375.309 270.937C375.775 270.796 376.167 270.478 376.4 270.05C376.531 269.784 376.592 269.489 376.576 269.193C376.56 268.898 376.469 268.611 376.31 268.36C376.719 268.501 377.164 268.49 377.566 268.33C377.968 268.171 378.299 267.873 378.5 267.49C378.703 267.052 378.725 266.552 378.563 266.097C378.4 265.642 378.065 265.27 377.63 265.06Z" fill="white"/>
<path d="M371.12 273.33L370.96 273.24L362.96 269.24C362.944 269.244 362.927 269.244 362.91 269.24C362.81 269.16 360.56 267.24 360.73 264.78C360.721 264.741 360.721 264.7 360.73 264.66L364.25 258.58C364.266 258.547 364.29 258.518 364.32 258.495C364.349 258.473 364.384 258.457 364.42 258.45L366.14 258.02L371.35 254.33C371.734 254.062 372.024 253.681 372.18 253.24L373.31 250.12C373.333 250.055 373.379 250 373.44 249.967C373.501 249.933 373.573 249.924 373.64 249.94C373.75 249.94 376.4 250.6 376.7 252.69C376.902 253.842 376.651 255.028 376 256C375.9 256.16 375.81 256.31 375.74 256.44C375.229 257.306 374.671 258.144 374.07 258.95L379.8 261.82L379.88 261.88C380.366 262.129 380.736 262.557 380.912 263.075C381.087 263.592 381.054 264.157 380.82 264.65C380.627 265.024 380.324 265.33 379.953 265.526C379.581 265.723 379.158 265.801 378.74 265.75C378.907 266.037 379 266.361 379.01 266.693C379.021 267.024 378.949 267.353 378.8 267.65C378.613 268.011 378.323 268.308 377.967 268.504C377.611 268.7 377.205 268.786 376.8 268.75C376.938 269.236 376.892 269.756 376.67 270.21C376.433 270.645 376.051 270.983 375.591 271.166C375.131 271.348 374.621 271.364 374.15 271.21C374.24 271.637 374.18 272.082 373.98 272.47C373.849 272.715 373.671 272.931 373.456 273.106C373.241 273.282 372.994 273.413 372.728 273.493C372.463 273.573 372.184 273.6 371.908 273.572C371.632 273.544 371.364 273.462 371.12 273.33ZM363.26 268.76L371.26 272.76L371.39 272.84C371.754 273.033 372.179 273.075 372.574 272.957C372.969 272.839 373.301 272.571 373.5 272.21C373.613 271.984 373.664 271.732 373.65 271.48C373.636 271.227 373.557 270.983 373.42 270.77C373.389 270.715 373.378 270.652 373.387 270.589C373.397 270.527 373.428 270.47 373.474 270.427C373.52 270.384 373.579 270.358 373.642 270.353C373.705 270.349 373.768 270.365 373.82 270.4C373.902 270.461 373.989 270.514 374.08 270.56C374.442 270.756 374.868 270.801 375.263 270.685C375.658 270.569 375.992 270.301 376.19 269.94C376.299 269.715 376.35 269.466 376.338 269.216C376.326 268.966 376.251 268.723 376.12 268.51C376.086 268.464 376.068 268.408 376.068 268.35C376.068 268.293 376.086 268.237 376.12 268.19C376.155 268.147 376.203 268.115 376.256 268.099C376.31 268.083 376.367 268.084 376.42 268.1C376.764 268.218 377.138 268.21 377.477 268.078C377.815 267.946 378.096 267.699 378.27 267.38C378.441 267.004 378.457 266.577 378.315 266.189C378.172 265.802 377.883 265.486 377.51 265.31C377.448 265.274 377.402 265.216 377.381 265.147C377.361 265.078 377.367 265.004 377.4 264.94C377.53 264.67 377.76 264.79 378.21 265.01C378.386 265.099 378.578 265.152 378.774 265.166C378.971 265.181 379.168 265.157 379.355 265.095C379.542 265.033 379.716 264.935 379.865 264.807C380.014 264.678 380.136 264.521 380.225 264.345C380.314 264.169 380.367 263.977 380.381 263.781C380.396 263.584 380.372 263.387 380.31 263.2C380.248 263.013 380.15 262.84 380.022 262.69C379.893 262.541 379.736 262.419 379.56 262.33H379.49L373.55 259.33C373.513 259.311 373.48 259.284 373.454 259.252C373.428 259.219 373.41 259.181 373.4 259.14C373.384 259.104 373.375 259.065 373.375 259.025C373.375 258.986 373.384 258.946 373.4 258.91C373.4 258.91 374.85 256.91 375.21 256.22C375.29 256.06 375.39 255.9 375.49 255.73C375.807 255.305 376.035 254.82 376.159 254.304C376.282 253.788 376.3 253.253 376.21 252.73C376.01 251.34 374.42 250.73 373.81 250.51L372.76 253.39C372.576 253.936 372.226 254.411 371.76 254.75L366.51 258.47H366.42L364.76 258.88L361.33 264.8C361.21 266.86 363 268.55 363.26 268.76Z" fill="#263238"/>
<path d="M364.519 255.802L361.784 254.43C360.728 253.9 359.442 254.327 358.912 255.383L354.755 263.669C354.225 264.725 354.652 266.011 355.709 266.541L358.444 267.913C359.5 268.443 360.786 268.017 361.316 266.96L365.473 258.674C366.003 257.618 365.576 256.332 364.519 255.802Z" fill="#263238"/>
<path d="M385.22 380.85C385.11 380.85 385.53 380.77 385.86 380.71C386.186 380.663 386.5 380.552 386.782 380.382C387.064 380.212 387.31 379.988 387.504 379.722C387.698 379.456 387.837 379.153 387.913 378.833C387.989 378.512 387.999 378.18 387.945 377.855C387.89 377.53 387.771 377.22 387.594 376.941C387.418 376.663 387.188 376.423 386.917 376.236C386.646 376.048 386.341 375.916 386.018 375.848C385.696 375.78 385.364 375.777 385.04 375.84L375.8 377.39C375.82 375.865 375.763 374.34 375.63 372.82C375.43 371.68 375.72 369.82 373.83 367.94C371.94 366.06 368.56 367.45 368.56 367.45L369.86 371.88C370.075 372.574 370.075 373.316 369.86 374.01L367 382.47L365.37 384.41L366.37 394.12C368.1 396.86 372.16 397.12 372.16 397.12L384.41 395.06H384.65C385.32 394.966 385.925 394.609 386.332 394.069C386.738 393.529 386.914 392.85 386.82 392.18C386.746 391.769 386.567 391.384 386.3 391.061C386.034 390.739 385.69 390.491 385.3 390.34C385.463 390.355 385.627 390.355 385.79 390.34C386.122 390.296 386.442 390.186 386.732 390.018C387.021 389.849 387.275 389.625 387.477 389.359C387.68 389.092 387.828 388.788 387.912 388.464C387.997 388.139 388.017 387.802 387.97 387.47C387.898 387.064 387.723 386.682 387.462 386.362C387.201 386.042 386.864 385.793 386.48 385.64C387.052 385.463 387.542 385.088 387.863 384.582C388.184 384.076 388.314 383.473 388.23 382.88C388.167 382.549 388.038 382.233 387.852 381.951C387.667 381.67 387.427 381.428 387.147 381.239C386.867 381.05 386.553 380.919 386.223 380.852C385.892 380.785 385.551 380.785 385.22 380.85Z" fill="white"/>
<path d="M384.7 395.46H384.45L372.22 397.46H372.13C371.95 397.46 367.85 397.12 366.03 394.24C366.016 394.188 366.016 394.132 366.03 394.08L365.03 384.37C365.022 384.319 365.025 384.267 365.039 384.217C365.053 384.167 365.077 384.12 365.11 384.08L366.7 382.2L369.52 373.79C369.715 373.172 369.715 372.508 369.52 371.89L368.23 367.46C368.205 367.368 368.213 367.271 368.253 367.185C368.294 367.098 368.363 367.029 368.45 366.99C368.6 366.93 372.09 365.47 374.14 367.57C375.304 368.731 375.962 370.306 375.97 371.95C375.984 372.188 376.011 372.425 376.05 372.66C376.186 374.046 376.246 375.438 376.23 376.83L385.01 375.36H385.14C385.89 375.243 386.656 375.421 387.278 375.858C387.899 376.294 388.326 376.955 388.47 377.7C388.56 378.276 388.471 378.866 388.215 379.39C387.96 379.914 387.549 380.347 387.04 380.63C387.507 380.837 387.908 381.168 388.199 381.587C388.491 382.006 388.662 382.497 388.694 383.006C388.726 383.515 388.618 384.024 388.381 384.476C388.144 384.928 387.787 385.307 387.35 385.57C387.89 386.004 388.247 386.625 388.35 387.31C388.447 387.992 388.299 388.687 387.933 389.27C387.567 389.854 387.006 390.29 386.35 390.5C386.796 390.912 387.091 391.461 387.19 392.06C387.255 392.447 387.242 392.844 387.152 393.226C387.061 393.609 386.895 393.969 386.663 394.286C386.431 394.603 386.137 394.87 385.8 395.072C385.463 395.273 385.089 395.405 384.7 395.46ZM372.14 396.77L384.34 394.72H384.54C385.108 394.643 385.623 394.344 385.971 393.889C386.32 393.433 386.474 392.859 386.4 392.29C386.342 391.942 386.194 391.615 385.969 391.343C385.744 391.07 385.451 390.862 385.12 390.74C385.037 390.705 384.968 390.642 384.926 390.561C384.884 390.481 384.871 390.389 384.89 390.3C384.907 390.212 384.954 390.132 385.023 390.076C385.093 390.019 385.18 389.989 385.27 389.99C385.41 390 385.55 390 385.69 389.99C385.972 389.953 386.244 389.861 386.49 389.719C386.736 389.576 386.952 389.387 387.125 389.161C387.297 388.936 387.424 388.678 387.497 388.403C387.57 388.128 387.588 387.842 387.55 387.56C387.489 387.219 387.342 386.898 387.124 386.629C386.905 386.359 386.622 386.15 386.3 386.02C386.225 385.995 386.159 385.946 386.113 385.882C386.067 385.817 386.042 385.74 386.042 385.66C386.042 385.581 386.067 385.503 386.113 385.439C386.159 385.374 386.225 385.326 386.3 385.3C386.784 385.151 387.199 384.835 387.472 384.408C387.745 383.981 387.857 383.472 387.79 382.97C387.672 382.41 387.338 381.919 386.861 381.603C386.384 381.286 385.802 381.171 385.24 381.28C385.141 381.289 385.043 381.262 384.963 381.203C384.884 381.144 384.829 381.057 384.81 380.96C384.74 380.55 385.09 380.49 385.81 380.37C386.097 380.344 386.375 380.26 386.628 380.121C386.881 379.983 387.102 379.794 387.278 379.566C387.454 379.338 387.581 379.076 387.651 378.797C387.721 378.517 387.733 378.226 387.685 377.942C387.638 377.658 387.532 377.387 387.374 377.146C387.217 376.905 387.011 376.699 386.77 376.541C386.529 376.383 386.258 376.276 385.974 376.228C385.69 376.18 385.4 376.191 385.12 376.26H385L375.9 377.79C375.843 377.8 375.785 377.798 375.73 377.782C375.674 377.766 375.623 377.738 375.58 377.7C375.539 377.664 375.507 377.619 375.484 377.569C375.462 377.519 375.45 377.465 375.45 377.41C375.45 377.41 375.45 374 375.28 372.9C375.233 372.646 375.203 372.388 375.19 372.13C375.193 371.406 375.052 370.688 374.775 370.019C374.499 369.35 374.093 368.741 373.58 368.23C372.22 366.83 369.91 367.42 369.06 367.71L370.26 371.79C370.497 372.559 370.497 373.381 370.26 374.15L367.42 382.63C367.403 382.676 367.379 382.72 367.35 382.76L365.82 384.57L366.82 394.02C368.28 396.32 371.71 396.73 372.14 396.77Z" fill="#263238"/>
<path d="M363.751 381.073L357.912 382.051C356.746 382.246 355.96 383.349 356.155 384.515L358.557 398.855C358.753 400.021 359.856 400.808 361.022 400.612L366.86 399.634C368.026 399.439 368.812 398.336 368.617 397.17L366.215 382.83C366.02 381.664 364.916 380.878 363.751 381.073Z" fill="#263238"/>
<path d="M253.58 243.41C252.295 244.169 251.257 245.281 250.588 246.615C249.919 247.949 249.649 249.447 249.81 250.93C248.352 249.914 246.591 249.426 244.818 249.548C243.045 249.671 241.367 250.396 240.063 251.603C238.758 252.811 237.906 254.428 237.647 256.186C237.389 257.944 237.739 259.738 238.64 261.27C241.22 265.64 246.44 267.01 251.09 267.66C253.16 267.95 255.23 268.16 257.31 268.33L260.18 268.6C260.18 268.6 261.31 266.15 261.42 265.91C262.27 264 263.09 262.08 263.83 260.14C265.51 255.75 266.83 250.52 264.25 246.14C263.197 244.364 261.481 243.078 259.48 242.566C257.48 242.054 255.357 242.358 253.58 243.41Z" fill="#263238"/>
<path d="M406.12 343.87C404.712 343.375 403.191 343.296 401.739 343.641C400.286 343.987 398.964 344.744 397.93 345.82C397.78 344.044 397.024 342.374 395.79 341.089C394.556 339.803 392.917 338.98 391.149 338.758C389.381 338.535 387.59 338.927 386.076 339.866C384.562 340.806 383.416 342.237 382.83 343.92C381.15 348.7 383.45 353.58 385.94 357.56C387.05 359.33 388.22 361.05 389.42 362.76C389.58 362.98 391.06 365.13 391.06 365.13C391.06 365.13 393.66 364.42 393.92 364.34C395.92 363.77 397.92 363.16 399.92 362.48C404.36 360.94 409.22 358.59 410.92 353.81C411.26 352.842 411.405 351.817 411.347 350.793C411.29 349.769 411.03 348.767 410.585 347.843C410.139 346.92 409.515 346.093 408.748 345.411C407.982 344.73 407.089 344.206 406.12 343.87Z" fill="#263238"/>
<path d="M135.48 418.56C134.037 418.942 132.735 419.73 131.728 420.831C130.721 421.932 130.052 423.299 129.8 424.77C128.676 423.389 127.113 422.436 125.371 422.069C123.629 421.702 121.813 421.943 120.228 422.753C118.642 423.563 117.382 424.892 116.659 426.518C115.935 428.145 115.79 429.97 116.25 431.69C117.55 436.59 122.25 439.33 126.5 441.22C128.41 442.06 130.35 442.83 132.3 443.56L134.99 444.56C134.99 444.56 136.74 442.51 136.91 442.3C138.25 440.7 139.56 439.07 140.8 437.4C143.6 433.63 146.3 428.96 145 424.06C144.463 422.071 143.16 420.375 141.376 419.344C139.592 418.313 137.472 418.031 135.48 418.56Z" fill="#263238"/>
<path d="M162.75 324.56C161.862 324.245 160.901 324.193 159.984 324.411C159.066 324.63 158.232 325.108 157.58 325.79C157.486 324.669 157.009 323.615 156.23 322.803C155.451 321.992 154.417 321.472 153.301 321.332C152.185 321.191 151.055 321.438 150.099 322.031C149.143 322.624 148.42 323.528 148.05 324.59C146.98 327.59 148.44 330.68 150.05 333.2C150.75 334.31 151.49 335.4 152.25 336.48L153.25 337.97L155.06 337.48C156.32 337.12 157.58 336.73 158.83 336.3C161.63 335.3 164.69 333.85 165.76 330.83C166.192 329.599 166.117 328.248 165.553 327.072C164.989 325.896 163.98 324.993 162.75 324.56Z" fill="#263238"/>
<path d="M205.42 448.56C204.53 448.245 203.568 448.194 202.649 448.412C201.73 448.63 200.894 449.109 200.24 449.79C200.145 448.669 199.669 447.615 198.89 446.803C198.111 445.992 197.077 445.472 195.961 445.332C194.845 445.191 193.714 445.438 192.759 446.031C191.803 446.624 191.08 447.528 190.71 448.59C189.65 451.59 191.1 454.68 192.71 457.2C193.4 458.31 194.15 459.4 194.91 460.48L195.91 461.97L197.71 461.48C198.98 461.12 200.24 460.74 201.48 460.3C204.28 459.3 207.35 457.85 208.42 454.83C208.852 453.601 208.779 452.25 208.217 451.075C207.654 449.899 206.649 448.995 205.42 448.56Z" fill="#263238"/>
<path d="M300.4 500.2C300.4 500.2 294.4 504.82 293.01 508.06C291.62 511.3 294.39 512.22 298.09 512.91C301.79 513.6 305.25 517.53 310.33 518.91C315.41 520.29 321.89 519.83 319.81 516.6C317.73 513.37 311.03 509.2 309.87 507.35C309.17 506.244 308.545 505.091 308 503.9L300.4 500.2Z" fill="#FFC973" stroke="#263238" stroke-linecap="round" stroke-linejoin="round"/>
<path d="M257.65 403.55C257.65 403.55 249.34 441.05 247.72 450.06C246.1 459.07 245.41 464.62 245.41 464.62C245.41 464.62 239.41 469.01 233.41 478.71C227.41 488.41 214.23 507.83 214.23 507.83C214.23 507.83 213.77 511.29 217.93 512.45C217.93 512.45 220.01 513.37 221.17 512.45C222.33 511.53 261.83 475.02 266.45 467.39C271.07 459.76 280.55 433.19 280.55 433.19L286.55 432.04L324.9 467.62L299.02 500.62C299.02 500.62 298.1 502.47 300.64 504.09C303.18 505.71 307.11 505.01 309.19 504.09C311.27 503.17 347.78 467.35 348.01 464.81C348.24 462.27 346.39 459.26 345.93 458.34C345.47 457.42 308.73 408.34 308.73 408.34L306.65 403.03C306.65 403.03 282.39 405.8 271.53 403.72C260.67 401.64 258.58 400.09 257.65 403.55Z" fill="white" stroke="#263238" stroke-linecap="round" stroke-linejoin="round"/>
<path d="M286.54 432.04L299.71 428.11" stroke="#263238" stroke-linecap="round" stroke-linejoin="round"/>
<path d="M287.92 432.73L305.94 430.65" stroke="#263238" stroke-linecap="round" stroke-linejoin="round"/>
<path d="M324.89 467.62L332.75 474.09" stroke="#263238" stroke-linecap="round" stroke-linejoin="round"/>
<path d="M290.1 415.69L282.18 418.33C282.18 418.33 294.63 417.95 295.01 419.46C295.39 420.97 287.46 427.01 287.46 427.01" stroke="#263238" stroke-linecap="round" stroke-linejoin="round"/>
<path d="M261.8 410.78C261.8 410.78 266 418 256.14 422.1" stroke="#263238" stroke-linecap="round" stroke-linejoin="round"/>
<path d="M311.63 327.36C311.63 327.36 278.22 326.61 276.63 327.07C275.04 327.53 256.53 350.64 254.45 352.72C252.37 354.8 246.82 358.72 246.36 361.72C245.9 364.72 250.06 374.66 254.68 374.66C259.3 374.66 267.62 365.42 267.62 365.42C267.62 365.42 256.53 403.77 256.99 405.42C257.45 407.07 265.31 410.73 282.87 412.81C300.43 414.89 307.87 407.5 308.29 405.19C308.71 402.88 307.82 398.95 307.82 398.95L313.82 388.32C313.82 388.32 324.45 396.25 329.3 392.78C334.15 389.31 334.15 378.68 336.46 375.45C338.77 372.22 344.32 354.89 342.46 352.58C340.6 350.27 311.63 327.36 311.63 327.36Z" fill="#FFC973" stroke="#263238" stroke-linecap="round" stroke-linejoin="round"/>
<path d="M329.74 352.32C329.74 352.32 323.27 347.63 322.35 349.71C321.43 351.79 315.42 363.35 311 368.2C306.58 373.05 304.3 377.67 307.07 381.37C309.059 383.905 311.304 386.227 313.77 388.3" stroke="#263238" stroke-linecap="round" stroke-linejoin="round"/>
<path d="M267.59 365.43L275.91 337.7" stroke="#263238" stroke-linecap="round" stroke-linejoin="round"/>
<path d="M305 328.69C305 328.69 292.75 327.3 287.44 321.99C282.13 316.68 279.35 311.36 270.11 309.99C264.595 309.156 258.986 309.156 253.47 309.99L255.78 321.99C255.78 321.99 266.88 317.83 272.42 321.06C277.96 324.29 280.74 332.38 288.36 334.46C295.98 336.54 305.69 336.08 305.69 336.08L305 328.69Z" fill="#263238" stroke="#263238" stroke-linecap="round" stroke-linejoin="round"/>
<path d="M315.19 330.77C317.362 332.643 318.897 335.145 319.58 337.93C320.5 342.32 316.34 347.63 313.11 350.64C309.88 353.65 306.64 355.03 298.32 356.18C290 357.33 282.61 348.79 277.06 347.87C271.51 346.95 260.19 353.18 260.19 353.18L262.51 343.24C267.525 340.297 273.368 339.081 279.14 339.78C288.85 340.93 295.32 347.87 299.01 348.78C302.7 349.69 309.41 347.62 310.8 342.31C312.19 337 310.33 332.14 312.65 330.53C314.97 328.92 315.19 330.77 315.19 330.77Z" fill="#263238" stroke="#263238" stroke-linecap="round" stroke-linejoin="round"/>
<path d="M314 287.79C314 287.79 307.3 289.64 304.53 293.79C301.76 297.94 293.67 322.21 293.9 324.29C294.13 326.37 304.53 324.29 304.53 324.29C304.53 324.29 297.37 339.29 297.37 341.85C297.37 344.41 300.6 345.78 304.76 344.85C308.92 343.92 323.09 319.53 323.09 319.53C323.09 319.53 327.29 324.41 329.94 322.74C332.94 320.82 332.02 316.96 329.71 316.96C327.4 316.96 336.18 307.49 333.18 301.25C330.18 295.01 316.8 285.71 314 287.79Z" fill="white" stroke="#263238" stroke-linecap="round" stroke-linejoin="round"/>
<path d="M311.49 280.4C311.49 280.4 298.55 280.4 297.86 286.64C297.17 292.88 303.86 295.64 311.26 294.49C318.66 293.34 325.35 293.8 326.26 294.95C327.17 296.1 317.26 298.42 319.56 300.04C320.906 300.996 322.53 301.481 324.18 301.42C324.18 301.42 320.94 302.35 321.18 304.66C321.42 306.97 323.43 317.18 325.04 317.18C326.65 317.18 329.73 316.97 329.73 316.97C332.651 315.495 335.307 313.545 337.59 311.2C341.06 307.5 341.98 299.64 337.59 295.02C333.2 290.4 329.73 285.94 326.27 282.25C322.81 278.56 319.57 274.62 312.64 273.7C305.71 272.78 302 275.54 311.49 280.4Z" fill="#263238" stroke="#263238" stroke-linecap="round" stroke-linejoin="round"/>
<path d="M338.47 304.25C338.707 305.604 338.754 306.983 338.61 308.35" stroke="white" stroke-linecap="round" stroke-linejoin="round"/>
<path d="M314.72 287.69C314.72 287.69 300.54 289.07 305.9 291.78C311.26 294.49 319.46 289.42 329.79 293.5C331.53 294.133 333.119 295.121 334.455 296.402C335.791 297.683 336.845 299.229 337.55 300.94" stroke="white" stroke-linecap="round" stroke-linejoin="round"/>
<path d="M323.33 298.45C323.33 298.45 333.02 303.19 334.33 310.07" stroke="white" stroke-linecap="round" stroke-linejoin="round"/>
<path d="M304.56 324.3C304.56 324.3 315.65 323.6 318.65 321.06" stroke="#263238" stroke-linecap="round" stroke-linejoin="round"/>
<path d="M293.93 299.34C293.93 299.34 310.8 299.11 320.27 301.19C320.27 301.19 318.61 306.66 315.84 308.51C313.07 310.36 308.26 309.05 307.1 308.12C305.94 307.19 305.02 301.65 305.02 301.65H303.17L302.25 304.43C302.25 304.43 301.55 308.12 299.01 308.12C296.47 308.12 293.93 307.66 293.93 299.34Z" fill="#FFC973" stroke="#263238" stroke-linecap="round" stroke-linejoin="round"/>
<path d="M302.73 303C299.933 302.147 296.949 302.126 294.14 302.94C294.8 307.8 296.9 308.13 299.01 308.13C301.55 308.13 302.25 304.44 302.25 304.44L302.73 303Z" fill="#263238" stroke="#263238" stroke-linecap="round" stroke-linejoin="round"/>
<path d="M318.59 305.14C314.42 301.29 310.23 305.05 305.5 304.01C305.88 305.64 306.45 307.61 307.1 308.12C308.26 309.05 313.1 310.36 315.84 308.51C316.999 307.608 317.939 306.456 318.59 305.14Z" fill="#263238" stroke="#263238" stroke-linecap="round" stroke-linejoin="round"/>
<path d="M320.27 301.19L330.76 317.37L329.74 316.97L319.3 303.98L320.27 301.19Z" fill="#FFC973" stroke="#263238" stroke-linecap="round" stroke-linejoin="round"/>
<path d="M301.09 315.06C301.09 315.06 309.18 317.37 311.49 312.51" stroke="#263238" stroke-linecap="round" stroke-linejoin="round"/>
<path d="M310.1 311.59L313.57 312.98" stroke="#263238" stroke-linecap="round" stroke-linejoin="round"/>
<path d="M303.63 304.43C303.63 304.43 296.47 305.35 296.47 306.51C296.47 307.67 301.09 310.9 301.09 310.9" fill="white"/>
<path d="M303.63 304.43C303.63 304.43 296.47 305.35 296.47 306.51C296.47 307.67 301.09 310.9 301.09 310.9" stroke="#263238" stroke-linecap="round" stroke-linejoin="round"/>
<path d="M302.71 328.23C302.225 328.202 301.741 328.292 301.298 328.492C300.856 328.692 300.469 328.997 300.17 329.38C298.78 330.77 295.6 336.24 294.78 338.38C293.3 342.31 298.5 349.38 303.86 346.91C306.52 345.71 307.18 346.76 310.19 343.06C313.2 339.36 313.8 336.51 313.8 335.36C313.8 334.21 315.88 334.2 311.49 336.28C307.1 338.36 298.32 334.93 302.71 328.23Z" fill="#263238" stroke="#263238" stroke-linecap="round" stroke-linejoin="round"/>
<path d="M157 250.94C155.616 251.524 154.431 252.495 153.586 253.737C152.742 254.979 152.274 256.439 152.24 257.94C150.934 256.732 149.254 256.007 147.479 255.888C145.704 255.768 143.942 256.26 142.486 257.283C141.03 258.305 139.968 259.795 139.477 261.505C138.987 263.215 139.097 265.042 139.79 266.68C141.79 271.35 146.79 273.42 151.26 274.68C153.26 275.24 155.26 275.68 157.33 276.19C157.59 276.19 160.14 276.84 160.14 276.84C160.14 276.84 161.58 274.57 161.73 274.34C162.83 272.57 163.9 270.77 164.9 268.94C167.15 264.82 169.16 259.81 167.2 255.14C166.806 254.195 166.23 253.336 165.504 252.613C164.778 251.89 163.917 251.318 162.97 250.928C162.023 250.538 161.008 250.338 159.984 250.34C158.959 250.342 157.946 250.546 157 250.94Z" fill="#263238"/>
<path d="M201.53 270C200.129 269.484 198.609 269.382 197.151 269.707C195.694 270.031 194.36 270.768 193.31 271.83C193.177 270.058 192.441 268.386 191.225 267.091C190.009 265.795 188.386 264.955 186.627 264.71C184.867 264.464 183.076 264.828 181.553 265.742C180.029 266.655 178.863 268.063 178.25 269.73C176.5 274.48 178.73 279.39 181.17 283.41C182.25 285.19 183.4 286.93 184.58 288.65L186.19 291.05C186.19 291.05 188.8 290.37 189.06 290.3C191.06 289.75 193.06 289.17 195.06 288.52C199.52 287.04 204.41 284.75 206.16 280C206.514 279.04 206.676 278.019 206.635 276.996C206.594 275.973 206.351 274.968 205.921 274.039C205.491 273.11 204.881 272.275 204.128 271.582C203.375 270.889 202.492 270.351 201.53 270Z" fill="#263238"/>
<path d="M197 266C197.213 265.981 197.427 265.981 197.64 266C198.295 266 198.923 265.74 199.387 265.277C199.85 264.813 200.11 264.185 200.11 263.53C200.11 262.875 199.85 262.247 199.387 261.784C198.923 261.32 198.295 261.06 197.64 261.06H188.28C188.28 261.06 188.86 257.68 188.86 256.52C188.86 255.36 189.44 253.63 187.86 251.41C186.28 249.19 182.72 250 182.72 250L183.27 254.58C183.351 255.304 183.211 256.036 182.87 256.68L178.67 264.57L176.74 266.21L176.16 275.96C177.41 278.96 181.37 279.96 181.37 279.96H194C194.676 279.976 195.33 279.725 195.821 279.26C196.312 278.795 196.599 278.156 196.62 277.48C196.614 277.062 196.501 276.653 196.293 276.291C196.085 275.929 195.788 275.626 195.43 275.41C195.59 275.425 195.751 275.425 195.91 275.41C196.585 275.429 197.239 275.18 197.731 274.717C198.222 274.254 198.509 273.615 198.53 272.94C198.526 272.527 198.418 272.121 198.215 271.761C198.012 271.401 197.722 271.098 197.37 270.88C197.964 270.802 198.509 270.514 198.909 270.068C199.309 269.622 199.536 269.049 199.55 268.45C199.524 267.791 199.244 267.168 198.769 266.711C198.293 266.255 197.659 266 197 266Z" fill="white"/>
<path d="M194 280.26H181.28C181.11 280.26 177.12 279.26 175.8 276.08C175.791 276.024 175.791 275.966 175.8 275.91L176.38 266.16C176.389 266.055 176.44 265.958 176.52 265.89L178.39 264.29L182.56 256.47C182.869 255.898 182.991 255.245 182.91 254.6L182.34 250C182.33 249.907 182.354 249.813 182.407 249.736C182.46 249.659 182.539 249.604 182.63 249.58C182.79 249.58 186.48 248.68 188.15 251.09C188.626 251.751 188.967 252.499 189.152 253.292C189.337 254.085 189.364 254.907 189.23 255.71C189.23 255.97 189.23 256.21 189.23 256.42C189.138 257.812 188.968 259.197 188.72 260.57H197.62C197.663 260.56 197.707 260.56 197.75 260.57C198.508 260.578 199.234 260.879 199.775 261.41C200.316 261.942 200.629 262.662 200.65 263.42C200.642 264.004 200.455 264.572 200.116 265.047C199.776 265.522 199.3 265.883 198.75 266.08C199.133 266.334 199.447 266.679 199.665 267.084C199.883 267.488 199.998 267.94 200 268.4C199.995 268.958 199.825 269.503 199.512 269.965C199.199 270.428 198.757 270.788 198.24 271C198.722 271.511 198.991 272.187 198.99 272.89C198.976 273.578 198.717 274.238 198.261 274.752C197.805 275.267 197.181 275.603 196.5 275.7C196.87 276.182 197.071 276.772 197.07 277.38C197.062 277.772 196.976 278.159 196.817 278.517C196.658 278.876 196.428 279.199 196.142 279.467C195.856 279.736 195.519 279.944 195.151 280.08C194.783 280.216 194.392 280.277 194 280.26ZM181.39 279.48H194C194.572 279.496 195.128 279.286 195.545 278.894C195.963 278.503 196.209 277.962 196.23 277.39C196.226 277.039 196.131 276.695 195.956 276.39C195.781 276.085 195.531 275.831 195.23 275.65C195.155 275.603 195.099 275.532 195.069 275.448C195.04 275.364 195.041 275.274 195.07 275.19C195.101 275.105 195.162 275.033 195.24 274.988C195.319 274.942 195.41 274.925 195.5 274.94C195.64 274.954 195.78 274.954 195.92 274.94C196.204 274.951 196.487 274.905 196.753 274.807C197.019 274.708 197.263 274.558 197.471 274.364C197.679 274.171 197.847 273.939 197.965 273.681C198.084 273.423 198.15 273.144 198.16 272.86C198.154 272.511 198.059 272.168 197.884 271.866C197.709 271.563 197.46 271.31 197.16 271.13C197.093 271.087 197.039 271.026 197.007 270.953C196.975 270.88 196.966 270.799 196.98 270.72C197 270.645 197.04 270.577 197.097 270.524C197.153 270.471 197.224 270.435 197.3 270.42C197.794 270.355 198.249 270.12 198.587 269.755C198.925 269.389 199.124 268.917 199.15 268.42C199.129 267.848 198.883 267.307 198.465 266.916C198.048 266.524 197.492 266.314 196.92 266.33C196.82 266.325 196.726 266.282 196.657 266.209C196.588 266.136 196.55 266.04 196.55 265.94C196.55 265.53 196.9 265.53 197.55 265.53C197.836 265.55 198.123 265.511 198.393 265.415C198.663 265.319 198.911 265.169 199.12 264.973C199.33 264.778 199.497 264.541 199.611 264.278C199.726 264.015 199.785 263.732 199.785 263.445C199.785 263.158 199.726 262.875 199.611 262.612C199.497 262.349 199.33 262.113 199.12 261.917C198.911 261.721 198.663 261.571 198.393 261.475C198.123 261.379 197.836 261.34 197.55 261.36H197.42H188.19C188.134 261.36 188.079 261.347 188.029 261.323C187.979 261.299 187.935 261.264 187.9 261.22C187.862 261.179 187.834 261.13 187.818 261.076C187.803 261.022 187.8 260.965 187.81 260.91C188.079 259.428 188.273 257.932 188.39 256.43C188.39 256.19 188.39 255.93 188.39 255.65C188.512 254.937 188.492 254.207 188.33 253.501C188.169 252.796 187.87 252.129 187.45 251.54C186.34 249.94 183.96 250.14 183.08 250.28L183.58 254.51C183.67 255.31 183.517 256.119 183.14 256.83L179 264.7C178.979 264.746 178.949 264.787 178.91 264.82L177.1 266.35L176.54 275.84C177.68 278.4 181 279.37 181.42 279.48H181.39Z" fill="#263238"/>
<path d="M175.76 262.59H169.84C168.658 262.59 167.7 263.548 167.7 264.73V279.27C167.7 280.452 168.658 281.41 169.84 281.41H175.76C176.942 281.41 177.9 280.452 177.9 279.27V264.73C177.9 263.548 176.942 262.59 175.76 262.59Z" fill="#263238"/>
<path d="M236.44 291.1L235.92 286.1C235.925 286.08 235.925 286.06 235.92 286.04L235.14 278.5H235.22C235.246 278.508 235.274 278.508 235.3 278.5C235.433 278.466 235.546 278.38 235.616 278.262C235.685 278.144 235.705 278.003 235.67 277.87C235.636 277.737 235.55 277.624 235.432 277.555C235.314 277.485 235.173 277.466 235.04 277.5L231 238.5C230.989 238.414 230.957 238.332 230.905 238.262C230.853 238.191 230.785 238.136 230.706 238.1C230.626 238.064 230.539 238.048 230.453 238.055C230.366 238.062 230.282 238.092 230.21 238.14C227.633 239.9 224.962 241.519 222.21 242.99L221.77 243.23L221.29 243.49C217.548 245.501 213.615 247.136 209.55 248.37L208.94 248.54C206.253 249.327 203.46 249.694 200.66 249.63C199.78 249.63 198.86 249.52 197.94 249.44L197.18 249.37C194.75 249.15 192.18 248.82 189.57 248.49L188.47 248.35L187.52 248.24C184.84 247.89 182.07 247.56 179.21 247.33H178.71H178.21C174.671 247.048 171.117 246.988 167.57 247.15H166.9H166.57C162.687 247.39 158.834 247.986 155.06 248.93L154.72 249.02H154.58L154.21 249.12H154.09L153.31 249.33C149.92 250.311 146.632 251.614 143.49 253.22L143.23 253.35L143.05 253.44L142.88 253.53L142.57 253.69C139.248 255.438 136.051 257.413 133 259.6L132.6 259.89L132.17 260.2C129.376 262.226 126.704 264.417 124.17 266.76L123.84 267.07L123.72 267.19L123.43 267.46C121.2 269.441 119.225 271.692 117.55 274.16C117.377 274.437 117.242 274.737 117.15 275.05C117.146 275.117 117.146 275.183 117.15 275.25C117.141 275.336 117.141 275.424 117.15 275.51C117.191 275.722 117.3 275.915 117.46 276.06C117.895 276.388 118.425 276.567 118.97 276.57C119.19 276.57 119.45 276.57 119.72 276.57H119.79C120.37 276.57 121.06 276.57 121.87 276.51H122.33L124.71 276.33L126.63 276.17C129.955 275.885 133.293 275.775 136.63 275.84L137.68 275.93L142 276.31C143.262 276.534 144.511 276.828 145.74 277.19L146.46 277.4C150.126 278.591 153.707 280.028 157.18 281.7L157.93 282.05C159.85 282.95 161.83 283.897 163.87 284.89C165.91 285.883 167.934 286.85 169.94 287.79L170.15 287.89L170.39 288C173.47 289.45 176.62 290.86 179.9 292.16L180.08 292.23L180.41 292.37L180.61 292.45L180.87 292.55C181.81 292.92 182.76 293.29 183.72 293.63C186.567 294.638 189.481 295.446 192.44 296.05H192.61L192.96 296.13L193.3 296.19H193.44C196.854 296.843 200.303 297.294 203.77 297.54H203.9H204.28H204.51H204.77C206.66 297.65 208.54 297.72 210.39 297.72C211.54 297.72 212.67 297.72 213.78 297.64H214.09H214.28C218.817 297.476 223.322 296.806 227.71 295.64L228.06 295.54H228.19L228.42 295.47L228.68 295.39C232.03 294.39 234.68 292.98 236.31 291.26C236.364 291.217 236.409 291.162 236.44 291.1ZM193.37 295.33L192.78 289.69C196.115 290.406 199.487 290.94 202.88 291.29L203.63 296.72C200.185 296.466 196.759 296.002 193.37 295.33ZM170.37 287.01L170.08 282.79C173.53 284.08 176.67 285.19 179.67 286.16L179.85 291.16C176.6 289.86 173.45 288.45 170.38 287L170.37 287.01ZM139.53 275.1C138.81 275.04 138.1 275.02 137.39 274.99L136.8 272.88C139.534 272.549 142.289 272.432 145.04 272.53L145.43 275.53H144.99H144.91C144 275.53 143.11 275.45 142.22 275.45C141.3 275.28 140.41 275.17 139.53 275.1ZM121.31 275.7C122.54 274.88 123.85 274.08 125.21 273.31L125.67 274.8L125.45 274.88H125.38L123.8 275.5C122.92 275.6 122.07 275.66 121.31 275.7ZM143.46 260.27C140.04 261.46 137.03 262.65 134.28 263.87L133.37 260.63C136.359 258.47 139.493 256.518 142.75 254.79L143.46 260.27ZM144.56 260.93C146.96 260.11 149.56 259.24 152.43 258.37C153.28 258.1 154.11 257.86 154.92 257.64L155.43 263.11C151.931 263.356 148.455 263.861 145.03 264.62L144.56 260.94V260.93ZM188.23 255.41L184.88 255C183.05 254.74 181.3 254.49 179.5 254.29L179.28 248.39C182.14 248.62 184.91 248.95 187.59 249.3L188.23 255.41ZM231.05 248.75L232.82 265.84C232.754 265.827 232.686 265.827 232.62 265.84C230.214 266.566 227.73 266.999 225.22 267.13L223.47 252.8C226.125 251.705 228.664 250.349 231.05 248.75ZM226.87 289.11C222.656 290.141 218.338 290.685 214 290.73L213 280.5H213.3C217.82 280.5 222.01 280.32 225.78 279.94L226.9 289.1L226.87 289.11ZM169.59 275.66L171.27 275.96C173.91 276.43 176.61 276.96 179.35 277.37L179.64 285.09C176.64 284.09 173.48 283 170.01 281.68L169.59 275.66ZM144.05 264.85C141.078 265.551 138.152 266.436 135.29 267.5L134.55 264.85C137.25 263.63 140.23 262.46 143.55 261.27L144.05 264.85ZM144.18 265.85L144.91 271.51C142.108 271.421 139.303 271.548 136.52 271.89L135.52 268.47C138.345 267.405 141.238 266.53 144.18 265.85ZM145.18 265.62C148.595 264.858 152.061 264.35 155.55 264.1L156.33 272.5C152.889 271.992 149.425 271.658 145.95 271.5L145.18 265.62ZM201.18 279.06C199.53 278.94 197.71 278.79 195.5 278.58C194.18 278.45 192.88 278.31 191.57 278.15L190.28 265.67C193.43 266.08 196.36 266.51 199.2 266.91H199.51L201.18 279.06ZM179.54 255.25C181.26 255.44 182.96 255.69 184.74 255.94L188.34 256.44L189.17 264.51C185.88 264.11 182.82 263.79 179.84 263.51L179.54 255.25ZM179.32 276.35C176.654 275.903 174.03 275.447 171.45 274.98L169.52 274.64L168.78 263.92C172.06 264 175.38 264.18 178.88 264.47L179.32 276.35ZM156.44 263L155.9 257.32C159.591 256.281 163.36 255.542 167.17 255.11L167.7 262.85C164.63 262.79 161.5 262.85 158.39 262.91C157.74 263 157.08 263 156.44 263ZM156.53 264C157.16 264 157.79 263.93 158.43 263.91C161.55 263.81 164.68 263.79 167.77 263.85L168.5 274.42C165.01 273.8 161.07 273.12 157.33 272.6L156.53 264ZM179.88 264.51C182.88 264.76 185.96 265.08 189.28 265.51L190.57 278C187.44 277.62 184.15 277.13 180.32 276.5L179.88 264.51ZM195.42 279.51C197.73 279.73 199.62 279.89 201.34 280L202.74 290.19C199.359 289.843 196 289.302 192.68 288.57L191.68 279.11C192.93 279.33 194.17 279.46 195.42 279.58V279.51ZM200.57 267.04C204.25 267.56 207.57 268.04 210.69 268.27L211.85 279.42C208.76 279.42 205.53 279.27 202.22 279.05L200.57 267.04ZM225.63 278.87C221.78 279.25 217.5 279.44 212.86 279.43L211.71 268.35C213.13 268.46 214.48 268.51 215.71 268.51C218.83 268.51 221.71 268.4 224.32 268.19L225.63 278.87ZM225.34 268.1C227.911 267.959 230.456 267.509 232.92 266.76L234.05 277.61H234C231.574 278.13 229.12 278.514 226.65 278.76L225.34 268.1ZM224.22 267.19C221.66 267.4 218.8 267.51 215.73 267.51C214.45 267.51 213.06 267.45 211.6 267.34L210.46 256.43C214.572 255.782 218.597 254.671 222.46 253.12L224.22 267.19ZM210.58 267.26C207.49 266.99 204.14 266.54 200.43 266.01L199.21 257.2H200.68C203.622 257.204 206.559 256.994 209.47 256.57L210.58 267.26ZM199.39 265.85C196.48 265.44 193.47 265 190.22 264.57L189.38 256.5C191.71 256.78 194.72 257.08 198.22 257.18L199.39 265.85ZM178.84 263.39C175.33 263.1 172.01 262.92 168.71 262.84L168.16 254.98C171.615 254.67 175.092 254.703 178.54 255.08L178.84 263.39ZM167.1 254.15C163.283 254.581 159.508 255.32 155.81 256.36L155.21 249.92C158.969 248.968 162.809 248.368 166.68 248.13L167.1 254.15ZM133.36 264.29C130.436 265.628 127.612 267.176 124.91 268.92L124.65 268.07L124.58 267.85C127.107 265.526 129.758 263.339 132.52 261.3L133.36 264.29ZM125.22 269.9C127.911 268.16 130.721 266.613 133.63 265.27L134.36 267.86C131.427 269.007 128.571 270.343 125.81 271.86L125.22 269.94V269.9ZM126.62 274.44L126.11 272.8C128.862 271.286 131.707 269.949 134.63 268.8L135.53 271.99C132.903 272.38 130.325 273.05 127.84 273.99L126.62 274.44ZM146.45 275.62L146.06 272.55C149.06 272.67 152.51 272.99 156.41 273.55L156.75 277.23C153.365 276.423 149.921 275.884 146.45 275.62ZM157.45 273.62C161.2 274.15 165.14 274.82 168.6 275.43L169 281.24L165.85 280.01C163.242 278.979 160.569 278.118 157.85 277.43L157.45 273.62ZM180.67 285.37L180.38 277.49C184.22 278.12 187.53 278.61 190.69 279L191.69 288.37C188.12 287.63 184.51 286.65 180.65 285.42L180.67 285.37ZM202.38 280.09C205.67 280.3 208.9 280.42 211.98 280.44L213 290.74C209.909 290.784 206.818 290.657 203.74 290.36L202.38 280.09ZM214.7 296.84L214.16 291.68C218.486 291.633 222.792 291.103 227 290.1L227.59 294.97C223.376 296.095 219.049 296.739 214.69 296.89L214.7 296.84ZM226.78 279.84C229.263 279.588 231.73 279.201 234.17 278.68L234.9 285.8L234.68 285.94C232.569 287.243 230.273 288.221 227.87 288.84L226.78 279.84ZM230.95 247.63L230.82 247.68L230.72 247.77C228.415 249.354 225.952 250.695 223.37 251.77L222.43 244.08C226.04 242.08 228.86 240.29 230.11 239.44L230.95 247.63ZM221.48 244.63L222.41 252.22C218.549 253.782 214.523 254.902 210.41 255.56L209.77 249.45C213.836 248.242 217.769 246.627 221.51 244.63H221.48ZM208.76 249.71L209.38 255.71C206.506 256.125 203.605 256.333 200.7 256.33H199.09L198.3 250.53C199.1 250.59 199.9 250.66 200.68 250.69C203.403 250.743 206.118 250.395 208.74 249.66L208.76 249.71ZM197.26 250.43L198.07 256.29C194.58 256.19 191.58 255.88 189.27 255.59L188.64 249.42L189.5 249.53C192.17 249.83 194.75 250.15 197.24 250.38L197.26 250.43ZM178.26 248.31L178.47 254.18C175.014 253.82 171.531 253.793 168.07 254.1L167.65 248.1C171.197 247.925 174.751 247.978 178.29 248.26L178.26 248.31ZM153.59 250.37L154.19 250.21L154.8 256.67C153.92 256.91 153.03 257.17 152.1 257.46C149.35 258.32 146.76 259.16 144.4 259.98L143.67 254.34C146.847 252.677 150.18 251.33 153.62 250.32L153.59 250.37ZM123.75 268.57L124.04 269.49C122.73 270.35 121.47 271.26 120.27 272.14C121.18 271.11 122.35 269.9 123.75 268.57ZM118.09 275.32C118.11 275.177 118.153 275.038 118.22 274.91L119.22 274.14C120.82 272.94 122.52 271.68 124.31 270.49L124.87 272.33C123.16 273.33 121.53 274.33 120.03 275.33C119.83 275.47 119.63 275.6 119.45 275.74C118.977 275.773 118.505 275.668 118.09 275.44C118.08 275.422 118.074 275.401 118.074 275.38C118.074 275.359 118.08 275.338 118.09 275.32ZM134.67 274.93C132.01 274.93 129.53 275.07 127.34 275.24L128.17 274.93C130.637 274.014 133.195 273.367 135.8 273L136.35 275L134.67 274.93ZM147.06 276.68H147.12C150.399 276.954 153.653 277.483 156.85 278.26L157.08 280.67C153.828 279.129 150.481 277.797 147.06 276.68ZM158.13 281.16L157.89 278.54C160.465 279.199 162.997 280.018 165.47 280.99L168.98 282.36H169.05L169.34 286.49C167.64 285.69 165.97 284.88 164.34 284.08C162.19 283.08 160.13 282.09 158.13 281.16ZM180.88 291.58L180.69 286.49C184.57 287.7 188.19 288.69 191.75 289.49L192.34 295.14C189.532 294.552 186.766 293.777 184.06 292.82C183 292.41 181.93 292 180.88 291.58ZM204.66 296.79L203.91 291.38C206.63 291.63 209.3 291.75 212.01 291.75H213.13L213.68 296.94C210.673 297.049 207.662 296.999 204.66 296.79ZM228.56 294.67L227.98 289.84C230.438 289.196 232.793 288.213 234.98 286.92L235.4 290.98C233.436 292.722 231.095 293.985 228.56 294.67Z" fill="#FFC973"/>
<path d="M229.6 235.36L241.06 337.49" stroke="#263238" stroke-width="3" stroke-linecap="round" stroke-linejoin="round"/>
<path d="M242.87 320.83C242.87 320.83 248.87 319.21 249.57 321.06C250.27 322.91 249.8 327.99 249.57 328.69C249.34 329.39 246.57 330.31 246.57 328.92C246.57 327.53 245 324.3 245 324.3L242.87 320.83Z" stroke="#263238" stroke-linecap="round" stroke-linejoin="round"/>
<path d="M256.27 376.75C257.246 375.307 257.859 373.651 258.06 371.921C258.26 370.19 258.04 368.438 257.42 366.81C255.34 361.04 246.56 351.1 243.33 345.32C240.1 339.54 242.17 340.01 242.17 340.01C242.17 340.01 245.17 338.62 245.41 337.01C245.65 335.4 246.56 325.22 246.56 323.6C246.56 321.98 238.71 318.75 235.47 318.29C232.23 317.83 233.39 320.83 234.32 327.76C235.25 334.69 236.63 354.1 237.78 360.81C238.93 367.52 240.56 374.67 246.56 378.13C252.56 381.59 256.27 376.75 256.27 376.75Z" fill="white" stroke="#263238" stroke-linecap="round" stroke-linejoin="round"/>
<path d="M234.09 324.07C234.09 324.07 235.7 322.68 236.86 322.68C238.02 322.68 245.86 325.68 245.86 325.68" stroke="#263238" stroke-linecap="round" stroke-linejoin="round"/>
<path d="M235.7 330.07C236.792 329.461 237.958 328.997 239.17 328.69C240.56 328.46 245.41 329.38 245.41 329.38" stroke="#263238" stroke-linecap="round" stroke-linejoin="round"/>
<path d="M238.48 333.08C238.807 332.745 239.205 332.488 239.644 332.327C240.084 332.166 240.554 332.105 241.02 332.15C242.447 332.239 243.851 332.553 245.18 333.08" stroke="#263238" stroke-linecap="round" stroke-linejoin="round"/>
<path d="M242.87 336.54L238.48 338.39" stroke="#263238" stroke-linecap="round" stroke-linejoin="round"/>
<path d="M241.27 338.07L250.17 418.59" stroke="#263238" stroke-width="3" stroke-linecap="round" stroke-linejoin="round"/>
<path d="M257.88 382.06C257.88 382.06 254.88 378.13 251.88 374.67C248.88 371.21 244.71 374.9 244.71 374.9C244.71 374.9 240.09 375.59 240.09 377.21C240.09 378.83 241.71 381.6 241.71 381.6C241.71 381.6 241.02 385.99 242.87 387.6C244.72 389.21 245.87 389.68 247.02 389.68C248.17 389.68 301.79 390.6 306.18 390.37C310.57 390.14 321.18 391.99 324.89 386.9C328.6 381.81 326.28 374.2 318.42 373.5C310.56 372.8 278.68 382.29 257.88 382.06Z" fill="white" stroke="#263238" stroke-linecap="round" stroke-linejoin="round"/>
</g>
<defs>
<clipPath id="clip0">
<rect width="500" height="500" fill="white"/>
</clipPath>
</defs>
</svg>
