<svg width="450" height="300" viewBox="0 0 450 300" fill="none" xmlns="http://www.w3.org/2000/svg">
<path d="M405.6 258.858C427.332 241.458 439.842 214.986 440.226 187.14C440.472 169.584 439.212 147.54 433.314 128.664C413.862 66.4259 358.914 32.6639 318.714 25.4639C278.514 18.2639 237.114 31.4639 205.914 52.4639C174.714 73.4639 177.714 69.8639 124.314 62.0639C70.9138 54.2639 27.1138 77.0639 12.7138 119.064C-1.68615 161.064 42.1138 184.866 46.9138 206.868C51.7138 228.87 43.3139 267.864 126.714 277.464C210.114 287.064 235.314 240.264 276.714 253.464C310.026 264.09 359.658 295.692 405.6 258.858Z" fill="#FFC973"/>
<path opacity="0.7" d="M405.6 258.858C427.332 241.458 439.842 214.986 440.226 187.14C440.472 169.584 439.212 147.54 433.314 128.664C413.862 66.4259 358.914 32.6639 318.714 25.4639C278.514 18.2639 237.114 31.4639 205.914 52.4639C174.714 73.4639 177.714 69.8639 124.314 62.0639C70.9138 54.2639 27.1138 77.0639 12.7138 119.064C-1.68615 161.064 42.1138 184.866 46.9138 206.868C51.7138 228.87 43.3139 267.864 126.714 277.464C210.114 287.064 235.314 240.264 276.714 253.464C310.026 264.09 359.658 295.692 405.6 258.858Z" fill="white"/>
<path d="M72.0838 46.836C71.2378 45.96 69.7678 45.15 67.2178 45.084C61.4878 44.946 63.0178 49.002 61.4878 49.98C59.9578 50.958 59.5318 49.422 57.9898 50.4C56.4478 51.378 57.1498 53.334 55.8958 53.616C54.6418 53.898 52.9618 52.356 51.4198 53.334C49.8778 54.312 49.8838 55.134 49.1818 55.134C48.4798 55.134 47.0878 54.576 46.2478 55.134C45.4078 55.692 44.4478 56.394 44.4478 56.394H59.4478" stroke="#263238" stroke-linecap="round" stroke-linejoin="round"/>
<path d="M73.6618 49.3385L73.2299 49.1405C73.1626 48.618 72.9869 48.1152 72.7139 47.6646" stroke="#263238" stroke-linecap="round" stroke-linejoin="round"/>
<path d="M61.3618 56.4007H79.7998C79.7998 56.4007 80.2198 55.1407 78.6838 54.3007C77.1478 53.4607 76.4458 54.1627 75.8878 53.4607C75.3298 52.7587 76.9978 51.3307 74.3938 49.7227" stroke="#263238" stroke-linecap="round" stroke-linejoin="round"/>
<path d="M245.19 91.8668C244.338 90.9848 242.868 90.1748 240.318 90.1148C234.588 89.9768 236.118 94.0268 234.588 95.0048C233.058 95.9828 232.632 94.4468 231.096 95.4248C229.56 96.4028 230.256 98.3648 228.996 98.6408C227.736 98.9168 226.062 97.3808 224.526 98.3648C222.99 99.3488 222.984 100.165 222.288 100.165C221.592 100.165 220.188 99.6068 219.354 100.165C218.52 100.723 217.554 101.425 217.554 101.425H232.554" stroke="#263238" stroke-linecap="round" stroke-linejoin="round"/>
<path d="M246.768 94.3683L246.33 94.1703C246.264 93.6475 246.088 93.1446 245.814 92.6943" stroke="#263238" stroke-linecap="round" stroke-linejoin="round"/>
<path d="M234.467 101.436H252.899C252.899 101.436 253.319 100.176 251.783 99.3421C250.247 98.5082 249.545 99.1981 248.987 98.5021C248.429 97.8061 250.097 96.3722 247.493 94.7642" stroke="#263238" stroke-linecap="round" stroke-linejoin="round"/>
<path d="M367.356 29.6706C365.832 28.0866 363.156 26.6286 358.584 26.5146C348.252 26.2626 351 33.6006 348.252 35.3346C345.504 37.0686 344.724 34.3266 341.952 36.0906C339.18 37.8546 340.44 41.3826 338.178 41.8866C335.916 42.3906 332.886 39.6006 330.114 41.4006C327.342 43.2006 327.342 44.6766 326.082 44.6766C324.822 44.6766 322.302 43.6686 320.79 44.6766C319.278 45.6846 317.514 46.9446 317.514 46.9446H344.568" stroke="#263238" stroke-linecap="round" stroke-linejoin="round"/>
<path d="M370.2 34.2006C369.954 34.0806 369.696 33.9606 369.42 33.8406C369.298 32.8997 368.981 31.9944 368.49 31.1826" stroke="#263238" stroke-linecap="round" stroke-linejoin="round"/>
<path d="M348.03 46.9265H381.258C381.258 46.9265 382.014 44.6585 379.242 43.1465C376.47 41.6345 375.216 42.8945 374.208 41.6345C373.308 40.5125 376.206 37.7945 371.514 34.8965" stroke="#263238" stroke-linecap="round" stroke-linejoin="round"/>
<path d="M166.878 56.4365H203.43C203.43 56.4365 204.678 52.6985 200.106 50.2085C195.534 47.7185 193.464 49.7945 191.802 47.7185C190.14 45.6425 196.374 40.2425 183.918 34.8485C183.918 34.8485 183.084 23.2205 166.062 22.8065C158.718 22.6265 155.394 24.7685 153.618 27.4925" stroke="#263238" stroke-linecap="round" stroke-linejoin="round"/>
<path d="M155.724 56.4365H161.808" stroke="#263238" stroke-linecap="round" stroke-linejoin="round"/>
<path d="M151.404 33.2285C150.882 34.9985 150.318 36.5285 149.04 37.3385C144.474 40.2425 143.232 35.6765 138.66 38.5865C134.088 41.4965 136.2 47.3045 132.438 48.1325C128.676 48.9605 123.714 44.4005 119.148 47.3045C114.582 50.2085 114.582 52.7045 112.506 52.7045C110.43 52.7045 106.278 51.0485 103.788 52.7045C101.298 54.3605 98.3877 56.4425 98.3877 56.4425H145.074" stroke="#263238" stroke-linecap="round" stroke-linejoin="round"/>
<path d="M395.016 160.194L416.418 116.97L422.844 120.15L421.314 96.2642L401.394 109.53L407.82 112.71L386.412 155.934" stroke="#263238" stroke-linecap="round" stroke-linejoin="round"/>
<path d="M384.576 94.5542L398.064 67.3142L402.114 69.3182L401.154 54.2642L388.596 62.6222L392.646 64.6262L379.158 91.8722" stroke="#263238" stroke-linecap="round" stroke-linejoin="round"/>
<path d="M246.498 47.6999C249.393 41.0559 254.789 35.8202 261.517 33.1274C268.245 30.4347 275.763 30.5018 282.442 33.3143C289.121 36.1267 294.423 41.458 297.198 48.1526C299.973 54.8471 299.999 62.3657 297.268 69.0788C294.538 75.7919 289.273 81.1586 282.613 84.0159C275.953 86.8732 268.435 86.9908 261.689 84.3433C254.943 81.6958 249.512 76.4965 246.573 69.8721C243.634 63.2477 243.424 55.732 245.988 48.9539" stroke="#263238" stroke-miterlimit="10"/>
<path d="M246.186 47.5859C249.113 40.8623 254.572 35.5631 261.379 32.8369C268.186 30.1108 275.794 30.1773 282.552 33.0222C289.311 35.867 294.676 41.261 297.485 48.0347C300.293 54.8085 300.319 62.4163 297.557 69.2089C294.794 76.0016 289.466 81.4318 282.727 84.3225C275.988 87.2132 268.381 87.3314 261.555 84.6516C254.729 81.9717 249.235 76.7097 246.262 70.0061C243.29 63.3026 243.079 55.6977 245.676 48.8399" stroke="#263238" stroke-width="0.5" stroke-miterlimit="10"/>
<path d="M253.47 50.3338C255.688 45.4333 259.743 41.6008 264.76 39.6625C269.778 37.7242 275.356 37.8355 280.293 39.9723C285.229 42.1092 289.128 46.1004 291.148 51.0854C293.169 56.0705 293.15 61.6499 291.094 66.6208C289.039 71.5916 285.113 75.5557 280.162 77.6581C275.211 79.7606 269.632 79.8331 264.627 77.86C259.623 75.8869 255.595 72.0263 253.412 67.1105C251.228 62.1947 251.063 56.6176 252.954 51.5818" stroke="#263238" stroke-miterlimit="10"/>
<path d="M253.158 50.2141C255.264 45.578 259.011 41.8845 263.676 39.8441C268.342 37.8037 273.597 37.5606 278.431 39.1614C283.265 40.7623 287.336 44.0942 289.862 48.516C292.387 52.9378 293.188 58.1373 292.111 63.1143C291.034 68.0912 288.154 72.4941 284.026 75.4758C279.899 78.4576 274.814 79.8077 269.751 79.2663C264.687 78.725 260.003 76.3305 256.599 72.5434C253.194 68.7564 251.311 63.8443 251.31 58.7521C251.305 56.2612 251.757 53.7904 252.642 51.4621" stroke="#263238" stroke-width="0.5" stroke-miterlimit="10"/>
<path d="M261.93 53.8264L262.056 53.5744C263.323 51.1595 265.431 49.2922 267.981 48.3252C270.531 47.3582 273.347 47.3584 275.897 48.3258C278.446 49.2932 280.554 51.1609 281.821 53.576C283.088 55.9911 283.426 58.7865 282.773 61.4343C282.119 64.082 280.519 66.3989 278.274 67.9472C276.029 69.4955 273.294 70.1681 270.587 69.838C267.88 69.5079 265.387 68.198 263.58 66.1555C261.773 64.1131 260.776 61.4796 260.778 58.7524C260.776 57.4055 261.02 56.0695 261.498 54.8104" stroke="#263238" stroke-width="0.5" stroke-miterlimit="10"/>
<path d="M262.542 53.7538H262.452L262.374 53.7238L262.062 53.6038L253.476 50.3638L253.164 50.2438L246.504 47.7298L246.192 47.6158L235.464 43.5658L235.992 39.6058C236.002 39.5332 235.988 39.4594 235.952 39.3955C235.917 39.3316 235.861 39.2811 235.794 39.2518L227.304 35.3998C227.243 35.3733 227.177 35.3649 227.111 35.3756C227.046 35.3863 226.986 35.4156 226.937 35.46C226.888 35.5044 226.853 35.562 226.836 35.6259C226.819 35.6897 226.821 35.757 226.842 35.8198L228.564 40.9198L227.298 40.4398C227.214 40.4024 227.123 40.3826 227.031 40.3816C226.938 40.3805 226.847 40.3983 226.762 40.4338C226.677 40.4693 226.6 40.5218 226.536 40.5881C226.472 40.6543 226.422 40.733 226.389 40.8192C226.356 40.9053 226.342 40.9973 226.346 41.0894C226.35 41.1815 226.373 41.2718 226.413 41.3548C226.453 41.4377 226.509 41.5117 226.579 41.572C226.649 41.6324 226.73 41.6779 226.818 41.7058L228.138 42.2038L224.178 45.2458C224.125 45.2862 224.086 45.3415 224.064 45.4045C224.043 45.4676 224.041 45.5355 224.058 45.5998C224.074 45.6636 224.109 45.7212 224.158 45.765C224.207 45.8089 224.269 45.837 224.334 45.8458L233.844 47.3098H233.892C233.96 47.3098 234.027 47.2892 234.084 47.2507C234.141 47.2121 234.185 47.1575 234.21 47.0938L235.104 44.8258L245.676 48.8158L245.988 48.9298L252.642 51.4378L252.954 51.5578L261.504 54.7858L261.816 54.8998L262.068 54.9958" stroke="#263238" stroke-miterlimit="10"/>
<path d="M262.362 53.7178H262.452H262.542L268.656 56.0278L269.328 54.0118C269.372 53.8778 269.457 53.761 269.571 53.6781C269.685 53.5952 269.823 53.5503 269.964 53.5498V53.5498C270.107 53.5524 270.246 53.6003 270.36 53.6865C270.474 53.7727 270.558 53.8929 270.6 54.0298L271.8 58.0018C271.846 58.1547 271.836 58.3187 271.774 58.4655C271.712 58.6123 271.6 58.7327 271.458 58.8058L268.398 60.3298C268.305 60.3769 268.202 60.4016 268.098 60.4018C267.935 60.4028 267.778 60.3453 267.654 60.2398C267.554 60.1509 267.482 60.035 267.447 59.9062C267.412 59.7773 267.415 59.641 267.456 59.5138L268.2 57.3478L262.068 55.0198C261.981 54.988 261.903 54.9367 261.84 54.8698" stroke="#263238" stroke-miterlimit="10"/>
<path d="M91.4275 125.076L96.8275 126.276L98.0755 120.804L92.8975 119.604C92.8975 119.454 92.8975 119.298 92.8975 119.142C92.9006 117.48 92.5658 115.835 91.9135 114.306L96.1135 110.958L92.6155 106.572L88.6195 109.8C87.2106 108.578 85.5427 107.692 83.7415 107.208V102H78.1315V107.028C76.2802 107.388 74.5369 108.17 73.0375 109.314L68.9755 106.074L65.4775 110.46L69.4435 113.622C68.603 115.285 68.1516 117.117 68.1235 118.98L62.9575 120.18L64.2055 125.652L69.2995 124.488C70.0722 126.13 71.1943 127.584 72.5875 128.748L70.1875 133.674L75.2455 136.11L77.5795 131.262C79.3034 131.687 81.0993 131.73 82.8415 131.388L85.2415 136.41L90.2995 133.974L87.9475 129.09C89.3832 128.018 90.5703 126.649 91.4275 125.076V125.076ZM74.9995 119.19C74.9995 118.101 75.3226 117.036 75.9278 116.13C76.533 115.224 77.3932 114.518 78.3997 114.101C79.4061 113.684 80.5136 113.575 81.5821 113.788C82.6505 114 83.6319 114.525 84.4022 115.295C85.1726 116.066 85.6971 117.047 85.9097 118.115C86.1222 119.184 86.0131 120.291 85.5962 121.298C85.1793 122.304 84.4734 123.164 83.5676 123.77C82.6618 124.375 81.5969 124.698 80.5075 124.698C79.7842 124.698 79.0679 124.556 78.3997 124.279C77.7314 124.002 77.1242 123.596 76.6128 123.085C76.1013 122.573 75.6956 121.966 75.4188 121.298C75.142 120.63 74.9995 119.913 74.9995 119.19V119.19Z" stroke="#263238" stroke-linecap="round" stroke-linejoin="round"/>
<path d="M418.878 180.96L422.532 181.794L423.378 178.086L419.868 177.282C419.868 177.18 419.868 177.072 419.868 176.97C419.87 175.843 419.646 174.727 419.208 173.688L422.052 171.42L419.652 168.42L417 170.616C416.046 169.788 414.915 169.189 413.694 168.864V165.318H409.86V168.72C408.606 168.968 407.426 169.499 406.41 170.274L403.656 168.078L401.256 171.078L403.944 173.22C403.377 174.337 403.071 175.568 403.05 176.82L399.6 177.6L400.446 181.308L403.902 180.522C404.425 181.635 405.185 182.619 406.128 183.408L404.52 186.744L407.946 188.394L409.53 185.106C410.173 185.268 410.834 185.35 411.498 185.352C412.033 185.349 412.568 185.297 413.094 185.196L414.732 188.598L418.164 186.948L416.568 183.642C417.517 182.92 418.304 182.006 418.878 180.96V180.96ZM407.742 177C407.742 176.262 407.961 175.541 408.371 174.927C408.781 174.313 409.364 173.835 410.045 173.552C410.727 173.27 411.478 173.196 412.202 173.34C412.926 173.484 413.591 173.84 414.113 174.361C414.635 174.883 414.99 175.548 415.134 176.272C415.278 176.996 415.204 177.747 414.922 178.429C414.639 179.11 414.161 179.693 413.547 180.103C412.933 180.513 412.212 180.732 411.474 180.732C410.484 180.732 409.535 180.339 408.835 179.639C408.135 178.939 407.742 177.99 407.742 177V177Z" stroke="#263238" stroke-linecap="round" stroke-linejoin="round"/>
<path d="M101.766 98.1841L106.194 99.1921L107.214 94.7041L102.966 93.7381C102.966 93.6121 102.966 93.4861 102.966 93.3601C102.974 92.0006 102.707 90.6535 102.18 89.4001L105.63 86.6521L102.762 83.0521L99.4618 85.6801C98.3049 84.6795 96.9368 83.9534 95.4598 83.5561V79.2661H90.8578V83.4001C89.3319 83.6944 87.8945 84.3371 86.6578 85.2781L83.3218 82.6201L80.4538 86.2201L83.7058 88.8121C83.0183 90.1756 82.6491 91.6773 82.6258 93.2041L78.3838 94.1761L79.4098 98.6641L83.6098 97.7101C84.2424 99.0567 85.1619 100.249 86.3038 101.202L84.3538 105.24L88.5058 107.238L90.4198 103.26C91.2051 103.454 92.0109 103.553 92.8198 103.554C93.4682 103.553 94.1151 103.491 94.7518 103.368L96.7318 107.484L100.884 105.486L98.9518 101.484C100.118 100.601 101.078 99.4751 101.766 98.1841V98.1841ZM88.2958 93.3841C88.2946 92.4903 88.5586 91.6162 89.0543 90.8724C89.55 90.1286 90.2552 89.5486 91.0807 89.2057C91.9061 88.8629 92.8147 88.7725 93.6915 88.9462C94.5683 89.1198 95.3739 89.5497 96.0064 90.1813C96.6388 90.8129 97.0697 91.6179 97.2445 92.4945C97.4193 93.3711 97.3302 94.2798 96.9884 95.1057C96.6467 95.9316 96.0676 96.6376 95.3245 97.1343C94.5814 97.631 93.7076 97.8961 92.8138 97.8961C92.219 97.8961 91.63 97.7787 91.0807 97.5505C90.5313 97.3223 90.0325 96.9879 89.6127 96.5665C89.1929 96.145 88.8605 95.6448 88.6345 95.0946C88.4085 94.5444 88.2934 93.9549 88.2958 93.3601V93.3841Z" stroke="#263238" stroke-linecap="round" stroke-linejoin="round"/>
<path d="M341.85 251.73C341.85 251.73 338.124 254.13 337.38 254.73C336.636 255.33 333.21 256.074 333.66 257.13C334.11 258.186 338.424 258.768 339.618 258.768C340.812 258.768 345.42 256.368 346.614 256.092C347.808 255.816 347.814 254.454 347.358 253.41C346.866 252.494 346.261 251.644 345.558 250.878L342.432 251.772L341.85 251.73Z" fill="white" stroke="#263238" stroke-linecap="round" stroke-linejoin="round"/>
<path d="M384.138 251.322C384.138 251.322 381.306 254.748 380.862 255.492C380.418 256.236 377.862 257.424 377.862 258.618C377.862 259.812 382.182 259.218 383.52 259.062C384.325 258.937 385.092 258.631 385.762 258.168C386.432 257.704 386.989 257.095 387.39 256.386C388.14 254.892 388.734 251.766 387.84 250.578C386.946 249.39 384.138 251.322 384.138 251.322Z" fill="white" stroke="#263238" stroke-linecap="round" stroke-linejoin="round"/>
<path d="M348.402 185.358L348.282 186.258L347.358 193.398C347.358 193.398 339.078 205.092 336.048 211.182C334.5 214.29 332.34 217.98 332.64 219.018L341.85 251.73C342.549 252.073 343.307 252.277 344.082 252.33C344.797 252.306 345.502 252.156 346.164 251.886L345.744 221.61L358.524 207.553L360.162 209.635C360.162 209.635 364.404 224.682 366.192 227.064C367.98 229.446 383.401 251.766 383.401 251.766C384.195 252.137 385.056 252.342 385.932 252.366C387.276 252.366 387.871 250.566 387.871 250.566C387.871 250.566 376.777 223.176 376.471 222.282C376.165 221.388 376.393 199.482 376.393 199.482L374.593 188.911L372.51 182.208C372.51 182.208 368.64 183.253 362.088 182.953C355.536 182.653 349.284 182.208 349.284 182.208L348.402 185.358Z" fill="#263238" stroke="#263238" stroke-linecap="round" stroke-linejoin="round"/>
<path d="M330.828 113.592C330.828 113.592 328.746 116.718 328.428 118.656C328.304 119.946 328.677 121.234 329.472 122.256L328.272 124.788C328.272 124.788 332.292 132.978 334.674 136.698C337.056 140.418 340.926 146.676 343.308 147.87C345.69 149.064 350.304 153.972 350.304 153.972L352.986 148.164C352.986 148.164 345.126 138.306 340.2 131.46C337.222 127.304 334.487 122.979 332.01 118.506C332.005 117.21 332.105 115.916 332.31 114.636C332.505 113.505 332.603 112.359 332.604 111.21L330.828 113.592Z" fill="#263238" stroke="#263238" stroke-linecap="round" stroke-linejoin="round"/>
<path d="M354.954 145.902C354.954 145.902 348.846 153.198 347.658 157.962C346.47 162.726 347.952 177.468 347.952 179.562C347.952 181.656 346.752 183.882 348.402 185.37C350.052 186.858 354.954 186.114 356.736 185.97C358.518 185.826 367.014 185.97 369.546 185.22C372.078 184.47 373.266 183.42 373.266 181.65C373.266 179.88 370.14 165.72 369.666 163.338C369.192 160.956 370.866 152.766 368.628 148.89C366.39 145.014 359.268 144.414 354.954 145.902Z" fill="white" stroke="#263238" stroke-linecap="round" stroke-linejoin="round"/>
<path d="M353.91 146.946C353.91 146.946 346.464 154.536 345.42 158.556C344.376 162.576 340.656 170.322 339.468 173.748C338.433 176.45 337.231 179.086 335.868 181.638L337.206 186.996L340.632 183.276C340.632 183.276 344.058 171.51 345.846 166.596C347.634 161.682 347.928 157.068 348.246 155.73C348.564 154.392 353.91 146.946 353.91 146.946Z" fill="#263238" stroke="#263238" stroke-linecap="round" stroke-linejoin="round"/>
<path d="M354.954 146.496C354.954 146.496 350.484 158.706 350.634 159.6C350.784 160.494 352.866 193.548 352.866 193.548C352.866 193.548 354.954 198.612 364.332 197.868C373.71 197.124 381 195.78 381 195.78C381 195.78 378.174 184.614 375.642 179.55C373.11 174.486 371.772 171.51 371.772 169.128C371.772 166.746 370.728 150.816 370.134 148.284C369.875 146.984 369.422 145.73 368.79 144.564L367.902 143.82L354.954 146.496Z" fill="#FFC973" stroke="#263238" stroke-linecap="round" stroke-linejoin="round"/>
<path d="M351.378 171.81L358.674 189.678C358.674 189.678 355.674 190.878 354.654 191.91C354.082 192.486 353.482 193.033 352.854 193.548L351.378 171.81Z" fill="#FFC973" stroke="#263238" stroke-linecap="round" stroke-linejoin="round"/>
<path d="M361.056 122.526C361.056 122.526 356.442 126.246 356.442 127.29C356.442 128.334 355.242 129.822 355.242 129.822C355.242 129.822 352.842 130.122 352.71 131.022C352.578 131.922 353.454 133.704 353.454 133.704C353.454 133.704 351.966 138.768 352.566 139.956C353.166 141.144 357.474 141.3 357.474 141.3L357.624 144.576L367.902 142.938L367.752 140.406C367.752 140.406 373.26 134.448 375.942 131.916C378.624 129.384 375.198 124.92 371.922 121.494C368.646 118.068 360.9 118.068 360.306 119.856C360.122 120.322 360.096 120.835 360.231 121.318C360.367 121.8 360.656 122.224 361.056 122.526Z" fill="white" stroke="#263238" stroke-linecap="round" stroke-linejoin="round"/>
<path d="M357.186 127.884C357.515 127.721 357.881 127.648 358.248 127.675C358.614 127.701 358.966 127.825 359.268 128.034" stroke="#263238" stroke-linecap="round" stroke-linejoin="round"/>
<path d="M357.342 130.032C357.228 130.512 357.3 130.944 357.498 130.986C357.696 131.028 357.954 130.686 358.068 130.206C358.182 129.726 358.11 129.3 357.912 129.252C357.714 129.204 357.456 129.552 357.342 130.032Z" fill="#263238"/>
<path d="M371.928 121.482C368.652 118.056 360.906 118.056 360.312 119.844C360.125 120.311 360.096 120.827 360.23 121.311C360.365 121.796 360.655 122.223 361.056 122.526C361.056 122.526 366.12 123.126 365.376 124.464C364.632 125.802 362.1 125.802 362.694 126.696C363.288 127.59 365.376 129.522 364.632 129.972C363.888 130.422 363.432 131.31 363.888 131.61C364.344 131.91 365.088 131.16 366.888 131.46C368.688 131.76 368.226 135.924 366.588 136.524C364.95 137.124 364.188 136.374 367.188 139.056C367.541 139.365 367.947 139.605 368.388 139.764C369.876 138.162 373.842 133.938 375.99 131.904C378.6 129.372 375.204 124.908 371.928 121.482Z" fill="#263238" stroke="#263238" stroke-linecap="round" stroke-linejoin="round"/>
<path d="M365.376 136.968L362.694 136.374L360.906 137.712" stroke="#263238" stroke-linecap="round" stroke-linejoin="round"/>
<path d="M368.502 141.138L354.804 144.858L353.91 147.69L370.14 144.714L368.502 141.138Z" fill="#FFC973" stroke="#263238" stroke-linecap="round" stroke-linejoin="round"/>
<path d="M333.96 118.056L333.51 114.93C333.51 114.93 334.848 110.616 334.848 109.572C334.848 108.528 333.81 106.146 333.81 105.552C333.81 104.958 332.916 104.064 332.61 105.252C332.304 106.44 331.716 110.91 331.716 110.91C331.716 110.91 329.784 114.186 329.916 115.824C330.048 117.462 331.548 120.888 331.548 120.888L334.23 119.25L333.96 118.056Z" fill="white" stroke="#263238" stroke-linecap="round" stroke-linejoin="round"/>
<path d="M335.892 120.444L333.96 118.056L330.384 120.888L332.466 124.464L335.892 120.444Z" fill="white" stroke="#263238" stroke-linecap="round" stroke-linejoin="round"/>
<path d="M368.352 151.116C367.365 148.619 365.515 146.559 363.138 145.308C360.607 144.067 357.966 143.062 355.249 142.308L334.999 119.232L330.979 123.252C330.979 123.252 339.469 140.97 341.107 143.946C342.745 146.922 361.65 167.346 361.65 167.346" fill="#FFC973"/>
<path d="M368.352 151.116C367.365 148.619 365.515 146.559 363.138 145.308C360.607 144.067 357.966 143.062 355.249 142.308L334.999 119.232L330.979 123.252C330.979 123.252 339.469 140.97 341.107 143.946C342.745 146.922 361.65 167.346 361.65 167.346" stroke="#263238" stroke-linecap="round" stroke-linejoin="round"/>
<path d="M191.814 248.664C191.814 248.664 188.964 252.714 188.364 254.964C187.764 257.214 187.914 260.214 189.414 259.914C190.914 259.614 194.364 255.864 194.664 254.814C194.964 253.764 196.014 248.964 196.014 248.964L192.414 248.664H191.814Z" fill="white" stroke="#263238" stroke-linecap="round" stroke-linejoin="round"/>
<path d="M243.264 251.214C243.264 251.214 243.264 255.414 244.164 256.014C245.064 256.614 251.214 259.164 253.014 259.314C254.814 259.464 255.414 259.164 254.364 257.064C253.314 254.964 247.314 250.914 247.314 250.914L243.264 251.214Z" fill="white" stroke="#263238" stroke-linecap="round" stroke-linejoin="round"/>
<path d="M206.364 180.264L202.914 194.814L201.114 222.114C201.114 222.114 194.514 233.514 193.914 237.714C193.314 241.914 191.364 250.464 191.364 250.464C191.364 250.464 194.064 251.664 194.514 251.664C194.964 251.664 200.364 243.864 203.364 240.864C206.364 237.864 213.114 224.964 213.414 224.364C213.714 223.764 218.514 204.714 218.814 204.114C219.114 203.514 220.914 202.764 220.914 202.764C220.914 202.764 229.95 215.754 231.042 216.846C232.788 218.592 235.614 223.014 235.614 223.014C235.614 223.014 241.764 247.464 242.214 248.664C242.54 249.788 242.741 250.945 242.814 252.114L248.364 253.314C248.364 253.314 248.814 236.964 248.514 233.064C248.214 229.164 247.014 220.764 247.014 220.764C247.014 220.764 237.864 195.714 237.414 195.114C236.964 194.514 234.264 188.514 234.264 188.514L233.364 182.814C228.088 184.292 222.536 184.498 217.164 183.414C208.164 181.614 206.364 180.264 206.364 180.264Z" fill="#263238" stroke="#263238" stroke-linecap="round" stroke-linejoin="round"/>
<path d="M214.842 139.59C211.584 141.745 208.202 143.706 204.714 145.464C200.112 147.666 199.014 149.868 199.014 150.966C199.014 152.064 195.012 170.268 195.312 171.264C195.612 172.26 198.312 173.766 200.016 174.168C201.72 174.57 204.114 174.066 204.612 173.664C205.11 173.262 206.712 166.464 206.712 166.464C206.712 166.464 205.812 178.764 205.416 180.366C205.02 181.968 208.716 186.066 212.316 186.768C215.916 187.47 225.612 187.464 228.114 186.666C230.616 185.868 232.314 185.664 233.112 184.164C233.91 182.664 234.414 171.966 234.516 171.264C234.618 170.562 235.416 164.166 235.416 164.166L238.014 172.968L239.016 174.768C239.016 174.768 239.514 173.664 242.616 171.864C245.718 170.064 246.714 169.866 246.714 169.866C246.714 169.866 244.914 163.968 243.816 160.566C242.718 157.164 241.614 150.966 240.216 148.464C238.818 145.962 236.316 144.864 232.914 142.764C229.512 140.664 224.514 139.464 223.914 139.164C223.314 138.864 217.968 138.42 214.842 139.59Z" fill="white" stroke="#263238" stroke-linecap="round" stroke-linejoin="round"/>
<path d="M206.712 166.464L208.824 159.15" stroke="#263238" stroke-linecap="round" stroke-linejoin="round"/>
<path d="M236.88 157.338L237.24 155.682" stroke="#263238" stroke-linecap="round" stroke-linejoin="round"/>
<path d="M235.416 164.166L236.562 158.838" stroke="#263238" stroke-linecap="round" stroke-linejoin="round"/>
<path d="M217.464 151.164L219.564 154.164L220.764 156.864L217.764 181.764L221.964 185.664L225.264 181.314L222.264 157.164L224.064 153.714L226.458 149.796L222.114 147.264L217.464 151.164Z" fill="#FFC973" stroke="#263238" stroke-linecap="round" stroke-linejoin="round"/>
<path d="M216 138.516C216 138.516 213.918 139.062 213.462 140.316C213.006 141.57 213.642 149.202 214.278 150.834C214.796 152.06 215.398 153.249 216.078 154.392C216.078 154.392 221.646 150.834 222.642 150.654C223.638 150.474 229.356 153.468 229.356 153.468C229.356 153.468 229.536 149.928 227.556 144.942C225.576 139.956 220.956 137.142 218.94 136.956C218.352 136.907 217.763 137.028 217.241 137.304C216.72 137.581 216.289 138.002 216 138.516Z" fill="white" stroke="#263238" stroke-linecap="round" stroke-linejoin="round"/>
<path d="M215.172 137.886C215.172 137.886 215.448 141.06 215.718 143.232C215.988 145.404 219.348 152.58 220.518 153.576C221.688 154.572 224.118 151.308 224.964 149.856C225.321 149.195 225.722 148.56 226.164 147.954C226.164 147.954 220.362 145.14 218.55 141.876C216.738 138.612 216.912 137.076 216.096 136.974C215.28 136.872 215.172 137.886 215.172 137.886Z" fill="white" stroke="#263238" stroke-linecap="round" stroke-linejoin="round"/>
<path d="M218.1 145.686L222.558 152.886C222.558 152.886 224.61 150.99 224.958 149.886C225.306 148.782 218.1 145.686 218.1 145.686Z" fill="#263238" stroke="#263238" stroke-linecap="round" stroke-linejoin="round"/>
<path d="M213.426 132.792C213.039 133.832 212.894 134.946 213 136.05C213.138 138.036 214.272 139.452 214.842 139.59C215.357 139.687 215.879 139.735 216.402 139.734C216.402 139.734 216.54 143.274 218.1 145.686C219.66 148.098 224.904 151.494 226.458 149.796C228.012 148.098 230.004 141.294 230.712 138.036C231.158 135.929 231.488 133.8 231.702 131.658L221.22 129.258L216.258 128.13L213.426 132.792Z" fill="white" stroke="#263238" stroke-linecap="round" stroke-linejoin="round"/>
<path d="M219.516 131.4C219.516 131.4 220.086 133.242 218.952 134.4C217.818 135.558 217.392 135.534 217.392 135.534C217.392 135.534 217.674 137.376 217.248 137.376C217.061 137.379 216.875 137.345 216.701 137.274C216.527 137.204 216.37 137.099 216.238 136.966C216.105 136.834 216.001 136.676 215.932 136.502C215.862 136.328 215.828 136.141 215.832 135.954C215.796 135.194 215.551 134.46 215.124 133.83L213.426 132.84C213.015 130.777 213.062 128.649 213.564 126.606C214.416 123.348 220.506 122.07 225.612 122.214C230.718 122.358 231.984 128.874 231.984 128.874C233.064 129.363 234.107 129.931 235.104 130.572C235.53 130.998 235.956 131.988 233.544 133.266C231.132 134.544 226.884 134.964 224.334 133.974C222.645 133.282 221.031 132.419 219.516 131.4Z" fill="#263238" stroke="#263238" stroke-linecap="round" stroke-linejoin="round"/>
<path d="M222.954 138.936C222.786 139.464 222.444 139.824 222.18 139.746C221.916 139.668 221.838 139.146 222 138.642C222.162 138.138 222.51 137.754 222.768 137.838C223.026 137.922 223.116 138.414 222.954 138.936Z" fill="#263238"/>
<path d="M228.846 139.392C228.684 139.92 228.336 140.28 228.078 140.196C227.82 140.112 227.73 139.596 227.892 139.098C228.054 138.6 228.402 138.21 228.666 138.288C228.93 138.366 229.008 138.864 228.846 139.392Z" fill="#263238"/>
<path d="M220.8 137.16C220.8 137.16 221.712 135.798 223.8 136.344" stroke="#263238" stroke-linecap="round" stroke-linejoin="round"/>
<path d="M227.238 136.974C227.424 136.797 227.644 136.661 227.885 136.574C228.126 136.488 228.383 136.452 228.638 136.469C228.894 136.487 229.143 136.557 229.37 136.676C229.597 136.795 229.796 136.96 229.956 137.16" stroke="#263238" stroke-linecap="round" stroke-linejoin="round"/>
<path d="M224.4 143.508C223.537 143.535 222.682 143.687 221.862 143.958C220.5 144.414 218.508 143.868 219.414 145.05C220.32 146.232 222.042 146.592 223.854 146.592C225.666 146.592 227.304 146.502 227.85 145.686C228.396 144.87 229.206 144.054 228.576 143.958C227.946 143.862 225.492 143.688 225.216 143.688C224.938 143.658 224.664 143.598 224.4 143.508Z" fill="#263238" stroke="#263238" stroke-linecap="round" stroke-linejoin="round"/>
<path d="M226.801 138.246C226.801 138.246 226.621 143.232 226.441 144.144C226.411 144.386 226.31 144.613 226.148 144.796C225.987 144.978 225.774 145.107 225.538 145.166C225.302 145.224 225.053 145.21 224.825 145.124C224.597 145.038 224.401 144.884 224.263 144.684C223.686 143.926 223.199 143.105 222.811 142.236" fill="white"/>
<path d="M226.801 138.246C226.801 138.246 226.621 143.232 226.441 144.144C226.411 144.386 226.31 144.613 226.148 144.796C225.987 144.978 225.774 145.107 225.538 145.166C225.302 145.224 225.053 145.21 224.825 145.124C224.597 145.038 224.401 144.884 224.263 144.684C223.686 143.926 223.199 143.105 222.811 142.236" stroke="#263238" stroke-linecap="round" stroke-linejoin="round"/>
<path d="M246.114 167.664C246.114 167.664 241.794 168.372 239.994 169.572C238.194 170.772 237.564 171.816 238.014 172.968C238.399 174.1 238.902 175.188 239.514 176.214C240.264 177.414 241.614 176.514 241.614 176.514C241.488 176.38 241.392 176.221 241.331 176.047C241.27 175.874 241.246 175.69 241.26 175.506C241.274 175.323 241.326 175.144 241.413 174.982C241.499 174.82 241.619 174.678 241.764 174.564C242.814 173.514 246.714 172.014 246.714 172.014H248.064C248.664 172.014 248.064 170.364 247.614 169.614C247.164 168.864 247.164 167.364 246.114 167.664Z" fill="white" stroke="#263238" stroke-linecap="round" stroke-linejoin="round"/>
<path d="M195.264 174.864C195.264 174.864 195.264 179.214 195.564 183.564C195.864 187.914 199.464 200.064 199.464 200.064L203.064 199.164C203.064 199.164 202.914 187.764 202.914 184.164C202.914 180.564 202.764 176.214 202.764 176.214L195.264 174.864Z" fill="white" stroke="#263238" stroke-linecap="round" stroke-linejoin="round"/>
<path d="M194.611 171.834C194.633 171.646 194.704 171.467 194.817 171.315C194.93 171.163 195.081 171.044 195.254 170.968C195.427 170.892 195.618 170.863 195.806 170.883C195.994 170.904 196.173 170.973 196.327 171.084C197.314 171.74 198.439 172.16 199.615 172.314C201.05 172.569 202.515 172.615 203.965 172.452C204.11 172.433 204.258 172.45 204.394 172.503C204.531 172.555 204.653 172.641 204.747 172.753C204.842 172.864 204.908 172.998 204.938 173.142C204.968 173.285 204.961 173.434 204.919 173.574C204.541 174.816 203.971 176.508 203.515 176.964C202.765 177.714 199.165 177.714 197.365 177.114C195.565 176.514 195.115 176.064 194.665 174.564C194.486 173.664 194.468 172.74 194.611 171.834Z" fill="white" stroke="#263238" stroke-linecap="round" stroke-linejoin="round"/>
<path d="M264.564 186.564C264.906 185.473 265.527 184.491 266.364 183.714C267.714 182.514 268.314 182.214 266.964 182.064C265.614 181.914 263.964 184.014 263.964 184.014L264.564 186.564Z" fill="white" stroke="#263238" stroke-linecap="round" stroke-linejoin="round"/>
<path d="M241.614 176.514C242.53 177.436 243.595 178.196 244.764 178.764C247.014 179.964 258.264 186.114 258.264 186.114L262.314 183.714C262.314 183.714 256.014 180.864 253.164 177.864C250.314 174.864 248.064 172.014 248.064 172.014C248.064 172.014 240.564 172.464 241.614 176.514Z" fill="white" stroke="#263238" stroke-linecap="round" stroke-linejoin="round"/>
<path d="M256.314 184.464C256.314 184.464 256.914 187.614 257.964 187.764C259.014 187.914 264.115 187.464 264.565 186.564C265.015 185.664 265.315 182.514 264.565 182.364C263.814 182.214 256.314 184.464 256.314 184.464Z" fill="white" stroke="#263238" stroke-linecap="round" stroke-linejoin="round"/>
<path d="M199.92 203.712C199.214 202.812 198.285 202.111 197.226 201.678C195.54 201.036 194.874 200.964 196.086 200.346C197.298 199.728 199.578 201.114 199.578 201.114L199.92 203.712Z" fill="white" stroke="#263238" stroke-linecap="round" stroke-linejoin="round"/>
<path d="M206.892 198.834C206.892 198.834 207.444 201.99 206.514 202.5C205.584 203.01 200.658 204.39 199.914 203.7C199.17 203.01 197.778 200.172 198.432 199.77C199.086 199.368 206.892 198.834 206.892 198.834Z" fill="white" stroke="#263238" stroke-linecap="round" stroke-linejoin="round"/>
<path d="M55.2 222.54C55.2 222.54 55.722 220.65 55.734 220.53C55.938 219.096 55.482 216.216 54.024 215.508C53.7782 215.398 53.512 215.341 53.2427 215.34C52.9734 215.34 52.7071 215.396 52.461 215.505C52.2148 215.615 51.9944 215.774 51.814 215.974C51.6336 216.174 51.4973 216.41 51.414 216.666C51.024 217.74 51.522 219.066 52.104 219.96C52.8 221.028 55.2 222.54 55.2 222.54Z" fill="#263238"/>
<path d="M26.484 221.916C27.648 222.426 30.486 222.36 30.492 222.36C30.498 222.36 29.892 220.5 29.826 220.386C29.226 219.084 27.228 216.93 25.626 217.146C25.3607 217.19 25.1075 217.288 24.8829 217.436C24.6583 217.584 24.4673 217.777 24.3224 218.004C24.1775 218.23 24.0819 218.484 24.0419 218.75C24.0018 219.016 24.0182 219.287 24.09 219.546C24.354 220.656 25.494 221.484 26.484 221.916Z" fill="#263238"/>
<path d="M27.4682 230.148C28.6682 230.322 31.2062 229.59 31.4102 229.548C31.8251 230.999 32.3383 232.42 32.9462 233.802C33.2942 234.612 33.6722 235.41 34.0562 236.202C33.8282 235.86 33.6182 235.56 33.5822 235.518C32.6402 234.426 30.1682 232.872 28.6802 233.502C28.4356 233.614 28.2172 233.776 28.0394 233.978C27.8615 234.18 27.728 234.417 27.6477 234.674C27.5674 234.931 27.5419 235.202 27.573 235.469C27.6041 235.737 27.6911 235.994 27.8282 236.226C28.3802 237.228 29.7002 237.72 30.7682 237.876C31.8362 238.032 34.0262 237.45 34.5962 237.276C34.7522 237.582 34.8962 237.876 35.0522 238.194C35.7842 239.658 36.5282 241.116 37.2062 242.562C37.4462 243.072 37.6622 243.588 37.8842 244.098C37.6802 243.798 37.5002 243.546 37.4702 243.498C36.5282 242.406 34.0562 240.846 32.5682 241.482C32.3244 241.594 32.1068 241.756 31.9295 241.958C31.7522 242.159 31.6191 242.396 31.5388 242.652C31.4586 242.908 31.4329 243.178 31.4634 243.445C31.494 243.711 31.5801 243.969 31.7162 244.2C32.2682 245.196 33.5882 245.694 34.6562 245.85C35.7242 246.006 37.6982 245.478 38.3822 245.292C38.5922 245.82 38.8022 246.354 38.9822 246.876C39.0962 247.236 39.2282 247.578 39.3242 247.944C39.4202 248.31 39.5282 248.664 39.6242 249.018C39.7922 249.714 39.9662 250.422 40.1102 251.106C40.2182 251.574 40.3082 252.024 40.3982 252.48C40.1642 251.97 39.6902 250.98 39.6422 250.902C38.8682 249.702 36.6422 247.764 35.0942 248.16C34.8357 248.234 34.5956 248.361 34.3895 248.534C34.1835 248.706 34.0161 248.921 33.8984 249.162C33.7807 249.404 33.7152 249.668 33.7062 249.937C33.6972 250.205 33.7449 250.473 33.8462 250.722C34.2362 251.796 35.4662 252.486 36.4982 252.804C37.6322 253.152 40.1522 252.834 40.4642 252.804C40.6142 253.554 40.7522 254.286 40.8782 254.982C41.1302 256.428 41.3282 257.736 41.4782 258.852H42.5342C42.3542 257.694 42.1202 256.326 41.8202 254.802C41.6702 254.04 41.4902 253.224 41.3042 252.402C42.0623 252.098 42.8016 251.749 43.5182 251.358C44.3462 252.258 46.4702 253.308 46.7462 253.44C46.4582 254.148 46.1462 254.838 45.8882 255.486C45.3362 256.752 44.8082 257.886 44.3402 258.858H45.4802C45.8822 257.97 46.3202 256.962 46.7702 255.858C47.0642 255.138 47.3702 254.358 47.6702 253.56C47.9762 253.626 50.4662 254.13 51.6302 253.866C52.6802 253.632 53.9582 253.038 54.4322 251.994C54.551 251.755 54.6185 251.494 54.6303 251.227C54.6421 250.96 54.598 250.694 54.5008 250.445C54.4036 250.197 54.2555 249.971 54.066 249.783C53.8764 249.595 53.6497 249.449 53.4002 249.354C51.8702 248.838 49.5242 250.554 48.6662 251.754C48.6182 251.826 48.1502 252.63 47.8622 253.14C47.9882 252.816 48.1082 252.498 48.2282 252.162C48.4742 251.49 48.7022 250.818 48.9422 250.098L49.2662 249.024C49.3802 248.67 49.4522 248.28 49.5542 247.902C49.7642 247.026 49.9322 246.102 50.0822 245.22C50.6822 245.43 52.7522 246.162 53.8382 246.084C54.9242 246.006 56.2382 245.61 56.8862 244.656C57.0411 244.436 57.1478 244.186 57.1994 243.922C57.251 243.658 57.2463 243.386 57.1858 243.124C57.1252 242.861 57.01 242.615 56.8478 242.4C56.6856 242.186 56.4799 242.008 56.2442 241.878C54.8042 241.134 52.2242 242.478 51.2042 243.522C51.1382 243.588 50.4842 244.398 50.1362 244.854C50.2202 244.308 50.3102 243.762 50.3762 243.204C50.5742 241.602 50.7302 239.97 50.8862 238.344C50.9342 237.846 50.9882 237.348 51.0422 236.856C51.2462 236.934 53.7122 237.846 54.9242 237.762C56.0042 237.69 57.3542 237.294 57.9782 236.334C58.1328 236.114 58.2392 235.863 58.2904 235.599C58.3415 235.334 58.3364 235.062 58.2752 234.8C58.2141 234.538 58.0983 234.292 57.9354 234.077C57.7726 233.863 57.5664 233.685 57.3302 233.556C55.8962 232.812 53.3162 234.156 52.2902 235.2C52.2122 235.278 51.2762 236.454 51.0482 236.76C51.1682 235.668 51.2942 234.582 51.4562 233.514C51.668 232.058 51.9706 230.618 52.3622 229.2C52.4582 229.236 55.0262 230.208 56.2682 230.118C57.3422 230.046 58.6682 229.65 59.3162 228.69C59.4711 228.47 59.5778 228.22 59.6294 227.956C59.681 227.692 59.6763 227.42 59.6158 227.158C59.5552 226.895 59.44 226.649 59.2778 226.434C59.1156 226.22 58.9099 226.042 58.6742 225.912C57.2342 225.168 54.6602 226.512 53.6342 227.556C53.5682 227.628 52.8482 228.516 52.5182 228.948L52.4402 228.906C52.8823 227.505 53.4507 226.148 54.1382 224.85C54.5042 224.13 54.8942 223.458 55.2902 222.816C55.7522 223.05 57.8642 224.076 58.9922 224.118C60.1202 224.16 61.4522 223.92 62.1782 223.032C62.3562 222.83 62.4896 222.593 62.5696 222.336C62.6497 222.079 62.6747 221.808 62.643 221.541C62.6113 221.274 62.5236 221.016 62.3856 220.785C62.2477 220.554 62.0625 220.355 61.8422 220.2C60.4982 219.306 57.7802 220.386 56.6522 221.286C56.5922 221.334 56.0522 221.886 55.6142 222.318C55.7942 222.03 55.9802 221.718 56.1602 221.46C56.8382 220.44 57.5222 219.552 58.1342 218.766C58.4822 218.322 58.8062 217.926 59.1182 217.566C59.7182 217.566 61.9802 217.488 62.9762 217.02C63.9722 216.552 65.0762 215.7 65.3102 214.584C65.375 214.323 65.3841 214.051 65.3368 213.786C65.2895 213.522 65.187 213.27 65.0358 213.047C64.8847 212.825 64.6883 212.637 64.4596 212.495C64.2308 212.354 63.9748 212.262 63.7082 212.226C62.1002 212.052 60.1862 214.26 59.5982 215.58C59.5442 215.694 58.9562 217.572 58.9982 217.572H59.0342C58.7282 217.92 58.4042 218.292 58.0622 218.712C57.4622 219.486 56.7302 220.362 56.0282 221.376C55.2557 222.451 54.5504 223.574 53.9162 224.736C53.1985 226.035 52.5962 227.394 52.1162 228.798C52.1162 228.798 52.1162 228.798 52.1162 228.846C52.1162 228.372 52.1162 227.046 52.1162 226.944C51.9362 225.51 50.7302 222.852 49.1162 222.558C48.8506 222.515 48.579 222.53 48.3192 222.599C48.0594 222.669 47.8173 222.793 47.6088 222.963C47.4003 223.133 47.2301 223.345 47.1094 223.586C46.9886 223.826 46.9201 224.089 46.9082 224.358C46.8122 225.498 47.6402 226.638 48.4442 227.358C49.3502 228.168 51.8702 228.954 52.0442 229.014C51.5999 230.451 51.2511 231.917 51.0002 233.4C50.8502 234.264 50.7182 235.146 50.6042 236.022C50.6042 235.614 50.6042 235.248 50.6042 235.194C50.4182 233.766 49.2182 231.102 47.6042 230.808C47.3388 230.766 47.0675 230.781 46.8081 230.851C46.5487 230.922 46.307 231.046 46.0987 231.215C45.8904 231.385 45.7202 231.597 45.5992 231.837C45.4782 232.077 45.409 232.34 45.3962 232.608C45.3062 233.748 46.1282 234.888 46.9322 235.608C47.7362 236.328 49.8902 237.048 50.4542 237.234L50.3282 238.248C50.1362 239.874 49.9502 241.494 49.7282 243.078C49.6442 243.636 49.5422 244.182 49.4462 244.734C49.4462 244.368 49.4462 244.062 49.4462 244.014C49.2602 242.58 48.0602 239.922 46.4462 239.628C46.1806 239.585 45.909 239.599 45.6492 239.669C45.3894 239.739 45.1473 239.863 44.9388 240.033C44.7303 240.203 44.5601 240.415 44.4394 240.656C44.3186 240.896 44.2501 241.159 44.2382 241.428C44.1422 242.568 44.9702 243.708 45.7742 244.428C46.5782 245.148 48.5222 245.796 49.1942 246.018C49.0742 246.576 48.9602 247.134 48.8222 247.668C48.7142 248.034 48.6422 248.388 48.5162 248.748L48.1742 249.816C47.9282 250.482 47.6822 251.172 47.4302 251.82C47.2562 252.27 47.0822 252.696 46.9082 253.128C46.9982 252.57 47.1482 251.478 47.1482 251.388C47.1286 250.123 46.7857 248.883 46.1522 247.788C46.1642 247.646 46.1642 247.504 46.1522 247.362C46.119 247.095 46.03 246.838 45.8909 246.608C45.7518 246.378 45.5659 246.18 45.3451 246.027C45.1244 245.873 44.8738 245.768 44.6097 245.718C44.3455 245.668 44.0738 245.674 43.8122 245.736C42.2462 246.156 41.2562 248.904 41.1782 250.344C41.1782 250.428 41.2322 251.358 41.2802 251.946C41.1962 251.604 41.1242 251.274 41.0402 250.926C40.8782 250.23 40.6922 249.546 40.5002 248.808L40.1762 247.74C40.0742 247.38 39.9182 247.008 39.7982 246.642C39.4862 245.796 39.1322 244.956 38.7542 244.116C39.3542 243.972 41.5022 243.426 42.3542 242.76C43.2062 242.094 44.1182 241.032 44.1062 239.886C44.1136 239.614 44.0629 239.344 43.9576 239.093C43.8523 238.842 43.6947 238.617 43.4955 238.432C43.2962 238.247 43.0598 238.106 42.802 238.02C42.5441 237.933 42.2708 237.903 42.0002 237.93C40.3862 238.104 39.0002 240.672 38.7002 242.088C38.7002 242.172 38.5862 243.216 38.5442 243.786C38.3162 243.282 38.0882 242.778 37.8362 242.28C37.1162 240.828 36.3482 239.382 35.5802 237.942C35.3462 237.498 35.1182 237.054 34.8902 236.61C35.1062 236.562 37.6622 235.968 38.6282 235.23C39.4862 234.57 40.3922 233.496 40.3862 232.356C40.3934 232.085 40.343 231.816 40.2384 231.566C40.1338 231.316 39.9774 231.092 39.7794 230.907C39.5815 230.722 39.3466 230.581 39.0902 230.494C38.8339 230.406 38.5619 230.374 38.2922 230.4C36.6842 230.574 35.2922 233.136 34.9922 234.552C34.9922 234.66 34.8362 236.154 34.8242 236.538C34.3142 235.56 33.8162 234.582 33.3662 233.604C32.7575 232.275 32.2344 230.908 31.8002 229.512C31.9022 229.512 34.5782 228.912 35.5622 228.126C36.4202 227.466 37.3262 226.392 37.3202 225.252C37.3279 224.983 37.2787 224.715 37.1759 224.467C37.0731 224.218 36.919 223.994 36.7237 223.808C36.5284 223.623 36.2962 223.481 36.0423 223.392C35.7884 223.303 35.5185 223.268 35.2502 223.29C33.6422 223.464 32.2502 226.026 31.9562 227.442C31.9562 227.538 31.8302 228.678 31.7942 229.242H31.7042C31.2995 227.828 31.0223 226.38 30.8762 224.916C30.7862 224.112 30.7442 223.338 30.7262 222.588C31.2362 222.522 33.5582 222.216 34.5242 221.634C35.4902 221.052 36.4682 220.104 36.5882 218.964C36.6246 218.698 36.6045 218.427 36.5292 218.169C36.454 217.911 36.3253 217.672 36.1516 217.467C35.9778 217.262 35.7629 217.096 35.5208 216.98C35.2787 216.864 35.0148 216.8 34.7462 216.792C33.1262 216.792 31.4582 219.192 31.0082 220.554C31.0082 220.632 30.8222 221.418 30.7142 221.994C30.7142 221.652 30.7142 221.304 30.7142 220.974C30.7142 219.774 30.7982 218.634 30.8702 217.638C30.9182 217.074 30.9782 216.564 31.0322 216.09C31.5002 215.772 33.3722 214.446 33.9482 213.504C34.5242 212.562 34.9682 211.248 34.5482 210.186C34.4587 209.933 34.3167 209.701 34.1314 209.506C33.9461 209.312 33.7217 209.158 33.4731 209.056C33.2244 208.954 32.957 208.906 32.6883 208.915C32.4197 208.923 32.1559 208.988 31.9142 209.106C30.4742 209.85 30.1142 212.742 30.3362 214.17C30.3362 214.29 30.9002 216.18 30.9362 216.168C30.8702 216.624 30.8102 217.116 30.7502 217.656C30.6542 218.646 30.5522 219.768 30.5222 220.998C30.4723 222.321 30.5043 223.645 30.6182 224.964C30.7284 226.445 30.9734 227.913 31.3502 229.35V229.398C31.0922 228.996 30.3422 227.904 30.2762 227.826C29.3342 226.734 26.8622 225.174 25.3742 225.81C25.1298 225.921 24.9115 226.083 24.7337 226.285C24.5558 226.486 24.4224 226.723 24.342 226.979C24.2617 227.235 24.2362 227.506 24.2672 227.773C24.2983 228.04 24.3852 228.297 24.5222 228.528C25.0802 229.494 26.4002 229.992 27.4682 230.148Z" fill="#263238"/>
<path opacity="0.3" d="M26.484 221.916C27.648 222.426 30.486 222.36 30.492 222.36C30.498 222.36 29.892 220.5 29.826 220.386C29.226 219.084 27.228 216.93 25.626 217.146C25.3607 217.19 25.1075 217.288 24.8829 217.436C24.6583 217.584 24.4673 217.777 24.3224 218.004C24.1775 218.23 24.0819 218.484 24.0419 218.75C24.0018 219.016 24.0182 219.287 24.09 219.546C24.354 220.656 25.494 221.484 26.484 221.916Z" fill="#263238"/>
<path opacity="0.3" d="M55.2 222.54C55.2 222.54 55.722 220.65 55.734 220.53C55.938 219.096 55.482 216.216 54.024 215.508C53.7782 215.398 53.512 215.341 53.2427 215.34C52.9734 215.34 52.7071 215.396 52.461 215.505C52.2148 215.615 51.9944 215.774 51.814 215.974C51.6336 216.174 51.4973 216.41 51.414 216.666C51.024 217.74 51.522 219.066 52.104 219.96C52.8 221.028 55.2 222.54 55.2 222.54Z" fill="#263238"/>
<path opacity="0.3" d="M27.4682 230.148C28.6682 230.322 31.2062 229.59 31.4102 229.548C31.8251 230.999 32.3383 232.42 32.9462 233.802C33.2942 234.612 33.6722 235.41 34.0562 236.202C33.8282 235.86 33.6182 235.56 33.5822 235.518C32.6402 234.426 30.1682 232.872 28.6802 233.502C28.4356 233.614 28.2172 233.776 28.0394 233.978C27.8615 234.18 27.728 234.417 27.6477 234.674C27.5674 234.931 27.5419 235.202 27.573 235.469C27.6041 235.737 27.6911 235.994 27.8282 236.226C28.3802 237.228 29.7002 237.72 30.7682 237.876C31.8362 238.032 34.0262 237.45 34.5962 237.276C34.7522 237.582 34.8962 237.876 35.0522 238.194C35.7842 239.658 36.5282 241.116 37.2062 242.562C37.4462 243.072 37.6622 243.588 37.8842 244.098C37.6802 243.798 37.5002 243.546 37.4702 243.498C36.5282 242.406 34.0562 240.846 32.5682 241.482C32.3244 241.594 32.1068 241.756 31.9295 241.958C31.7522 242.159 31.6191 242.396 31.5388 242.652C31.4586 242.908 31.4329 243.178 31.4634 243.445C31.494 243.711 31.5801 243.969 31.7162 244.2C32.2682 245.196 33.5882 245.694 34.6562 245.85C35.7242 246.006 37.6982 245.478 38.3822 245.292C38.5922 245.82 38.8022 246.354 38.9822 246.876C39.0962 247.236 39.2282 247.578 39.3242 247.944C39.4202 248.31 39.5282 248.664 39.6242 249.018C39.7922 249.714 39.9662 250.422 40.1102 251.106C40.2182 251.574 40.3082 252.024 40.3982 252.48C40.1642 251.97 39.6902 250.98 39.6422 250.902C38.8682 249.702 36.6422 247.764 35.0942 248.16C34.8357 248.234 34.5956 248.361 34.3895 248.534C34.1835 248.706 34.0161 248.921 33.8984 249.162C33.7807 249.404 33.7152 249.668 33.7062 249.937C33.6972 250.205 33.7449 250.473 33.8462 250.722C34.2362 251.796 35.4662 252.486 36.4982 252.804C37.6322 253.152 40.1522 252.834 40.4642 252.804C40.6142 253.554 40.7522 254.286 40.8782 254.982C41.1302 256.428 41.3282 257.736 41.4782 258.852H42.5342C42.3542 257.694 42.1202 256.326 41.8202 254.802C41.6702 254.04 41.4902 253.224 41.3042 252.402C42.0623 252.098 42.8016 251.749 43.5182 251.358C44.3462 252.258 46.4702 253.308 46.7462 253.44C46.4582 254.148 46.1462 254.838 45.8882 255.486C45.3362 256.752 44.8082 257.886 44.3402 258.858H45.4802C45.8822 257.97 46.3202 256.962 46.7702 255.858C47.0642 255.138 47.3702 254.358 47.6702 253.56C47.9762 253.626 50.4662 254.13 51.6302 253.866C52.6802 253.632 53.9582 253.038 54.4322 251.994C54.551 251.755 54.6185 251.494 54.6303 251.227C54.6421 250.96 54.598 250.694 54.5008 250.445C54.4036 250.197 54.2555 249.971 54.066 249.783C53.8764 249.595 53.6497 249.449 53.4002 249.354C51.8702 248.838 49.5242 250.554 48.6662 251.754C48.6182 251.826 48.1502 252.63 47.8622 253.14C47.9882 252.816 48.1082 252.498 48.2282 252.162C48.4742 251.49 48.7022 250.818 48.9422 250.098L49.2662 249.024C49.3802 248.67 49.4522 248.28 49.5542 247.902C49.7642 247.026 49.9322 246.102 50.0822 245.22C50.6822 245.43 52.7522 246.162 53.8382 246.084C54.9242 246.006 56.2382 245.61 56.8862 244.656C57.0411 244.436 57.1478 244.186 57.1994 243.922C57.251 243.658 57.2463 243.386 57.1858 243.124C57.1252 242.861 57.01 242.615 56.8478 242.4C56.6856 242.186 56.4799 242.008 56.2442 241.878C54.8042 241.134 52.2242 242.478 51.2042 243.522C51.1382 243.588 50.4842 244.398 50.1362 244.854C50.2202 244.308 50.3102 243.762 50.3762 243.204C50.5742 241.602 50.7302 239.97 50.8862 238.344C50.9342 237.846 50.9882 237.348 51.0422 236.856C51.2462 236.934 53.7122 237.846 54.9242 237.762C56.0042 237.69 57.3542 237.294 57.9782 236.334C58.1328 236.114 58.2392 235.863 58.2904 235.599C58.3415 235.334 58.3364 235.062 58.2752 234.8C58.2141 234.538 58.0983 234.292 57.9354 234.077C57.7726 233.863 57.5664 233.685 57.3302 233.556C55.8962 232.812 53.3162 234.156 52.2902 235.2C52.2122 235.278 51.2762 236.454 51.0482 236.76C51.1682 235.668 51.2942 234.582 51.4562 233.514C51.668 232.058 51.9706 230.618 52.3622 229.2C52.4582 229.236 55.0262 230.208 56.2682 230.118C57.3422 230.046 58.6682 229.65 59.3162 228.69C59.4711 228.47 59.5778 228.22 59.6294 227.956C59.681 227.692 59.6763 227.42 59.6158 227.158C59.5552 226.895 59.44 226.649 59.2778 226.434C59.1156 226.22 58.9099 226.042 58.6742 225.912C57.2342 225.168 54.6602 226.512 53.6342 227.556C53.5682 227.628 52.8482 228.516 52.5182 228.948L52.4402 228.906C52.8823 227.505 53.4507 226.148 54.1382 224.85C54.5042 224.13 54.8942 223.458 55.2902 222.816C55.7522 223.05 57.8642 224.076 58.9922 224.118C60.1202 224.16 61.4522 223.92 62.1782 223.032C62.3562 222.83 62.4896 222.593 62.5696 222.336C62.6497 222.079 62.6747 221.808 62.643 221.541C62.6113 221.274 62.5236 221.016 62.3856 220.785C62.2477 220.554 62.0625 220.355 61.8422 220.2C60.4982 219.306 57.7802 220.386 56.6522 221.286C56.5922 221.334 56.0522 221.886 55.6142 222.318C55.7942 222.03 55.9802 221.718 56.1602 221.46C56.8382 220.44 57.5222 219.552 58.1342 218.766C58.4822 218.322 58.8062 217.926 59.1182 217.566C59.7182 217.566 61.9802 217.488 62.9762 217.02C63.9722 216.552 65.0762 215.7 65.3102 214.584C65.375 214.323 65.3841 214.051 65.3368 213.786C65.2895 213.522 65.187 213.27 65.0358 213.047C64.8847 212.825 64.6883 212.637 64.4596 212.495C64.2308 212.354 63.9748 212.262 63.7082 212.226C62.1002 212.052 60.1862 214.26 59.5982 215.58C59.5442 215.694 58.9562 217.572 58.9982 217.572H59.0342C58.7282 217.92 58.4042 218.292 58.0622 218.712C57.4622 219.486 56.7302 220.362 56.0282 221.376C55.2557 222.451 54.5504 223.574 53.9162 224.736C53.1985 226.035 52.5962 227.394 52.1162 228.798C52.1162 228.798 52.1162 228.798 52.1162 228.846C52.1162 228.372 52.1162 227.046 52.1162 226.944C51.9362 225.51 50.7302 222.852 49.1162 222.558C48.8506 222.515 48.579 222.53 48.3192 222.599C48.0594 222.669 47.8173 222.793 47.6088 222.963C47.4003 223.133 47.2301 223.345 47.1094 223.586C46.9886 223.826 46.9201 224.089 46.9082 224.358C46.8122 225.498 47.6402 226.638 48.4442 227.358C49.3502 228.168 51.8702 228.954 52.0442 229.014C51.5999 230.451 51.2511 231.917 51.0002 233.4C50.8502 234.264 50.7182 235.146 50.6042 236.022C50.6042 235.614 50.6042 235.248 50.6042 235.194C50.4182 233.766 49.2182 231.102 47.6042 230.808C47.3388 230.766 47.0675 230.781 46.8081 230.851C46.5487 230.922 46.307 231.046 46.0987 231.215C45.8904 231.385 45.7202 231.597 45.5992 231.837C45.4782 232.077 45.409 232.34 45.3962 232.608C45.3062 233.748 46.1282 234.888 46.9322 235.608C47.7362 236.328 49.8902 237.048 50.4542 237.234L50.3282 238.248C50.1362 239.874 49.9502 241.494 49.7282 243.078C49.6442 243.636 49.5422 244.182 49.4462 244.734C49.4462 244.368 49.4462 244.062 49.4462 244.014C49.2602 242.58 48.0602 239.922 46.4462 239.628C46.1806 239.585 45.909 239.599 45.6492 239.669C45.3894 239.739 45.1473 239.863 44.9388 240.033C44.7303 240.203 44.5601 240.415 44.4394 240.656C44.3186 240.896 44.2501 241.159 44.2382 241.428C44.1422 242.568 44.9702 243.708 45.7742 244.428C46.5782 245.148 48.5222 245.796 49.1942 246.018C49.0742 246.576 48.9602 247.134 48.8222 247.668C48.7142 248.034 48.6422 248.388 48.5162 248.748L48.1742 249.816C47.9282 250.482 47.6822 251.172 47.4302 251.82C47.2562 252.27 47.0822 252.696 46.9082 253.128C46.9982 252.57 47.1482 251.478 47.1482 251.388C47.1286 250.123 46.7857 248.883 46.1522 247.788C46.1642 247.646 46.1642 247.504 46.1522 247.362C46.119 247.095 46.03 246.838 45.8909 246.608C45.7518 246.378 45.5659 246.18 45.3451 246.027C45.1244 245.873 44.8738 245.768 44.6097 245.718C44.3455 245.668 44.0738 245.674 43.8122 245.736C42.2462 246.156 41.2562 248.904 41.1782 250.344C41.1782 250.428 41.2322 251.358 41.2802 251.946C41.1962 251.604 41.1242 251.274 41.0402 250.926C40.8782 250.23 40.6922 249.546 40.5002 248.808L40.1762 247.74C40.0742 247.38 39.9182 247.008 39.7982 246.642C39.4862 245.796 39.1322 244.956 38.7542 244.116C39.3542 243.972 41.5022 243.426 42.3542 242.76C43.2062 242.094 44.1182 241.032 44.1062 239.886C44.1136 239.614 44.0629 239.344 43.9576 239.093C43.8523 238.842 43.6947 238.617 43.4955 238.432C43.2962 238.247 43.0598 238.106 42.802 238.02C42.5441 237.933 42.2708 237.903 42.0002 237.93C40.3862 238.104 39.0002 240.672 38.7002 242.088C38.7002 242.172 38.5862 243.216 38.5442 243.786C38.3162 243.282 38.0882 242.778 37.8362 242.28C37.1162 240.828 36.3482 239.382 35.5802 237.942C35.3462 237.498 35.1182 237.054 34.8902 236.61C35.1062 236.562 37.6622 235.968 38.6282 235.23C39.4862 234.57 40.3922 233.496 40.3862 232.356C40.3934 232.085 40.343 231.816 40.2384 231.566C40.1338 231.316 39.9774 231.092 39.7794 230.907C39.5815 230.722 39.3466 230.581 39.0902 230.494C38.8339 230.406 38.5619 230.374 38.2922 230.4C36.6842 230.574 35.2922 233.136 34.9922 234.552C34.9922 234.66 34.8362 236.154 34.8242 236.538C34.3142 235.56 33.8162 234.582 33.3662 233.604C32.7575 232.275 32.2344 230.908 31.8002 229.512C31.9022 229.512 34.5782 228.912 35.5622 228.126C36.4202 227.466 37.3262 226.392 37.3202 225.252C37.3279 224.983 37.2787 224.715 37.1759 224.467C37.0731 224.218 36.919 223.994 36.7237 223.808C36.5284 223.623 36.2962 223.481 36.0423 223.392C35.7884 223.303 35.5185 223.268 35.2502 223.29C33.6422 223.464 32.2502 226.026 31.9562 227.442C31.9562 227.538 31.8302 228.678 31.7942 229.242H31.7042C31.2995 227.828 31.0223 226.38 30.8762 224.916C30.7862 224.112 30.7442 223.338 30.7262 222.588C31.2362 222.522 33.5582 222.216 34.5242 221.634C35.4902 221.052 36.4682 220.104 36.5882 218.964C36.6246 218.698 36.6045 218.427 36.5292 218.169C36.454 217.911 36.3253 217.672 36.1516 217.467C35.9778 217.262 35.7629 217.096 35.5208 216.98C35.2787 216.864 35.0148 216.8 34.7462 216.792C33.1262 216.792 31.4582 219.192 31.0082 220.554C31.0082 220.632 30.8222 221.418 30.7142 221.994C30.7142 221.652 30.7142 221.304 30.7142 220.974C30.7142 219.774 30.7982 218.634 30.8702 217.638C30.9182 217.074 30.9782 216.564 31.0322 216.09C31.5002 215.772 33.3722 214.446 33.9482 213.504C34.5242 212.562 34.9682 211.248 34.5482 210.186C34.4587 209.933 34.3167 209.701 34.1314 209.506C33.9461 209.312 33.7217 209.158 33.4731 209.056C33.2244 208.954 32.957 208.906 32.6883 208.915C32.4197 208.923 32.1559 208.988 31.9142 209.106C30.4742 209.85 30.1142 212.742 30.3362 214.17C30.3362 214.29 30.9002 216.18 30.9362 216.168C30.8702 216.624 30.8102 217.116 30.7502 217.656C30.6542 218.646 30.5522 219.768 30.5222 220.998C30.4723 222.321 30.5043 223.645 30.6182 224.964C30.7284 226.445 30.9734 227.913 31.3502 229.35V229.398C31.0922 228.996 30.3422 227.904 30.2762 227.826C29.3342 226.734 26.8622 225.174 25.3742 225.81C25.1298 225.921 24.9115 226.083 24.7337 226.285C24.5558 226.486 24.4224 226.723 24.342 226.979C24.2617 227.235 24.2362 227.506 24.2672 227.773C24.2983 228.04 24.3852 228.297 24.5222 228.528C25.0802 229.494 26.4002 229.992 27.4682 230.148Z" fill="#263238"/>
<path d="M419.592 222.54C419.592 222.54 420.108 220.65 420.126 220.53C420.324 219.096 419.868 216.216 418.41 215.508C418.164 215.398 417.898 215.341 417.629 215.34C417.36 215.34 417.093 215.396 416.847 215.505C416.601 215.615 416.381 215.774 416.2 215.974C416.02 216.174 415.883 216.41 415.8 216.666C415.41 217.74 415.908 219.066 416.496 219.96C417.18 221.028 419.586 222.54 419.592 222.54Z" fill="#263238"/>
<path d="M390.846 221.916C392.01 222.426 394.848 222.36 394.854 222.36C394.86 222.36 394.254 220.5 394.188 220.386C393.588 219.084 391.596 216.93 389.988 217.146C389.723 217.19 389.47 217.288 389.245 217.436C389.021 217.584 388.83 217.777 388.685 218.004C388.54 218.23 388.444 218.484 388.404 218.75C388.364 219.016 388.381 219.287 388.452 219.546C388.716 220.656 389.856 221.484 390.846 221.916Z" fill="#263238"/>
<path d="M391.83 230.148C393.03 230.322 395.568 229.59 395.772 229.548C396.19 230.998 396.703 232.419 397.308 233.802C397.656 234.612 398.034 235.41 398.424 236.202L397.95 235.518C397.002 234.426 394.53 232.872 393.042 233.502C392.798 233.614 392.58 233.777 392.403 233.979C392.226 234.181 392.092 234.418 392.012 234.675C391.932 234.931 391.906 235.202 391.937 235.469C391.967 235.736 392.054 235.994 392.19 236.226C392.742 237.228 394.062 237.72 395.13 237.876C396.198 238.032 398.388 237.45 398.964 237.276L399.414 238.194C400.146 239.658 400.89 241.116 401.568 242.562C401.808 243.072 402.03 243.588 402.246 244.098C402.042 243.798 401.868 243.546 401.838 243.498C400.89 242.406 398.418 240.846 396.93 241.482C396.685 241.594 396.467 241.756 396.289 241.958C396.111 242.16 395.978 242.397 395.897 242.654C395.817 242.911 395.792 243.182 395.823 243.449C395.854 243.716 395.941 243.974 396.078 244.206C396.63 245.202 397.95 245.7 399.018 245.856C400.086 246.012 402.066 245.484 402.744 245.298C402.954 245.826 403.164 246.36 403.344 246.882C403.458 247.242 403.596 247.584 403.686 247.95C403.776 248.316 403.89 248.67 403.986 249.024C404.154 249.72 404.328 250.428 404.472 251.112C404.58 251.58 404.67 252.03 404.76 252.486C404.532 251.976 404.052 250.986 404.004 250.908C403.236 249.708 401.004 247.77 399.456 248.166C399.197 248.239 398.957 248.367 398.751 248.539C398.545 248.712 398.378 248.926 398.26 249.168C398.142 249.41 398.077 249.674 398.068 249.942C398.059 250.211 398.107 250.479 398.208 250.728C398.598 251.802 399.828 252.492 400.86 252.81C401.994 253.158 404.514 252.84 404.826 252.81C404.976 253.56 405.12 254.292 405.24 254.988C405.492 256.434 405.69 257.742 405.84 258.858H406.896C406.716 257.7 406.482 256.332 406.182 254.808C406.032 254.046 405.858 253.23 405.666 252.408C406.424 252.104 407.163 251.755 407.88 251.364C408.708 252.264 410.832 253.314 411.108 253.446C410.82 254.154 410.508 254.844 410.25 255.492C409.698 256.758 409.176 257.892 408.702 258.864H409.848C410.244 257.976 410.682 256.968 411.132 255.864C411.432 255.144 411.732 254.364 412.032 253.566C412.338 253.632 414.828 254.136 415.992 253.872C417.048 253.638 418.32 253.044 418.794 252C418.913 251.758 418.98 251.495 418.99 251.226C419.001 250.957 418.954 250.689 418.854 250.439C418.754 250.19 418.602 249.964 418.409 249.777C418.215 249.59 417.985 249.446 417.732 249.354C416.202 248.838 413.856 250.554 412.998 251.754C412.95 251.826 412.482 252.63 412.194 253.14C412.32 252.816 412.44 252.498 412.56 252.162C412.806 251.49 413.034 250.818 413.274 250.098L413.598 249.024C413.712 248.67 413.79 248.28 413.886 247.902C414.096 247.026 414.264 246.102 414.414 245.22C415.014 245.43 417.09 246.162 418.17 246.084C419.25 246.006 420.57 245.61 421.218 244.656C421.373 244.436 421.48 244.185 421.531 243.921C421.583 243.657 421.578 243.385 421.518 243.123C421.457 242.861 421.342 242.615 421.18 242.4C421.017 242.185 420.812 242.007 420.576 241.878C419.136 241.134 416.556 242.478 415.536 243.522C415.47 243.588 414.816 244.398 414.468 244.854C414.552 244.308 414.642 243.762 414.708 243.204C414.912 241.602 415.062 239.97 415.218 238.344C415.266 237.846 415.32 237.348 415.374 236.856C415.584 236.934 418.044 237.846 419.256 237.762C420.336 237.69 421.656 237.294 422.31 236.334C422.464 236.113 422.57 235.863 422.621 235.599C422.672 235.335 422.667 235.064 422.607 234.802C422.546 234.54 422.431 234.294 422.27 234.079C422.108 233.864 421.903 233.686 421.668 233.556C420.228 232.812 417.648 234.156 416.622 235.2C416.544 235.278 415.608 236.454 415.386 236.76C415.5 235.668 415.626 234.582 415.794 233.514C416.012 232.069 416.323 230.64 416.724 229.236C416.82 229.272 419.388 230.244 420.63 230.154C421.71 230.082 423.06 229.686 423.684 228.726C423.838 228.505 423.943 228.254 423.994 227.99C424.045 227.726 424.039 227.454 423.978 227.192C423.917 226.931 423.802 226.684 423.639 226.47C423.477 226.256 423.271 226.078 423.036 225.948C421.602 225.204 419.022 226.548 417.996 227.592C417.93 227.664 417.21 228.552 416.88 228.984L416.802 228.942C417.244 227.541 417.812 226.183 418.5 224.886C418.866 224.166 419.256 223.494 419.652 222.852C420.114 223.086 422.226 224.112 423.354 224.154C424.482 224.196 425.82 223.956 426.54 223.068C426.718 222.866 426.852 222.629 426.933 222.373C427.013 222.116 427.039 221.845 427.008 221.578C426.976 221.311 426.889 221.053 426.752 220.822C426.614 220.59 426.43 220.391 426.21 220.236C424.86 219.342 422.148 220.422 421.014 221.322C420.954 221.37 420.384 221.922 419.976 222.354C420.156 222.066 420.342 221.754 420.522 221.496C421.2 220.476 421.884 219.588 422.496 218.802C422.844 218.358 423.174 217.962 423.48 217.602C424.08 217.602 426.342 217.524 427.344 217.056C428.346 216.588 429.438 215.736 429.672 214.62C429.737 214.359 429.746 214.087 429.699 213.822C429.651 213.557 429.549 213.305 429.398 213.083C429.246 212.86 429.05 212.672 428.821 212.531C428.593 212.389 428.337 212.298 428.07 212.262C426.462 212.088 424.548 214.296 423.96 215.616C423.912 215.73 423.318 217.608 423.36 217.608H423.396C423.09 217.956 422.796 218.328 422.424 218.748C421.824 219.522 421.092 220.398 420.39 221.412C419.62 222.488 418.914 223.61 418.278 224.772C417.56 226.07 416.958 227.43 416.478 228.834C416.478 228.834 416.478 228.834 416.478 228.882C416.478 228.408 416.478 227.082 416.478 226.98C416.292 225.546 415.086 222.888 413.478 222.594C413.212 222.551 412.941 222.565 412.681 222.635C412.421 222.705 412.179 222.829 411.971 222.999C411.762 223.169 411.592 223.381 411.471 223.621C411.35 223.862 411.282 224.125 411.27 224.394C411.174 225.534 412.002 226.674 412.806 227.394C413.712 228.204 416.238 228.99 416.406 229.05C415.952 230.49 415.597 231.959 415.344 233.448C415.188 234.312 415.056 235.194 414.942 236.07C414.942 235.662 414.942 235.296 414.942 235.242C414.756 233.814 413.556 231.15 411.942 230.856C411.676 230.814 411.405 230.829 411.145 230.899C410.885 230.969 410.643 231.093 410.434 231.263C410.226 231.433 410.055 231.644 409.933 231.884C409.811 232.124 409.742 232.387 409.728 232.656C409.638 233.796 410.46 234.936 411.27 235.656C412.08 236.376 414.222 237.096 414.786 237.282L414.66 238.296C414.468 239.922 414.282 241.542 414.06 243.126C413.976 243.684 413.88 244.23 413.778 244.782C413.778 244.416 413.778 244.11 413.778 244.062C413.592 242.628 412.392 239.97 410.778 239.676C410.512 239.633 410.241 239.647 409.981 239.717C409.721 239.787 409.479 239.911 409.271 240.081C409.062 240.251 408.892 240.463 408.771 240.703C408.65 240.944 408.582 241.207 408.57 241.476C408.48 242.616 409.302 243.756 410.106 244.476C410.91 245.196 412.854 245.844 413.526 246.066C413.406 246.624 413.292 247.182 413.154 247.716C413.046 248.082 412.974 248.436 412.848 248.796L412.506 249.864C412.26 250.53 412.014 251.22 411.762 251.868C411.588 252.318 411.414 252.744 411.246 253.176C411.33 252.618 411.48 251.526 411.48 251.436C411.46 250.17 411.117 248.931 410.484 247.836C410.496 247.694 410.496 247.551 410.484 247.41C410.45 247.143 410.36 246.886 410.22 246.656C410.081 246.426 409.894 246.227 409.673 246.074C409.452 245.921 409.201 245.816 408.936 245.766C408.672 245.716 408.4 245.722 408.138 245.784C406.572 246.204 405.582 248.952 405.51 250.392C405.51 250.476 405.558 251.406 405.606 251.994C405.528 251.652 405.45 251.322 405.366 250.974C405.204 250.278 405.018 249.594 404.826 248.856L404.502 247.788C404.4 247.428 404.25 247.056 404.124 246.69C403.812 245.844 403.458 245.004 403.08 244.164C403.68 244.02 405.828 243.474 406.68 242.808C407.532 242.142 408.444 241.08 408.438 239.934C408.445 239.665 408.395 239.398 408.292 239.149C408.189 238.901 408.035 238.677 407.839 238.492C407.644 238.307 407.412 238.165 407.159 238.076C406.905 237.986 406.636 237.951 406.368 237.972C404.76 238.146 403.368 240.714 403.068 242.13C403.068 242.214 402.954 243.258 402.912 243.828C402.684 243.324 402.456 242.82 402.21 242.322C401.49 240.87 400.716 239.424 399.948 237.984C399.714 237.54 399.486 237.096 399.258 236.652C399.474 236.604 402.036 236.01 402.996 235.272C403.854 234.612 404.76 233.538 404.754 232.398C404.762 232.129 404.712 231.861 404.61 231.612C404.507 231.363 404.353 231.139 404.157 230.954C403.962 230.769 403.73 230.627 403.476 230.538C403.222 230.448 402.952 230.414 402.684 230.436C401.076 230.61 399.684 233.172 399.384 234.588C399.384 234.696 399.228 236.19 399.216 236.574C398.706 235.596 398.214 234.618 397.764 233.64C397.147 232.314 396.618 230.949 396.18 229.554C396.282 229.554 398.958 228.954 399.942 228.168C400.8 227.508 401.742 226.434 401.7 225.294C401.708 225.025 401.658 224.757 401.556 224.508C401.453 224.259 401.299 224.035 401.103 223.85C400.908 223.665 400.676 223.523 400.422 223.434C400.168 223.344 399.898 223.31 399.63 223.332C398.022 223.506 396.63 226.068 396.336 227.484C396.336 227.58 396.21 228.72 396.174 229.284H396.084C395.679 227.869 395.402 226.421 395.256 224.958C395.166 224.154 395.13 223.38 395.106 222.63C395.616 222.564 397.944 222.258 398.904 221.676C399.864 221.094 400.848 220.146 400.968 219.006C401.004 218.739 400.984 218.469 400.909 218.211C400.834 217.953 400.705 217.714 400.531 217.509C400.358 217.304 400.143 217.138 399.9 217.022C399.658 216.905 399.394 216.841 399.126 216.834C397.506 216.834 395.838 219.234 395.394 220.596C395.394 220.674 395.208 221.46 395.094 222.036C395.094 221.694 395.094 221.346 395.094 221.016C395.094 219.816 395.172 218.676 395.25 217.68C395.298 217.116 395.352 216.606 395.406 216.132C395.874 215.814 397.746 214.488 398.322 213.546C398.898 212.604 399.348 211.29 398.922 210.228C398.832 209.974 398.689 209.742 398.503 209.548C398.317 209.353 398.092 209.2 397.843 209.098C397.594 208.996 397.326 208.947 397.057 208.956C396.788 208.965 396.524 209.03 396.282 209.148C394.842 209.892 394.482 212.784 394.704 214.212C394.704 214.332 395.268 216.222 395.304 216.21C395.238 216.666 395.178 217.158 395.118 217.698C395.022 218.688 394.92 219.81 394.89 221.04C394.846 222.362 394.878 223.687 394.986 225.006C395.102 226.486 395.347 227.954 395.718 229.392V229.44C395.466 229.038 394.716 227.946 394.644 227.868C393.702 226.776 391.23 225.216 389.742 225.852C389.497 225.963 389.279 226.125 389.101 226.326C388.923 226.528 388.79 226.764 388.71 227.021C388.629 227.277 388.604 227.547 388.635 227.814C388.666 228.081 388.753 228.339 388.89 228.57C389.442 229.494 390.762 229.992 391.83 230.148Z" fill="#263238"/>
<path opacity="0.3" d="M390.846 221.916C392.01 222.426 394.848 222.36 394.854 222.36C394.86 222.36 394.254 220.5 394.188 220.386C393.588 219.084 391.596 216.93 389.988 217.146C389.723 217.19 389.47 217.288 389.245 217.436C389.021 217.584 388.83 217.777 388.685 218.004C388.54 218.23 388.444 218.484 388.404 218.75C388.364 219.016 388.381 219.287 388.452 219.546C388.716 220.656 389.856 221.484 390.846 221.916Z" fill="#263238"/>
<path opacity="0.3" d="M419.592 222.54C419.592 222.54 420.108 220.65 420.126 220.53C420.324 219.096 419.868 216.216 418.41 215.508C418.164 215.398 417.898 215.341 417.629 215.34C417.36 215.34 417.093 215.396 416.847 215.505C416.601 215.615 416.381 215.774 416.2 215.974C416.02 216.174 415.883 216.41 415.8 216.666C415.41 217.74 415.908 219.066 416.496 219.96C417.18 221.028 419.586 222.54 419.592 222.54Z" fill="#263238"/>
<path opacity="0.3" d="M391.83 230.148C393.03 230.322 395.568 229.59 395.772 229.548C396.19 230.998 396.703 232.419 397.308 233.802C397.656 234.612 398.034 235.41 398.424 236.202L397.95 235.518C397.002 234.426 394.53 232.872 393.042 233.502C392.798 233.614 392.58 233.777 392.403 233.979C392.226 234.181 392.092 234.418 392.012 234.675C391.932 234.931 391.906 235.202 391.937 235.469C391.967 235.736 392.054 235.994 392.19 236.226C392.742 237.228 394.062 237.72 395.13 237.876C396.198 238.032 398.388 237.45 398.964 237.276L399.414 238.194C400.146 239.658 400.89 241.116 401.568 242.562C401.808 243.072 402.03 243.588 402.246 244.098C402.042 243.798 401.868 243.546 401.838 243.498C400.89 242.406 398.418 240.846 396.93 241.482C396.685 241.594 396.467 241.756 396.289 241.958C396.111 242.16 395.978 242.397 395.897 242.654C395.817 242.911 395.792 243.182 395.823 243.449C395.854 243.716 395.941 243.974 396.078 244.206C396.63 245.202 397.95 245.7 399.018 245.856C400.086 246.012 402.066 245.484 402.744 245.298C402.954 245.826 403.164 246.36 403.344 246.882C403.458 247.242 403.596 247.584 403.686 247.95C403.776 248.316 403.89 248.67 403.986 249.024C404.154 249.72 404.328 250.428 404.472 251.112C404.58 251.58 404.67 252.03 404.76 252.486C404.532 251.976 404.052 250.986 404.004 250.908C403.236 249.708 401.004 247.77 399.456 248.166C399.197 248.239 398.957 248.367 398.751 248.539C398.545 248.712 398.378 248.926 398.26 249.168C398.142 249.41 398.077 249.674 398.068 249.942C398.059 250.211 398.107 250.479 398.208 250.728C398.598 251.802 399.828 252.492 400.86 252.81C401.994 253.158 404.514 252.84 404.826 252.81C404.976 253.56 405.12 254.292 405.24 254.988C405.492 256.434 405.69 257.742 405.84 258.858H406.896C406.716 257.7 406.482 256.332 406.182 254.808C406.032 254.046 405.858 253.23 405.666 252.408C406.424 252.104 407.163 251.755 407.88 251.364C408.708 252.264 410.832 253.314 411.108 253.446C410.82 254.154 410.508 254.844 410.25 255.492C409.698 256.758 409.176 257.892 408.702 258.864H409.848C410.244 257.976 410.682 256.968 411.132 255.864C411.432 255.144 411.732 254.364 412.032 253.566C412.338 253.632 414.828 254.136 415.992 253.872C417.048 253.638 418.32 253.044 418.794 252C418.913 251.758 418.98 251.495 418.99 251.226C419.001 250.957 418.954 250.689 418.854 250.439C418.754 250.19 418.602 249.964 418.409 249.777C418.215 249.59 417.985 249.446 417.732 249.354C416.202 248.838 413.856 250.554 412.998 251.754C412.95 251.826 412.482 252.63 412.194 253.14C412.32 252.816 412.44 252.498 412.56 252.162C412.806 251.49 413.034 250.818 413.274 250.098L413.598 249.024C413.712 248.67 413.79 248.28 413.886 247.902C414.096 247.026 414.264 246.102 414.414 245.22C415.014 245.43 417.09 246.162 418.17 246.084C419.25 246.006 420.57 245.61 421.218 244.656C421.373 244.436 421.48 244.185 421.531 243.921C421.583 243.657 421.578 243.385 421.518 243.123C421.457 242.861 421.342 242.615 421.18 242.4C421.017 242.185 420.812 242.007 420.576 241.878C419.136 241.134 416.556 242.478 415.536 243.522C415.47 243.588 414.816 244.398 414.468 244.854C414.552 244.308 414.642 243.762 414.708 243.204C414.912 241.602 415.062 239.97 415.218 238.344C415.266 237.846 415.32 237.348 415.374 236.856C415.584 236.934 418.044 237.846 419.256 237.762C420.336 237.69 421.656 237.294 422.31 236.334C422.464 236.113 422.57 235.863 422.621 235.599C422.672 235.335 422.667 235.064 422.607 234.802C422.546 234.54 422.431 234.294 422.27 234.079C422.108 233.864 421.903 233.686 421.668 233.556C420.228 232.812 417.648 234.156 416.622 235.2C416.544 235.278 415.608 236.454 415.386 236.76C415.5 235.668 415.626 234.582 415.794 233.514C416.012 232.069 416.323 230.64 416.724 229.236C416.82 229.272 419.388 230.244 420.63 230.154C421.71 230.082 423.06 229.686 423.684 228.726C423.838 228.505 423.943 228.254 423.994 227.99C424.045 227.726 424.039 227.454 423.978 227.192C423.917 226.931 423.802 226.684 423.639 226.47C423.477 226.256 423.271 226.078 423.036 225.948C421.602 225.204 419.022 226.548 417.996 227.592C417.93 227.664 417.21 228.552 416.88 228.984L416.802 228.942C417.244 227.541 417.812 226.183 418.5 224.886C418.866 224.166 419.256 223.494 419.652 222.852C420.114 223.086 422.226 224.112 423.354 224.154C424.482 224.196 425.82 223.956 426.54 223.068C426.718 222.866 426.852 222.629 426.933 222.373C427.013 222.116 427.039 221.845 427.008 221.578C426.976 221.311 426.889 221.053 426.752 220.822C426.614 220.59 426.43 220.391 426.21 220.236C424.86 219.342 422.148 220.422 421.014 221.322C420.954 221.37 420.384 221.922 419.976 222.354C420.156 222.066 420.342 221.754 420.522 221.496C421.2 220.476 421.884 219.588 422.496 218.802C422.844 218.358 423.174 217.962 423.48 217.602C424.08 217.602 426.342 217.524 427.344 217.056C428.346 216.588 429.438 215.736 429.672 214.62C429.737 214.359 429.746 214.087 429.699 213.822C429.651 213.557 429.549 213.305 429.398 213.083C429.246 212.86 429.05 212.672 428.821 212.531C428.593 212.389 428.337 212.298 428.07 212.262C426.462 212.088 424.548 214.296 423.96 215.616C423.912 215.73 423.318 217.608 423.36 217.608H423.396C423.09 217.956 422.796 218.328 422.424 218.748C421.824 219.522 421.092 220.398 420.39 221.412C419.62 222.488 418.914 223.61 418.278 224.772C417.56 226.07 416.958 227.43 416.478 228.834C416.478 228.834 416.478 228.834 416.478 228.882C416.478 228.408 416.478 227.082 416.478 226.98C416.292 225.546 415.086 222.888 413.478 222.594C413.212 222.551 412.941 222.565 412.681 222.635C412.421 222.705 412.179 222.829 411.971 222.999C411.762 223.169 411.592 223.381 411.471 223.621C411.35 223.862 411.282 224.125 411.27 224.394C411.174 225.534 412.002 226.674 412.806 227.394C413.712 228.204 416.238 228.99 416.406 229.05C415.952 230.49 415.597 231.959 415.344 233.448C415.188 234.312 415.056 235.194 414.942 236.07C414.942 235.662 414.942 235.296 414.942 235.242C414.756 233.814 413.556 231.15 411.942 230.856C411.676 230.814 411.405 230.829 411.145 230.899C410.885 230.969 410.643 231.093 410.434 231.263C410.226 231.433 410.055 231.644 409.933 231.884C409.811 232.124 409.742 232.387 409.728 232.656C409.638 233.796 410.46 234.936 411.27 235.656C412.08 236.376 414.222 237.096 414.786 237.282L414.66 238.296C414.468 239.922 414.282 241.542 414.06 243.126C413.976 243.684 413.88 244.23 413.778 244.782C413.778 244.416 413.778 244.11 413.778 244.062C413.592 242.628 412.392 239.97 410.778 239.676C410.512 239.633 410.241 239.647 409.981 239.717C409.721 239.787 409.479 239.911 409.271 240.081C409.062 240.251 408.892 240.463 408.771 240.703C408.65 240.944 408.582 241.207 408.57 241.476C408.48 242.616 409.302 243.756 410.106 244.476C410.91 245.196 412.854 245.844 413.526 246.066C413.406 246.624 413.292 247.182 413.154 247.716C413.046 248.082 412.974 248.436 412.848 248.796L412.506 249.864C412.26 250.53 412.014 251.22 411.762 251.868C411.588 252.318 411.414 252.744 411.246 253.176C411.33 252.618 411.48 251.526 411.48 251.436C411.46 250.17 411.117 248.931 410.484 247.836C410.496 247.694 410.496 247.551 410.484 247.41C410.45 247.143 410.36 246.886 410.22 246.656C410.081 246.426 409.894 246.227 409.673 246.074C409.452 245.921 409.201 245.816 408.936 245.766C408.672 245.716 408.4 245.722 408.138 245.784C406.572 246.204 405.582 248.952 405.51 250.392C405.51 250.476 405.558 251.406 405.606 251.994C405.528 251.652 405.45 251.322 405.366 250.974C405.204 250.278 405.018 249.594 404.826 248.856L404.502 247.788C404.4 247.428 404.25 247.056 404.124 246.69C403.812 245.844 403.458 245.004 403.08 244.164C403.68 244.02 405.828 243.474 406.68 242.808C407.532 242.142 408.444 241.08 408.438 239.934C408.445 239.665 408.395 239.398 408.292 239.149C408.189 238.901 408.035 238.677 407.839 238.492C407.644 238.307 407.412 238.165 407.159 238.076C406.905 237.986 406.636 237.951 406.368 237.972C404.76 238.146 403.368 240.714 403.068 242.13C403.068 242.214 402.954 243.258 402.912 243.828C402.684 243.324 402.456 242.82 402.21 242.322C401.49 240.87 400.716 239.424 399.948 237.984C399.714 237.54 399.486 237.096 399.258 236.652C399.474 236.604 402.036 236.01 402.996 235.272C403.854 234.612 404.76 233.538 404.754 232.398C404.762 232.129 404.712 231.861 404.61 231.612C404.507 231.363 404.353 231.139 404.157 230.954C403.962 230.769 403.73 230.627 403.476 230.538C403.222 230.448 402.952 230.414 402.684 230.436C401.076 230.61 399.684 233.172 399.384 234.588C399.384 234.696 399.228 236.19 399.216 236.574C398.706 235.596 398.214 234.618 397.764 233.64C397.147 232.314 396.618 230.949 396.18 229.554C396.282 229.554 398.958 228.954 399.942 228.168C400.8 227.508 401.742 226.434 401.7 225.294C401.708 225.025 401.658 224.757 401.556 224.508C401.453 224.259 401.299 224.035 401.103 223.85C400.908 223.665 400.676 223.523 400.422 223.434C400.168 223.344 399.898 223.31 399.63 223.332C398.022 223.506 396.63 226.068 396.336 227.484C396.336 227.58 396.21 228.72 396.174 229.284H396.084C395.679 227.869 395.402 226.421 395.256 224.958C395.166 224.154 395.13 223.38 395.106 222.63C395.616 222.564 397.944 222.258 398.904 221.676C399.864 221.094 400.848 220.146 400.968 219.006C401.004 218.739 400.984 218.469 400.909 218.211C400.834 217.953 400.705 217.714 400.531 217.509C400.358 217.304 400.143 217.138 399.9 217.022C399.658 216.905 399.394 216.841 399.126 216.834C397.506 216.834 395.838 219.234 395.394 220.596C395.394 220.674 395.208 221.46 395.094 222.036C395.094 221.694 395.094 221.346 395.094 221.016C395.094 219.816 395.172 218.676 395.25 217.68C395.298 217.116 395.352 216.606 395.406 216.132C395.874 215.814 397.746 214.488 398.322 213.546C398.898 212.604 399.348 211.29 398.922 210.228C398.832 209.974 398.689 209.742 398.503 209.548C398.317 209.353 398.092 209.2 397.843 209.098C397.594 208.996 397.326 208.947 397.057 208.956C396.788 208.965 396.524 209.03 396.282 209.148C394.842 209.892 394.482 212.784 394.704 214.212C394.704 214.332 395.268 216.222 395.304 216.21C395.238 216.666 395.178 217.158 395.118 217.698C395.022 218.688 394.92 219.81 394.89 221.04C394.846 222.362 394.878 223.687 394.986 225.006C395.102 226.486 395.347 227.954 395.718 229.392V229.44C395.466 229.038 394.716 227.946 394.644 227.868C393.702 226.776 391.23 225.216 389.742 225.852C389.497 225.963 389.279 226.125 389.101 226.326C388.923 226.528 388.79 226.764 388.71 227.021C388.629 227.277 388.604 227.547 388.635 227.814C388.666 228.081 388.753 228.339 388.89 228.57C389.442 229.494 390.762 229.992 391.83 230.148Z" fill="#263238"/>
<path d="M106.764 204.864C106.764 204.864 107.514 204.714 113.664 202.914C117.603 201.653 121.197 199.496 124.164 196.614L122.214 184.314L109.764 186.114L106.764 204.864Z" fill="#FFC973" stroke="#263238" stroke-linecap="round" stroke-linejoin="round"/>
<path d="M76.1637 246.564C76.1637 246.564 74.0637 250.764 73.7637 254.664C73.4637 258.564 75.7137 259.914 76.4637 258.864C77.2137 257.814 78.4137 254.064 78.5637 252.414L79.0137 247.464L76.1637 246.564Z" fill="white" stroke="#263238" stroke-linecap="round" stroke-linejoin="round"/>
<path d="M131.4 249.264C131.4 249.264 130.8 254.664 130.638 257.214C130.476 259.764 133.638 262.164 134.082 262.32C134.526 262.476 134.982 262.32 135.732 260.52C136.482 258.72 136.488 254.37 136.044 253.02C135.6 251.67 134.7 249.57 134.7 249.57L131.4 249.264Z" fill="white" stroke="#263238" stroke-linecap="round" stroke-linejoin="round"/>
<path d="M110.364 170.214C110.364 170.214 104.31 177.414 102.21 183.414C100.11 189.414 98.4359 196.842 97.0139 200.814C95.8254 204.207 94.8239 207.662 94.0139 211.164C94.0139 211.164 90.1139 215.064 89.0639 218.514C88.0139 221.964 75.7139 247.464 75.7139 247.464C75.7139 247.464 76.4639 248.514 77.0639 248.664C77.6639 248.814 79.0139 248.064 79.0139 248.064C79.0139 248.064 100.764 219.564 102.114 217.464C103.464 215.364 107.724 210.504 108.174 209.754C108.624 209.004 112.014 198.564 113.214 197.064C114.103 195.869 114.882 194.596 115.542 193.26L116.442 193.86L117.492 194.01C117.492 194.01 122.214 203.514 123.414 207.414C124.614 211.314 128.064 232.614 128.964 236.514C129.864 240.414 131.064 250.614 131.064 250.614C131.606 250.793 132.156 250.943 132.714 251.064C133.464 251.214 135.414 250.614 135.414 250.614C135.414 250.614 138.864 235.014 139.014 229.614C139.164 224.214 138.114 212.214 138.114 210.414C138.114 208.614 135.414 183.864 134.064 180.564C132.714 177.264 128.214 171.414 128.214 171.414L110.364 170.214Z" fill="#263238" stroke="#263238" stroke-linecap="round" stroke-linejoin="round"/>
<path d="M119.214 141.864L110.214 144.714C110.214 144.714 110.214 162.114 110.364 164.364C110.514 166.614 109.314 170.364 110.064 171.264C110.814 172.164 114.414 175.764 121.014 175.914C127.614 176.064 129.414 173.964 129.414 173.964L130.764 168.114C130.764 168.114 135.114 156.414 135.114 154.614C135.114 152.814 130.764 147.564 128.214 145.464C125.664 143.364 119.214 141.864 119.214 141.864Z" fill="white" stroke="#263238" stroke-linecap="round" stroke-linejoin="round"/>
<path d="M95.9639 162.414C94.0476 163.704 92.0426 164.857 89.9639 165.864L77.9639 171.864L79.3139 174.714C82.2409 174.192 85.1959 173.841 88.1639 173.664C92.0639 173.514 98.6639 170.964 99.1139 170.214C99.5639 169.464 101.064 165.414 101.064 165.414L95.9639 162.414Z" fill="white" stroke="#263238" stroke-linecap="round" stroke-linejoin="round"/>
<path d="M118.014 142.014C118.014 142.014 111.564 159.714 111.264 162.264C110.964 164.814 108.414 171.264 108.264 172.164C108.114 173.064 103.914 182.214 103.914 182.214C103.914 182.214 108.414 168.114 108.864 165.264C109.11 163.442 108.904 161.588 108.264 159.864C108.264 159.864 105.222 166.32 104.772 166.77C104.322 167.22 101.268 172.374 101.268 172.374L95.9639 162.414C95.9639 162.414 101.814 152.214 103.014 150.564C104.214 148.914 106.764 144.414 108.564 143.514C110.364 142.614 118.014 142.014 118.014 142.014Z" fill="#FFC973" stroke="#263238" stroke-linecap="round" stroke-linejoin="round"/>
<path d="M126.864 144.264C126.864 144.264 122.214 163.764 122.214 166.914C122.214 170.064 121.764 179.814 121.314 185.214C120.864 190.614 119.964 207.864 119.964 207.864C122.842 208.305 125.762 208.406 128.664 208.164C132.864 207.714 140.064 204.864 140.064 204.864C140.064 204.864 136.314 185.964 134.814 181.464C133.552 177.573 132.501 173.618 131.664 169.614C131.664 169.164 135.714 155.964 135.714 154.164C135.714 152.364 128.514 144.714 126.864 144.264Z" fill="#FFC973" stroke="#263238" stroke-linecap="round" stroke-linejoin="round"/>
<path d="M73.9682 172.992C74.0578 171.855 73.851 170.714 73.3682 169.68C72.5522 168.072 72.1082 167.574 73.4162 167.928C74.7242 168.282 75.4922 170.844 75.4922 170.844L73.9682 172.992Z" fill="white" stroke="#263238" stroke-linecap="round" stroke-linejoin="round"/>
<path d="M82.41 174.072C82.41 174.072 80.694 176.784 79.662 176.538C78.63 176.292 74.052 174 73.968 172.992C73.884 171.984 74.754 168.954 75.51 169.086C76.266 169.218 82.41 174.072 82.41 174.072Z" fill="white" stroke="#263238" stroke-linecap="round" stroke-linejoin="round"/>
<path d="M133.2 125.863C133.591 127.026 133.886 128.22 134.082 129.432C134.026 130.171 133.889 130.902 133.674 131.61C133.674 131.61 136.128 133.794 136.266 134.34C136.404 134.886 134.904 135.702 134.904 135.702C134.904 135.702 135.036 141.426 135.036 141.834C135.036 142.242 128.358 142.518 128.358 142.518L121.38 150.696L118.11 142.656L119.61 138.156C119.61 138.156 115.11 135.564 116.748 131.61C118.386 127.657 122.064 125.479 125.748 124.933C128.146 124.619 130.58 124.71 132.948 125.202L133.2 125.863Z" fill="white" stroke="#263238" stroke-linecap="round" stroke-linejoin="round"/>
<path d="M128.334 142.518L124.914 141.864L124.716 146.466L128.334 142.518Z" fill="#263238" stroke="#263238" stroke-linecap="round" stroke-linejoin="round"/>
<path d="M132.252 132.138C132.252 132.618 132.078 133.002 131.856 133.002C131.634 133.002 131.46 132.618 131.46 132.138C131.46 131.658 131.64 131.28 131.856 131.28C132.072 131.28 132.252 131.664 132.252 132.138Z" fill="#263238"/>
<path d="M130.932 130.752C130.932 130.752 131.328 129.96 132.78 130.356" stroke="#263238" stroke-linecap="round" stroke-linejoin="round"/>
<path d="M134.238 137.1C134.238 137.1 132.516 137.364 131.838 136.434" stroke="#263238" stroke-linecap="round" stroke-linejoin="round"/>
<path d="M133.512 127.524C133.512 127.524 129.018 126.432 128.196 128.07C127.374 129.708 128.064 130.524 127.38 132.024C126.696 133.524 124.11 135.432 124.11 135.432C124.11 135.432 121.656 132.702 120.834 134.064C120.012 135.426 120.288 137.472 121.11 138.156C121.932 138.84 124.242 138.426 124.242 138.426L120.702 140.064C120.702 140.064 120.834 142.11 117.564 142.926C114.294 143.742 110.364 141.564 110.886 138.84C111.408 136.116 115.926 134.478 115.926 134.478C115.926 134.478 111.126 128.616 115.11 124.278C119.094 119.94 126.834 121.962 126.834 121.962C126.834 121.962 127.926 120.762 131.034 120.462C134.142 120.162 135.534 123.324 135.534 125.1C135.534 126.876 133.512 127.524 133.512 127.524Z" fill="#263238" stroke="#263238" stroke-linecap="round" stroke-linejoin="round"/>
<path d="M359.916 82.1999L358.314 51.252L331.71 65.706L332.31 68.106L342.372 73.2419L295.026 166.032L144.762 206.892L40.884 135.996C39.9634 135.367 38.8309 135.13 37.7355 135.337C36.6401 135.543 35.6716 136.176 35.043 137.097C34.4144 138.017 34.1773 139.15 34.3838 140.245C34.5903 141.341 35.2234 142.309 36.144 142.938L141.6 214.92C142.307 215.403 143.144 215.658 144 215.652C144.371 215.653 144.741 215.602 145.098 215.502L299.028 173.652C299.593 173.499 300.12 173.229 300.574 172.86C301.029 172.491 301.402 172.031 301.668 171.51L349.86 77.0819L359.916 82.1999Z" fill="#263238" stroke="#263238" stroke-linecap="round" stroke-linejoin="round"/>
<path d="M359.316 79.8L357.714 48.8521L331.71 65.706L341.772 70.842L294.426 163.632L144.162 204.492L40.2839 133.596C39.3633 132.967 38.2308 132.73 37.1354 132.937C36.04 133.143 35.0715 133.776 34.4429 134.697C33.8143 135.618 33.5772 136.75 33.7837 137.846C33.9902 138.941 34.6233 139.909 35.5439 140.538L141 212.52C141.707 213.003 142.544 213.258 143.4 213.252C143.771 213.253 144.141 213.202 144.498 213.102L298.428 171.252C298.993 171.099 299.52 170.829 299.974 170.46C300.429 170.091 300.801 169.631 301.068 169.11L349.26 74.682L359.316 79.8Z" fill="#FFC973" stroke="#263238" stroke-linecap="round" stroke-linejoin="round"/>
<path d="M354.99 54.21L337.704 65.4L345.81 69.534L296.496 166.2L143.61 207.75L38.6098 136.074C38.4794 135.985 38.3329 135.923 38.1784 135.891C38.024 135.859 37.8648 135.858 37.7099 135.887C37.555 135.917 37.4074 135.977 37.2756 136.063C37.1438 136.15 37.0304 136.261 36.9418 136.392C36.762 136.655 36.6939 136.978 36.7524 137.291C36.8109 137.603 36.9913 137.88 37.2538 138.06L142.734 210.06C142.933 210.197 143.17 210.27 143.412 210.27C143.517 210.268 143.622 210.254 143.724 210.228L297.654 168.372C297.814 168.33 297.965 168.255 298.095 168.151C298.225 168.048 298.332 167.919 298.41 167.772L347.964 70.674L356.07 74.808L354.99 54.21Z" fill="white"/>
<path d="M130.092 176.838L129.27 180C128.337 181.794 127.258 183.508 126.042 185.124C124.062 187.746 116.952 195.06 116.952 195.06L114.942 197.538L114.708 199.71L116.34 200.34C116.34 200.34 117.156 200.658 117.822 201C118.488 201.342 120.222 201.654 120.756 201.252C121.29 200.85 122.556 197.592 122.556 197.592L123.036 195.078C123.036 195.078 131.484 188.448 133.416 186.438C135.348 184.428 137.016 182.622 137.58 181.458C138.144 180.294 137.682 176.724 137.682 176.724L130.092 176.838Z" fill="white" stroke="#263238" stroke-linecap="round" stroke-linejoin="round"/>
<path d="M129.882 161.502L128.4 177.438C129.811 177.946 131.254 178.359 132.72 178.674C135.09 179.178 140.04 177.87 140.04 177.87C140.04 177.87 139.278 164.604 138.288 159.75C137.298 154.896 134.538 151.266 132.762 150.66" fill="#FFC973"/>
<path d="M129.882 161.502L128.4 177.438C129.811 177.946 131.254 178.359 132.72 178.674C135.09 179.178 140.04 177.87 140.04 177.87C140.04 177.87 139.278 164.604 138.288 159.75C137.298 154.896 134.538 151.266 132.762 150.66" stroke="#263238" stroke-linecap="round" stroke-linejoin="round"/>
<path d="M319.914 258.864H428.514" stroke="#263238" stroke-linecap="round" stroke-linejoin="round"/>
<path d="M306.714 258.864H314.514" stroke="#263238" stroke-linecap="round" stroke-linejoin="round"/>
<path d="M110.514 258.864H300.114" stroke="#263238" stroke-linecap="round" stroke-linejoin="round"/>
<path d="M19.9141 258.864H105.114" stroke="#263238" stroke-linecap="round" stroke-linejoin="round"/>
</svg>
